<?xml version="1.0" encoding="UTF-8" standalone="no"?>
<!DOCTYPE svg PUBLIC "-//W3C//DTD SVG 1.1//EN" "http://www.w3.org/Graphics/SVG/1.1/DTD/svg11.dtd">
<svg version="1.1" xmlns="http://www.w3.org/2000/svg" xmlns:xlink="http://www.w3.org/1999/xlink" preserveAspectRatio="xMidYMid meet" viewBox="0 0 534 680" width="534" height="680"><defs><path d="M531.13 302.3C531.13 294.9 525.12 288.89 517.72 288.89C498.79 288.89 433.89 288.89 423.09 288.89C403.2 288.89 387.08 296.8 387.08 306.55C387.08 316.3 403.2 324.2 423.09 324.2C444.7 324.2 496.84 324.2 515.28 324.2C524.03 324.2 531.13 317.11 531.13 308.35C531.13 304.46 531.13 306.68 531.13 302.3Z" id="bbpIvGq0D"></path><path d="M2.87 302.3C2.87 294.9 8.88 288.89 16.28 288.89C35.21 288.89 100.11 288.89 110.91 288.89C130.8 288.89 146.92 296.8 146.92 306.55C146.92 316.3 130.8 324.2 110.91 324.2C89.3 324.2 37.16 324.2 18.72 324.2C9.97 324.2 2.87 317.11 2.87 308.35C2.87 304.46 2.87 306.68 2.87 302.3Z" id="aKQm1pXFC"></path><path d="M280.94 437.28C280.94 415.63 279.04 395.99 275.96 381.58C272.75 366.59 268.26 357.27 263.28 357.27C253.53 357.27 245.63 393.09 245.63 437.28C245.63 461.28 245.63 619.55 245.63 665.12C245.63 671.85 251.09 677.31 257.82 677.31C262.44 677.31 263.15 677.31 267.53 677.31C274.93 677.31 280.94 671.3 280.94 663.9C280.94 618.57 280.94 461.28 280.94 437.28Z" id="c2Ncr9w7XH"></path><path d="M342.73 280.07C390.4 280.07 416.88 280.07 422.18 280.07C427.05 280.07 431.01 284.02 431.01 288.89C431.01 295.71 431.01 350.22 431.01 357.03C431.01 359.75 429.75 362.32 427.61 363.99C425.47 365.67 422.67 366.26 420.03 365.6C411.22 363.4 340.75 345.82 331.94 343.62C327.93 342.62 323.76 344.53 321.91 348.23C319.76 352.53 302.57 386.91 300.42 391.2C299.26 393.53 299.18 396.24 300.21 398.63C301.75 402.22 314.05 430.92 315.59 434.51C317.05 437.92 316.22 441.87 313.53 444.41C310.83 446.96 306.83 447.54 303.52 445.88C302.71 445.48 296.27 442.25 295.46 441.85C292.06 440.15 287.95 440.82 285.26 443.51C283.69 445.08 271.1 457.67 269.52 459.25C266.08 462.69 260.49 462.69 257.04 459.25C255.47 457.67 242.88 445.04 241.3 443.46C238.62 440.77 234.51 440.1 231.11 441.8C230.3 442.21 223.85 445.44 223.05 445.84C219.73 447.5 215.74 446.91 213.04 444.37C210.34 441.83 209.52 437.87 210.98 434.47C212.52 430.88 224.82 402.17 226.36 398.58C227.38 396.2 227.3 393.48 226.14 391.16C224 386.86 206.81 352.49 204.66 348.19C202.81 344.49 198.63 342.57 194.62 343.58C185.81 345.78 115.34 363.39 106.53 365.6C103.89 366.26 101.1 365.67 98.96 363.99C96.81 362.32 95.56 359.75 95.56 357.03C95.56 350.22 95.56 295.71 95.56 288.89C95.56 284.02 99.51 280.07 104.39 280.07C136.17 280.07 215.61 280.07 342.73 280.07Z" id="aP4mhgN5z"></path><path d="M263.28 350.69C258.41 350.69 254.45 354.64 254.45 359.51C254.45 364.39 258.41 368.34 263.28 368.34C268.16 368.34 272.11 364.39 272.11 359.51C272.11 354.64 268.16 350.69 263.28 350.69Z" id="bPpQyXqpD"></path><path d="M263.28 386C258.41 386 254.45 389.95 254.45 394.82C254.45 399.7 258.41 403.65 263.28 403.65C268.16 403.65 272.11 399.7 272.11 394.82C272.11 389.95 268.16 386 263.28 386Z" id="kkOHpR8WB"></path><path d="M175.27 75.88C180.04 53.48 182.69 41.03 183.22 38.54C186.91 25.17 198.18 15.26 211.91 13.3C213.89 12.91 229.78 9.8 231.77 9.41C252.59 5.44 273.98 5.44 294.8 9.41C296.78 9.8 312.67 12.91 314.66 13.3C328.39 15.26 339.65 25.17 343.35 38.54C343.88 41.03 346.53 53.48 351.29 75.88L175.27 75.88Z" id="b1VtnneM"></path><path d="M393.4 166.63C416.88 159.04 431.01 149.42 431.01 138.82C431.01 122.93 399.14 94.07 351.29 75.88C294.68 53.87 231.88 53.87 175.27 75.88C127.43 94.07 95.56 122.93 95.56 138.82C95.56 149.42 109.68 159.04 133.16 166.63C185.21 166.63 341.35 166.63 393.4 166.63Z" id="d11ljNb4MO"></path><path d="M355.3 246.41C344.6 252.86 338.16 264.52 338.41 277.01C338.68 282.88 340.15 288.64 342.73 293.92C342.73 293.92 303.01 303.99 293.12 283.86C293.12 283.86 263.28 303.99 263.28 324.2C263.28 303.99 233.45 283.86 233.45 283.86C223.56 303.99 183.83 293.92 183.83 293.92C186.41 288.64 187.88 282.88 188.16 277.01C188.4 264.52 181.96 252.86 171.26 246.41C146.38 230.34 130.87 207.86 130.87 182.96C130.87 134.23 190.19 94.69 263.28 94.69C336.37 94.69 395.7 134.23 395.7 182.96C395.7 207.86 380.19 230.34 355.3 246.41Z" id="b9hyTBsik"></path><path d="M201.49 138.82C186.86 138.82 175.01 150.68 175.01 165.31C175.01 179.93 186.86 191.79 201.49 191.79C216.12 191.79 227.97 179.93 227.97 165.31C227.97 150.68 216.12 138.82 201.49 138.82Z" id="aOraVYt45"></path><path d="M325.08 138.82C310.45 138.82 298.59 150.68 298.59 165.31C298.59 179.93 310.45 191.79 325.08 191.79C339.7 191.79 351.56 179.93 351.56 165.31C351.56 150.68 339.7 138.82 325.08 138.82Z" id="b8ukya43Z"></path><path d="M254.45 191.79C249.58 191.79 245.63 187.84 245.63 182.96C245.63 178.09 249.58 174.13 254.45 174.13C256.22 174.13 270.34 174.13 272.11 174.13C276.99 174.13 280.94 178.09 280.94 182.96C280.94 187.84 276.99 191.79 272.11 191.79C268.58 191.79 256.22 191.79 254.45 191.79Z" id="dFkUNXS37"></path><path d="M328.03 210.08C323.49 208.5 318.51 210.8 316.78 215.29C314.9 219.05 312.07 222.26 308.59 224.61C308.21 224.24 305.21 221.23 304.83 220.86C301.57 217.51 296.26 217.31 292.76 220.42C289.26 223.52 288.82 228.82 291.76 232.46C285.32 234.21 278.71 235.28 272.05 235.64C272.05 230.79 268.12 226.87 263.28 226.87C258.44 226.87 254.52 230.79 254.52 235.64C247.85 235.28 241.24 234.21 234.8 232.46C237.74 228.82 237.3 223.52 233.81 220.42C230.31 217.31 224.99 217.51 221.73 220.86C221.35 221.24 218.34 224.25 217.96 224.63C214.53 222.32 211.74 219.17 209.86 215.48C208.86 212.49 206.34 210.25 203.25 209.61C200.16 208.98 196.96 210.04 194.86 212.4C192.77 214.77 192.09 218.07 193.09 221.06C195.73 227.39 199.99 232.92 205.44 237.08C205.3 237.23 204.16 238.37 204.01 238.51C201.72 240.73 200.8 244.01 201.61 247.1C202.41 250.19 204.83 252.6 207.91 253.4C211 254.21 214.28 253.29 216.5 251C216.96 250.53 220.68 246.81 221.15 246.34C231.78 250.51 243.04 252.85 254.45 253.28C254.45 253.31 254.45 253.55 254.45 253.58C254.45 258.46 258.41 262.41 263.28 262.41C268.16 262.41 272.11 258.46 272.11 253.58C272.11 253.55 272.11 253.31 272.11 253.28C283.5 252.84 294.74 250.5 305.35 246.34C305.82 246.81 309.54 250.53 310.01 251C313.47 254.34 318.98 254.29 322.38 250.89C325.79 247.48 325.83 241.98 322.49 238.51C322.35 238.37 321.2 237.23 321.06 237.08C326.52 232.92 330.79 227.39 333.44 221.06C334.95 216.54 332.54 211.64 328.03 210.08Z" id="d1eoavIEH9"></path><path d="M192.66 147.65C187.79 147.65 183.83 151.6 183.83 156.48C183.83 161.35 187.79 165.31 192.66 165.31C197.54 165.31 201.49 161.35 201.49 156.48C201.49 151.6 197.54 147.65 192.66 147.65Z" id="awjxJxkH2"></path><path d="M316.25 147.65C311.37 147.65 307.42 151.6 307.42 156.48C307.42 161.35 311.37 165.31 316.25 165.31C321.12 165.31 325.08 161.35 325.08 156.48C325.08 151.6 321.12 147.65 316.25 147.65Z" id="g44EAFtT4x"></path><path d="M175.01 156.48C170.13 156.48 166.18 152.53 166.18 147.65C166.18 142.78 170.13 138.82 175.01 138.82C180.3 138.82 222.68 138.82 227.97 138.82C232.85 138.82 236.8 142.78 236.8 147.65C236.8 152.53 232.85 156.48 227.97 156.48C217.38 156.48 180.3 156.48 175.01 156.48Z" id="b6PifKtpa"></path><path d="M298.59 156.48C293.72 156.48 289.77 152.53 289.77 147.65C289.77 142.78 293.72 138.82 298.59 138.82C303.89 138.82 346.26 138.82 351.56 138.82C356.43 138.82 360.39 142.78 360.39 147.65C360.39 152.53 356.43 156.48 351.56 156.48C340.97 156.48 303.89 156.48 298.59 156.48Z" id="d5rLwjtI4U"></path></defs><g><g><g><use xlink:href="#bbpIvGq0D" opacity="1" fill="#57351d" fill-opacity="1"></use><g><use xlink:href="#bbpIvGq0D" opacity="1" fill-opacity="0" stroke="#000000" stroke-width="1" stroke-opacity="0"></use></g></g><g><use xlink:href="#aKQm1pXFC" opacity="1" fill="#57351d" fill-opacity="1"></use><g><use xlink:href="#aKQm1pXFC" opacity="1" fill-opacity="0" stroke="#000000" stroke-width="1" stroke-opacity="0"></use></g></g><g><use xlink:href="#c2Ncr9w7XH" opacity="1" fill="#57351d" fill-opacity="1"></use><g><use xlink:href="#c2Ncr9w7XH" opacity="1" fill-opacity="0" stroke="#000000" stroke-width="1" stroke-opacity="0"></use></g></g><g><use xlink:href="#aP4mhgN5z" opacity="1" fill="#984952" fill-opacity="1"></use><g><use xlink:href="#aP4mhgN5z" opacity="1" fill-opacity="0" stroke="#000000" stroke-width="1" stroke-opacity="0"></use></g></g><g><use xlink:href="#bPpQyXqpD" opacity="1" fill="#a79d96" fill-opacity="1"></use><g><use xlink:href="#bPpQyXqpD" opacity="1" fill-opacity="0" stroke="#000000" stroke-width="1" stroke-opacity="0"></use></g></g><g><use xlink:href="#kkOHpR8WB" opacity="1" fill="#b7afa9" fill-opacity="1"></use><g><use xlink:href="#kkOHpR8WB" opacity="1" fill-opacity="0" stroke="#000000" stroke-width="1" stroke-opacity="0"></use></g></g><g><use xlink:href="#b1VtnneM" opacity="1" fill="#8d7e66" fill-opacity="1"></use><g><use xlink:href="#b1VtnneM" opacity="1" fill-opacity="0" stroke="#000000" stroke-width="1" stroke-opacity="0"></use></g></g><g><use xlink:href="#d11ljNb4MO" opacity="1" fill="#726248" fill-opacity="1"></use><g><use xlink:href="#d11ljNb4MO" opacity="1" fill-opacity="0" stroke="#000000" stroke-width="1" stroke-opacity="0"></use></g></g><g><use xlink:href="#b9hyTBsik" opacity="1" fill="#d1c3b2" fill-opacity="1"></use><g><use xlink:href="#b9hyTBsik" opacity="1" fill-opacity="0" stroke="#000000" stroke-width="1" stroke-opacity="0"></use></g></g><g><use xlink:href="#aOraVYt45" opacity="1" fill="#7d8fa2" fill-opacity="1"></use><g><use xlink:href="#aOraVYt45" opacity="1" fill-opacity="0" stroke="#000000" stroke-width="1" stroke-opacity="0"></use></g></g><g><use xlink:href="#b8ukya43Z" opacity="1" fill="#7d8fa2" fill-opacity="1"></use><g><use xlink:href="#b8ukya43Z" opacity="1" fill-opacity="0" stroke="#000000" stroke-width="1" stroke-opacity="0"></use></g></g><g><use xlink:href="#dFkUNXS37" opacity="1" fill="#5f5346" fill-opacity="1"></use><g><use xlink:href="#dFkUNXS37" opacity="1" fill-opacity="0" stroke="#000000" stroke-width="1" stroke-opacity="0"></use></g></g><g><use xlink:href="#d1eoavIEH9" opacity="1" fill="#5f5346" fill-opacity="1"></use><g><use xlink:href="#d1eoavIEH9" opacity="1" fill-opacity="0" stroke="#000000" stroke-width="1" stroke-opacity="0"></use></g></g><g><use xlink:href="#awjxJxkH2" opacity="1" fill="#ffffff" fill-opacity="1"></use><g><use xlink:href="#awjxJxkH2" opacity="1" fill-opacity="0" stroke="#000000" stroke-width="1" stroke-opacity="0"></use></g></g><g><use xlink:href="#g44EAFtT4x" opacity="1" fill="#ffffff" fill-opacity="1"></use><g><use xlink:href="#g44EAFtT4x" opacity="1" fill-opacity="0" stroke="#000000" stroke-width="1" stroke-opacity="0"></use></g></g><g><use xlink:href="#b6PifKtpa" opacity="1" fill="#5f5346" fill-opacity="1"></use><g><use xlink:href="#b6PifKtpa" opacity="1" fill-opacity="0" stroke="#000000" stroke-width="1" stroke-opacity="0"></use></g></g><g><use xlink:href="#d5rLwjtI4U" opacity="1" fill="#5f5346" fill-opacity="1"></use><g><use xlink:href="#d5rLwjtI4U" opacity="1" fill-opacity="0" stroke="#000000" stroke-width="1" stroke-opacity="0"></use></g></g></g></g></svg>