<?xml version="1.0" encoding="UTF-8" standalone="no"?>
<!DOCTYPE svg PUBLIC "-//W3C//DTD SVG 1.1//EN" "http://www.w3.org/Graphics/SVG/1.1/DTD/svg11.dtd">
<svg version="1.1" xmlns="http://www.w3.org/2000/svg" xmlns:xlink="http://www.w3.org/1999/xlink" preserveAspectRatio="xMidYMid meet" viewBox="0 0 660 2700" width="660" height="2700"><defs><path d="M330.93 0.4L331.39 0.76L331.84 1.27L332.29 1.92L332.73 2.7L333.17 3.61L333.59 4.66L334.01 5.83L334.43 7.12L334.83 8.54L335.23 10.07L335.61 11.72L335.99 13.48L336.36 15.36L336.72 17.34L337.06 19.42L337.4 21.6L337.73 23.88L338.04 26.26L338.34 28.73L338.63 31.29L338.91 33.94L339.18 36.67L339.43 39.48L339.67 42.37L339.89 45.34L340.1 48.38L340.3 51.48L340.48 54.66L340.64 57.9L340.79 61.19L340.92 64.55L341.04 67.96L341.14 71.43L341.22 74.94L341.28 78.5L341.33 82.11L341.36 85.75L341.37 89.43L341.37 2143.59L341.36 2147.28L341.33 2150.92L341.28 2154.53L341.22 2158.09L341.14 2161.6L341.04 2165.07L340.92 2168.48L340.79 2171.83L340.64 2175.13L340.48 2178.37L340.3 2181.54L340.1 2184.65L339.89 2187.69L339.67 2190.66L339.43 2193.55L339.18 2196.36L338.91 2199.09L338.63 2201.73L338.34 2204.29L338.04 2206.77L337.73 2209.14L337.4 2211.43L337.06 2213.61L336.72 2215.69L336.36 2217.67L335.99 2219.54L335.61 2221.31L335.23 2222.96L334.83 2224.49L334.43 2225.91L334.01 2227.2L333.59 2228.37L333.17 2229.42L332.73 2230.33L332.29 2231.11L331.84 2231.76L331.39 2232.26L330.93 2232.63L330.47 2232.85L330 2232.93L329.53 2232.85L329.07 2232.63L328.61 2232.26L328.16 2231.76L327.71 2231.11L327.27 2230.33L326.84 2229.42L326.41 2228.37L325.99 2227.2L325.58 2225.91L325.17 2224.49L324.78 2222.96L324.39 2221.31L324.01 2219.54L323.65 2217.67L323.29 2215.69L322.94 2213.61L322.6 2211.43L322.28 2209.14L321.96 2206.77L321.66 2204.29L321.37 2201.73L321.09 2199.09L320.83 2196.36L320.58 2193.55L320.34 2190.66L320.11 2187.69L319.9 2184.65L319.71 2181.54L319.53 2178.37L319.36 2175.13L319.22 2171.83L319.08 2168.48L318.97 2165.07L318.87 2161.6L318.78 2158.09L318.72 2154.53L318.67 2150.92L318.65 2147.28L318.64 2143.59L318.64 89.43L318.65 85.75L318.67 82.11L318.72 78.5L318.78 74.94L318.87 71.43L318.97 67.96L319.08 64.55L319.22 61.19L319.36 57.9L319.53 54.66L319.71 51.48L319.9 48.38L320.11 45.34L320.34 42.37L320.58 39.48L320.83 36.67L321.09 33.94L321.37 31.29L321.66 28.73L321.96 26.26L322.28 23.88L322.6 21.6L322.94 19.42L323.29 17.34L323.65 15.36L324.01 13.48L324.39 11.72L324.78 10.07L325.17 8.54L325.58 7.12L325.99 5.83L326.41 4.66L326.84 3.61L327.27 2.7L327.71 1.92L328.16 1.27L328.61 0.76L329.07 0.4L329.53 0.18L330 0.1L330.47 0.18L330.93 0.4Z" id="aYUmDrRch"></path><path d="M1.05 0.12L1.34 0.14L1.63 0.17L1.93 0.21L2.22 0.25L2.51 0.31L2.8 0.37L3.09 0.43L3.37 0.51L3.66 0.59L3.94 0.68L4.22 0.78L4.5 0.88L4.78 1L5.06 1.12L5.33 1.24L5.6 1.38L5.87 1.52L6.13 1.67L196.69 113.77L330 113.77L330.47 113.78L330.93 113.81L331.39 113.86L331.84 113.92L332.29 114L332.73 114.1L333.17 114.22L333.59 114.35L334.01 114.5L334.43 114.67L334.83 114.85L335.23 115.04L335.61 115.25L335.99 115.48L336.36 115.71L336.72 115.97L337.06 116.23L337.4 116.51L337.73 116.8L338.04 117.1L338.34 117.42L338.63 117.74L338.91 118.08L339.18 118.43L339.43 118.78L339.67 119.15L339.89 119.53L340.1 119.91L340.3 120.31L340.48 120.71L340.64 121.13L340.79 121.54L340.92 121.97L341.04 122.41L341.14 122.85L341.22 123.29L341.28 123.75L341.33 124.2L341.36 124.67L341.37 125.14L341.36 125.61L341.33 126.07L341.28 126.53L341.22 126.98L341.14 127.43L341.04 127.87L340.92 128.3L340.79 128.73L340.64 129.15L340.48 129.56L340.3 129.97L340.1 130.36L339.89 130.75L339.67 131.13L339.43 131.49L339.18 131.85L338.91 132.2L338.63 132.54L338.34 132.86L338.04 133.18L337.73 133.48L337.4 133.77L337.06 134.05L336.72 134.31L336.36 134.56L335.99 134.8L335.61 135.03L335.23 135.24L334.83 135.43L334.43 135.61L334.01 135.78L333.59 135.93L333.17 136.06L332.73 136.18L332.29 136.27L331.84 136.36L331.39 136.42L330.93 136.47L330.47 136.5L330 136.51L193.6 136.51L193.45 136.5L193.3 136.5L193.15 136.5L192.99 136.49L192.84 136.48L192.69 136.47L192.54 136.46L192.39 136.44L192.24 136.42L192.09 136.4L191.94 136.38L191.79 136.36L191.64 136.34L191.5 136.31L191.35 136.28L191.2 136.25L191.05 136.22L190.91 136.18L190.76 136.14L190.61 136.11L190.47 136.07L190.32 136.02L190.18 135.98L190.04 135.93L189.89 135.88L189.75 135.83L189.61 135.78L189.47 135.73L189.33 135.67L189.19 135.61L189.05 135.55L188.91 135.49L188.78 135.43L188.64 135.36L188.5 135.3L188.37 135.23L188.23 135.16L188.1 135.08L187.97 135.01L187.84 134.93L-5.4 21.27L-5.66 21.11L-5.91 20.95L-6.16 20.78L-6.4 20.6L-6.64 20.42L-6.88 20.23L-7.1 20.04L-7.33 19.84L-7.54 19.64L-7.75 19.43L-7.96 19.21L-8.16 18.99L-8.35 18.77L-8.54 18.54L-8.72 18.31L-8.89 18.07L-9.06 17.83L-9.22 17.58L-9.37 17.33L-9.52 17.07L-9.66 16.82L-9.8 16.56L-9.93 16.29L-10.05 16.02L-10.16 15.75L-10.27 15.48L-10.37 15.2L-10.46 14.92L-10.55 14.63L-10.63 14.35L-10.7 14.06L-10.76 13.77L-10.82 13.48L-10.87 13.18L-10.91 12.89L-10.94 12.59L-10.97 12.29L-10.99 11.99L-11 11.68L-11 11.38L-10.99 11.07L-10.98 10.77L-10.96 10.47L-10.93 10.17L-10.89 9.87L-10.84 9.58L-10.79 9.28L-10.73 8.99L-10.66 8.7L-10.58 8.42L-10.5 8.13L-10.41 7.85L-10.31 7.57L-10.21 7.3L-10.09 7.02L-9.97 6.75L-9.85 6.49L-9.72 6.22L-9.58 5.96L-9.43 5.71L-9.28 5.46L-9.12 5.21L-8.95 4.96L-8.78 4.73L-8.6 4.49L-8.42 4.26L-8.23 4.03L-8.03 3.81L-7.83 3.6L-7.62 3.39L-7.41 3.18L-7.19 2.98L-6.96 2.78L-6.73 2.59L-6.5 2.41L-6.25 2.23L-6.01 2.06L-5.75 1.89L-5.5 1.73L-5.23 1.58L-4.97 1.43L-4.7 1.29L-4.43 1.16L-4.15 1.04L-3.88 0.92L-3.6 0.82L-3.32 0.72L-3.03 0.62L-2.75 0.54L-2.46 0.46L-2.17 0.39L-1.88 0.33L-1.59 0.27L-1.3 0.23L-1.01 0.19L-0.72 0.15L-0.42 0.13L-0.13 0.11L0.17 0.1L0.46 0.1L0.75 0.11L1.05 0.12Z" id="a2zZ70pyh5"></path><path d="M92.49 0.25L92.93 0.3L93.36 0.37L93.8 0.45L94.23 0.55L94.66 0.66L95.08 0.8L95.5 0.95L95.92 1.12L96.34 1.3L96.75 1.51L97.16 1.73L208.11 68.31L330 68.31L330.47 68.32L330.93 68.34L331.39 68.39L331.84 68.46L332.29 68.54L332.73 68.64L333.17 68.75L333.59 68.89L334.01 69.03L334.43 69.2L334.83 69.38L335.23 69.58L335.61 69.79L335.99 70.01L336.36 70.25L336.72 70.5L337.06 70.76L337.4 71.04L337.73 71.33L338.04 71.64L338.34 71.95L338.63 72.28L338.91 72.61L339.18 72.96L339.43 73.32L339.67 73.68L339.89 74.06L340.1 74.45L340.3 74.84L340.48 75.25L340.64 75.66L340.79 76.08L340.92 76.51L341.04 76.94L341.14 77.38L341.22 77.83L341.28 78.28L341.33 78.74L341.36 79.2L341.37 79.67L341.36 80.14L341.33 80.6L341.28 81.06L341.22 81.51L341.14 81.96L341.04 82.4L340.92 82.84L340.79 83.26L340.64 83.68L340.48 84.1L340.3 84.5L340.1 84.9L339.89 85.28L339.67 85.66L339.43 86.03L339.18 86.39L338.91 86.73L338.63 87.07L338.34 87.4L338.04 87.71L337.73 88.01L337.4 88.3L337.06 88.58L336.72 88.85L336.36 89.1L335.99 89.34L335.61 89.56L335.23 89.77L334.83 89.97L334.43 90.15L334.01 90.31L333.59 90.46L333.17 90.59L332.73 90.71L332.29 90.81L331.84 90.89L331.39 90.96L330.93 91L330.47 91.03L330 91.04L204.97 91.04L204.81 91.04L204.66 91.04L204.5 91.03L204.35 91.02L204.2 91.01L204.04 91L203.89 90.99L203.74 90.97L203.58 90.95L203.43 90.93L203.28 90.91L203.13 90.89L202.98 90.86L202.83 90.84L202.68 90.81L202.53 90.77L202.38 90.74L202.23 90.7L202.08 90.67L201.93 90.63L201.78 90.58L201.64 90.54L201.49 90.49L201.34 90.44L201.2 90.39L201.05 90.34L200.91 90.29L200.77 90.23L200.63 90.18L200.48 90.12L200.34 90.05L200.2 89.99L200.06 89.92L199.93 89.86L199.79 89.79L199.65 89.72L199.51 89.64L199.38 89.57L199.25 89.49L199.11 89.41L85.45 21.21L85.06 20.96L84.69 20.69L84.33 20.41L83.98 20.12L83.65 19.82L83.33 19.51L83.03 19.18L82.74 18.85L82.46 18.5L82.2 18.15L81.96 17.79L81.72 17.42L81.51 17.04L81.31 16.66L81.12 16.27L80.95 15.87L80.8 15.47L80.66 15.06L80.53 14.64L80.42 14.23L80.33 13.8L80.25 13.38L80.19 12.95L80.15 12.52L80.12 12.09L80.11 11.66L80.11 11.22L80.14 10.79L80.17 10.35L80.23 9.92L80.3 9.49L80.39 9.06L80.5 8.63L80.62 8.2L80.76 7.78L80.92 7.36L81.1 6.94L81.29 6.53L81.5 6.12L81.73 5.72L81.98 5.33L82.24 4.95L82.51 4.59L82.8 4.24L83.09 3.9L83.4 3.57L83.72 3.27L84.05 2.97L84.39 2.69L84.74 2.42L85.09 2.17L85.46 1.93L85.83 1.71L86.21 1.5L86.6 1.31L87 1.13L87.4 0.97L87.8 0.82L88.21 0.69L88.63 0.57L89.05 0.47L89.47 0.39L89.9 0.32L90.33 0.27L90.76 0.23L91.19 0.21L91.62 0.21L92.06 0.22L92.49 0.25Z" id="e4K0j6e8G"></path><path d="M182.97 0.13L183.26 0.15L183.55 0.18L183.85 0.22L184.14 0.26L184.43 0.32L184.72 0.38L185 0.44L185.29 0.52L185.57 0.6L185.86 0.69L186.14 0.79L186.42 0.9L186.69 1.01L186.96 1.13L187.24 1.26L187.5 1.4L187.77 1.54L188.03 1.69L188.29 1.85L188.54 2.01L219.74 22.84L330 22.84L330.47 22.84L330.93 22.87L331.39 22.92L331.84 22.98L332.29 23.07L332.73 23.17L333.17 23.28L333.59 23.42L334.01 23.56L334.43 23.73L334.83 23.91L335.23 24.11L335.61 24.32L335.99 24.54L336.36 24.78L336.72 25.03L337.06 25.3L337.4 25.57L337.73 25.86L338.04 26.17L338.34 26.48L338.63 26.81L338.91 27.14L339.18 27.49L339.43 27.85L339.67 28.22L339.89 28.59L340.1 28.98L340.3 29.38L340.48 29.78L340.64 30.19L340.79 30.61L340.92 31.04L341.04 31.47L341.14 31.91L341.22 32.36L341.28 32.81L341.33 33.27L341.36 33.74L341.37 34.2L341.36 34.67L341.33 35.14L341.28 35.6L341.22 36.05L341.14 36.5L341.04 36.94L340.92 37.37L340.79 37.8L340.64 38.22L340.48 38.63L340.3 39.03L340.1 39.43L339.89 39.82L339.67 40.19L339.43 40.56L339.18 40.92L338.91 41.27L338.63 41.6L338.34 41.93L338.04 42.24L337.73 42.55L337.4 42.84L337.06 43.12L336.72 43.38L336.36 43.63L335.99 43.87L335.61 44.09L335.23 44.3L334.83 44.5L334.43 44.68L334.01 44.85L333.59 44.99L333.17 45.13L332.73 45.24L332.29 45.34L331.84 45.42L331.39 45.49L330.93 45.54L330.47 45.56L330 45.57L216.34 45.57L216.17 45.57L216 45.57L215.83 45.56L215.66 45.55L215.5 45.54L215.33 45.53L215.16 45.51L215 45.49L214.83 45.47L214.66 45.45L214.5 45.42L214.33 45.39L214.17 45.36L214.01 45.33L213.84 45.29L213.68 45.26L213.52 45.22L213.36 45.17L213.2 45.13L213.04 45.08L212.88 45.03L212.72 44.98L212.56 44.93L212.41 44.87L212.25 44.81L212.1 44.75L211.94 44.69L211.79 44.62L211.64 44.55L211.48 44.48L211.33 44.41L211.18 44.34L211.03 44.26L210.89 44.18L210.74 44.1L210.59 44.02L210.45 43.93L210.31 43.85L210.16 43.76L210.02 43.66L175.93 20.93L175.68 20.75L175.43 20.58L175.19 20.39L174.96 20.2L174.73 20.01L174.51 19.81L174.29 19.6L174.08 19.39L173.87 19.17L173.68 18.95L173.48 18.73L173.3 18.5L173.12 18.26L172.94 18.02L172.78 17.78L172.62 17.53L172.46 17.28L172.32 17.03L172.17 16.77L172.04 16.51L171.91 16.24L171.79 15.97L171.68 15.7L171.57 15.43L171.48 15.15L171.38 14.87L171.3 14.59L171.22 14.3L171.15 14.01L171.09 13.72L171.03 13.43L170.99 13.14L170.95 12.84L170.92 12.55L170.89 12.25L170.88 11.95L170.87 11.65L170.87 11.34L170.87 11.04L170.89 10.74L170.91 10.43L170.95 10.13L170.98 9.83L171.03 9.54L171.09 9.24L171.15 8.95L171.22 8.66L171.3 8.37L171.38 8.09L171.47 7.8L171.57 7.52L171.68 7.25L171.79 6.97L171.91 6.7L172.04 6.44L172.17 6.18L172.32 5.92L172.46 5.66L172.62 5.41L172.78 5.16L172.94 4.92L173.12 4.68L173.3 4.45L173.48 4.22L173.67 3.99L173.87 3.77L174.07 3.56L174.28 3.35L174.49 3.15L174.71 2.95L174.94 2.75L175.17 2.56L175.4 2.38L175.65 2.21L175.89 2.04L176.14 1.87L176.4 1.71L176.66 1.56L176.93 1.42L177.2 1.28L177.47 1.15L177.75 1.02L178.03 0.91L178.31 0.8L178.59 0.7L178.88 0.61L179.16 0.52L179.45 0.45L179.74 0.38L180.03 0.32L180.32 0.26L180.61 0.22L180.91 0.18L181.2 0.15L181.5 0.13L181.79 0.11L182.09 0.1L182.38 0.1L182.67 0.11L182.97 0.13Z" id="c5FxJ3JLnn"></path><path d="M217.21 23.13L217.66 23.18L218.11 23.25L218.56 23.33L219.01 23.43L219.45 23.55L219.89 23.69L220.32 23.84L220.74 24.01L221.14 24.2L221.54 24.4L221.93 24.61L222.31 24.84L222.68 25.08L223.03 25.33L223.38 25.6L223.71 25.87L224.03 26.17L224.34 26.47L224.64 26.78L224.92 27.1L225.2 27.44L225.46 27.78L225.7 28.13L225.94 28.5L226.15 28.87L226.36 29.24L226.55 29.63L226.73 30.02L226.89 30.42L227.03 30.83L227.16 31.24L227.28 31.66L227.38 32.08L227.46 32.51L227.53 32.94L227.58 33.38L227.61 33.82L227.63 34.26L227.63 34.71L227.61 35.15L227.57 35.6L227.52 36.05L227.44 36.51L227.35 36.96L204.62 127.89L204.52 128.27L204.4 128.64L204.28 129L204.14 129.36L204 129.71L203.84 130.06L203.67 130.39L203.49 130.73L203.3 131.05L203.1 131.37L202.89 131.68L202.67 131.98L202.44 132.27L202.2 132.56L201.95 132.84L201.7 133.11L201.43 133.37L201.16 133.62L200.88 133.86L200.59 134.09L200.3 134.32L199.99 134.53L199.68 134.73L199.37 134.93L199.05 135.11L198.72 135.28L198.38 135.45L198.04 135.6L197.7 135.74L197.35 135.87L196.99 135.99L196.63 136.09L196.26 136.19L195.89 136.27L195.52 136.34L195.14 136.4L194.76 136.45L194.38 136.48L193.99 136.5L193.6 136.51L193.53 136.5L193.46 136.5L193.39 136.5L193.32 136.5L193.25 136.5L193.18 136.5L193.11 136.49L193.04 136.49L192.97 136.49L192.9 136.48L192.84 136.48L192.77 136.47L192.7 136.47L192.63 136.46L192.56 136.45L192.49 136.45L192.42 136.44L192.35 136.43L192.28 136.42L192.21 136.42L192.14 136.41L192.07 136.4L192 136.39L191.93 136.38L191.87 136.37L191.8 136.36L191.73 136.35L191.66 136.33L191.59 136.32L191.52 136.31L191.45 136.3L191.38 136.28L191.32 136.27L191.25 136.26L191.18 136.24L191.11 136.23L191.04 136.21L190.98 136.19L190.91 136.18L190.84 136.16L190.39 136.04L189.94 135.9L189.51 135.74L189.09 135.57L188.67 135.38L188.27 135.18L187.88 134.96L187.5 134.73L187.12 134.48L186.76 134.23L186.42 133.95L186.08 133.67L185.76 133.37L185.44 133.06L185.15 132.74L184.86 132.41L184.59 132.07L184.33 131.72L184.08 131.36L183.85 130.99L183.63 130.61L183.43 130.22L183.24 129.83L183.07 129.43L182.91 129.02L182.77 128.61L182.64 128.19L182.53 127.76L182.44 127.33L182.36 126.9L182.3 126.46L182.26 126.01L182.23 125.57L182.23 125.12L182.24 124.67L182.26 124.21L182.31 123.76L182.38 123.3L182.46 122.85L182.57 122.39L205.3 31.45L205.43 31.01L205.58 30.58L205.74 30.15L205.92 29.74L206.11 29.34L206.32 28.94L206.54 28.56L206.78 28.19L207.02 27.83L207.29 27.48L207.56 27.14L207.85 26.81L208.14 26.5L208.45 26.19L208.77 25.9L209.1 25.63L209.44 25.36L209.79 25.11L210.15 24.87L210.52 24.65L210.89 24.44L211.28 24.24L211.67 24.06L212.07 23.89L212.47 23.74L212.88 23.61L213.29 23.49L213.71 23.38L214.14 23.29L214.57 23.22L215 23.16L215.44 23.12L215.88 23.1L216.32 23.09L216.77 23.1L217.21 23.13Z" id="b64axItCBN"></path><path d="M660.13 0.11L660.43 0.13L660.72 0.15L661.01 0.19L661.31 0.23L661.6 0.27L661.89 0.33L662.18 0.39L662.47 0.46L662.75 0.54L663.04 0.62L663.32 0.72L663.6 0.82L663.88 0.92L664.16 1.04L664.43 1.16L664.7 1.29L664.97 1.43L665.24 1.58L665.5 1.73L665.76 1.89L666.01 2.06L666.26 2.23L666.5 2.41L666.74 2.59L666.97 2.78L667.19 2.98L667.41 3.18L667.63 3.39L667.83 3.6L668.04 3.81L668.23 4.03L668.42 4.26L668.61 4.49L668.78 4.73L668.96 4.96L669.12 5.21L669.28 5.46L669.43 5.71L669.58 5.96L669.72 6.22L669.85 6.49L669.98 6.75L670.09 7.02L670.21 7.3L670.31 7.57L670.41 7.85L670.5 8.13L670.58 8.42L670.66 8.7L670.73 8.99L670.79 9.28L670.84 9.58L670.89 9.87L670.93 10.17L670.96 10.47L670.98 10.77L670.99 11.07L671 11.38L671 11.68L670.99 11.99L670.97 12.29L670.94 12.59L670.91 12.89L670.87 13.18L670.82 13.48L670.76 13.77L670.7 14.06L670.63 14.35L670.55 14.63L670.46 14.92L670.37 15.2L670.27 15.48L670.16 15.75L670.05 16.02L669.93 16.29L669.8 16.56L669.66 16.82L669.52 17.07L669.37 17.33L669.22 17.58L669.06 17.83L668.89 18.07L668.72 18.31L668.54 18.54L668.35 18.77L668.16 18.99L667.96 19.21L667.75 19.43L667.54 19.64L667.33 19.84L667.1 20.04L666.88 20.23L666.64 20.42L666.4 20.6L666.16 20.78L665.91 20.95L665.66 21.11L665.4 21.27L472.16 134.93L472.03 135.01L471.9 135.08L471.77 135.16L471.63 135.23L471.5 135.3L471.36 135.36L471.22 135.43L471.09 135.49L470.95 135.55L470.81 135.61L470.67 135.67L470.53 135.73L470.39 135.78L470.25 135.83L470.11 135.88L469.96 135.93L469.82 135.98L469.68 136.02L469.53 136.07L469.39 136.11L469.24 136.14L469.09 136.18L468.95 136.22L468.8 136.25L468.65 136.28L468.51 136.31L468.36 136.34L468.21 136.36L468.06 136.38L467.91 136.4L467.76 136.42L467.61 136.44L467.46 136.46L467.31 136.47L467.16 136.48L467.01 136.49L466.86 136.5L466.71 136.5L466.55 136.5L466.4 136.51L330 136.51L329.53 136.5L329.07 136.47L328.61 136.42L328.16 136.36L327.71 136.27L327.27 136.18L326.84 136.06L326.41 135.93L325.99 135.78L325.58 135.61L325.17 135.43L324.78 135.24L324.39 135.03L324.01 134.8L323.65 134.56L323.29 134.31L322.94 134.05L322.6 133.77L322.28 133.48L321.96 133.18L321.66 132.86L321.37 132.54L321.09 132.2L320.83 131.85L320.58 131.49L320.34 131.13L320.11 130.75L319.9 130.36L319.71 129.97L319.53 129.56L319.36 129.15L319.22 128.73L319.08 128.3L318.97 127.87L318.87 127.43L318.78 126.98L318.72 126.53L318.67 126.07L318.65 125.61L318.64 125.14L318.65 124.67L318.67 124.2L318.72 123.75L318.78 123.29L318.87 122.85L318.97 122.41L319.08 121.97L319.22 121.54L319.36 121.13L319.53 120.71L319.71 120.31L319.9 119.91L320.11 119.53L320.34 119.15L320.58 118.78L320.83 118.43L321.09 118.08L321.37 117.74L321.66 117.42L321.96 117.1L322.28 116.8L322.6 116.51L322.94 116.23L323.29 115.97L323.65 115.71L324.01 115.48L324.39 115.25L324.78 115.04L325.17 114.85L325.58 114.67L325.99 114.5L326.41 114.35L326.84 114.22L327.27 114.1L327.71 114L328.16 113.92L328.61 113.86L329.07 113.81L329.53 113.78L330 113.77L463.31 113.77L653.87 1.67L654.13 1.52L654.4 1.38L654.67 1.24L654.94 1.12L655.22 1L655.5 0.88L655.78 0.78L656.06 0.68L656.34 0.59L656.63 0.51L656.91 0.43L657.2 0.37L657.49 0.31L657.78 0.25L658.07 0.21L658.37 0.17L658.66 0.14L658.95 0.12L659.25 0.11L659.54 0.1L659.84 0.1L660.13 0.11Z" id="b2aM1aNTCf"></path><path d="M569.43 0.01L569.73 0.03L570.03 0.06L570.32 0.09L570.62 0.13L570.91 0.18L571.21 0.24L571.5 0.31L571.79 0.38L572.08 0.46L572.37 0.55L572.66 0.65L572.94 0.75L573.22 0.86L573.5 0.98L573.78 1.11L574.06 1.25L574.33 1.39L574.6 1.54L574.86 1.7L575.12 1.87L575.37 2.04L575.62 2.21L575.86 2.39L576.09 2.58L576.32 2.78L576.55 2.98L576.77 3.18L576.98 3.39L577.19 3.61L577.39 3.83L577.58 4.06L577.77 4.29L577.95 4.52L578.13 4.76L578.3 5.01L578.46 5.26L578.62 5.51L578.77 5.77L578.91 6.03L579.05 6.29L579.18 6.56L579.3 6.83L579.41 7.11L579.52 7.39L579.62 7.67L579.72 7.95L579.8 8.24L579.88 8.53L579.95 8.82L580.02 9.12L580.07 9.42L580.12 9.71L580.16 10.02L580.19 10.32L580.22 10.62L580.23 10.93L580.24 11.24L580.24 11.54L580.23 11.85L580.21 12.16L580.19 12.46L580.16 12.76L580.12 13.06L580.07 13.36L580.01 13.65L579.95 13.95L579.87 14.24L579.79 14.53L579.71 14.81L579.61 15.1L579.51 15.38L579.4 15.66L579.29 15.93L579.16 16.2L579.03 16.47L578.9 16.73L578.75 17L578.6 17.25L578.44 17.5L578.28 17.75L578.11 18L577.93 18.24L577.75 18.47L577.56 18.7L577.36 18.93L577.16 19.15L576.95 19.37L576.74 19.58L576.52 19.78L576.29 19.98L576.06 20.18L575.82 20.36L575.58 20.55L575.33 20.72L575.08 20.89L574.82 21.05L574.55 21.21L460.89 89.41L460.75 89.49L460.62 89.57L460.49 89.64L460.35 89.72L460.21 89.79L460.07 89.86L459.94 89.92L459.8 89.99L459.66 90.05L459.52 90.12L459.37 90.18L459.23 90.23L459.09 90.29L458.95 90.34L458.8 90.39L458.66 90.44L458.51 90.49L458.36 90.54L458.22 90.58L458.07 90.63L457.92 90.67L457.77 90.7L457.62 90.74L457.47 90.77L457.32 90.81L457.17 90.84L457.02 90.86L456.87 90.89L456.72 90.91L456.57 90.93L456.42 90.95L456.26 90.97L456.11 90.99L455.96 91L455.8 91.01L455.65 91.02L455.5 91.03L455.34 91.04L455.19 91.04L455.03 91.04L330 91.04L329.53 91.03L329.07 91L328.61 90.96L328.16 90.89L327.71 90.81L327.27 90.71L326.84 90.59L326.41 90.46L325.99 90.31L325.58 90.15L325.17 89.97L324.78 89.77L324.39 89.56L324.01 89.34L323.65 89.1L323.29 88.85L322.94 88.58L322.6 88.3L322.28 88.01L321.96 87.71L321.66 87.4L321.37 87.07L321.09 86.73L320.83 86.39L320.58 86.03L320.34 85.66L320.11 85.28L319.9 84.9L319.71 84.5L319.53 84.1L319.36 83.68L319.22 83.26L319.08 82.84L318.97 82.4L318.87 81.96L318.78 81.51L318.72 81.06L318.67 80.6L318.65 80.14L318.64 79.67L318.65 79.2L318.67 78.74L318.72 78.28L318.78 77.83L318.87 77.38L318.97 76.94L319.08 76.51L319.22 76.08L319.36 75.66L319.53 75.25L319.71 74.84L319.9 74.45L320.11 74.06L320.34 73.68L320.58 73.32L320.83 72.96L321.09 72.61L321.37 72.28L321.66 71.95L321.96 71.64L322.28 71.33L322.6 71.04L322.94 70.76L323.29 70.5L323.65 70.25L324.01 70.01L324.39 69.79L324.78 69.58L325.17 69.38L325.58 69.2L325.99 69.03L326.41 68.89L326.84 68.75L327.27 68.64L327.71 68.54L328.16 68.46L328.61 68.39L329.07 68.34L329.53 68.32L330 68.31L451.89 68.31L562.84 1.73L563.11 1.57L563.37 1.42L563.64 1.28L563.92 1.14L564.19 1.01L564.47 0.89L564.75 0.78L565.03 0.67L565.32 0.57L565.6 0.48L565.89 0.4L566.18 0.32L566.47 0.26L566.76 0.2L567.06 0.15L567.35 0.1L567.65 0.07L567.95 0.04L568.24 0.02L568.54 0L568.84 0L569.14 0L569.43 0.01Z" id="gqEOCTEXB"></path><path d="M478.21 0.11L478.5 0.13L478.8 0.15L479.09 0.18L479.39 0.22L479.68 0.26L479.97 0.32L480.26 0.38L480.55 0.45L480.84 0.52L481.12 0.61L481.41 0.7L481.69 0.8L481.97 0.91L482.25 1.02L482.53 1.15L482.8 1.28L483.07 1.42L483.34 1.56L483.6 1.71L483.86 1.87L484.11 2.04L484.36 2.21L484.6 2.38L484.83 2.56L485.06 2.75L485.29 2.95L485.51 3.15L485.72 3.35L485.93 3.56L486.13 3.77L486.33 3.99L486.52 4.22L486.71 4.45L486.89 4.68L487.06 4.92L487.22 5.16L487.39 5.41L487.54 5.66L487.69 5.92L487.83 6.18L487.96 6.44L488.09 6.7L488.21 6.97L488.32 7.25L488.43 7.52L488.53 7.8L488.62 8.09L488.7 8.37L488.78 8.66L488.85 8.95L488.91 9.24L488.97 9.54L489.02 9.83L489.05 10.13L489.09 10.43L489.11 10.74L489.13 11.04L489.13 11.34L489.13 11.65L489.12 11.95L489.11 12.25L489.08 12.55L489.05 12.84L489.01 13.14L488.97 13.43L488.91 13.72L488.85 14.01L488.78 14.3L488.7 14.59L488.62 14.87L488.52 15.15L488.43 15.43L488.32 15.7L488.21 15.97L488.09 16.24L487.96 16.51L487.83 16.77L487.68 17.03L487.54 17.28L487.38 17.53L487.22 17.78L487.06 18.02L486.88 18.26L486.7 18.5L486.52 18.73L486.32 18.95L486.13 19.17L485.92 19.39L485.71 19.6L485.49 19.81L485.27 20.01L485.04 20.2L484.81 20.39L484.57 20.58L484.32 20.75L484.07 20.93L449.98 43.66L449.84 43.76L449.69 43.85L449.55 43.93L449.41 44.02L449.26 44.1L449.11 44.18L448.97 44.26L448.82 44.34L448.67 44.41L448.52 44.48L448.36 44.55L448.21 44.62L448.06 44.69L447.9 44.75L447.75 44.81L447.59 44.87L447.44 44.93L447.28 44.98L447.12 45.03L446.96 45.08L446.8 45.13L446.64 45.17L446.48 45.22L446.32 45.26L446.16 45.29L445.99 45.33L445.83 45.36L445.67 45.39L445.5 45.42L445.34 45.45L445.17 45.47L445 45.49L444.84 45.51L444.67 45.53L444.5 45.54L444.34 45.55L444.17 45.56L444 45.57L443.83 45.57L443.66 45.57L330 45.57L329.53 45.56L329.07 45.54L328.61 45.49L328.16 45.42L327.71 45.34L327.27 45.24L326.84 45.13L326.41 44.99L325.99 44.85L325.58 44.68L325.17 44.5L324.78 44.3L324.39 44.09L324.01 43.87L323.65 43.63L323.29 43.38L322.94 43.12L322.6 42.84L322.28 42.55L321.96 42.24L321.66 41.93L321.37 41.6L321.09 41.27L320.83 40.92L320.58 40.56L320.34 40.19L320.11 39.82L319.9 39.43L319.71 39.03L319.53 38.63L319.36 38.22L319.22 37.8L319.08 37.37L318.97 36.94L318.87 36.5L318.78 36.05L318.72 35.6L318.67 35.14L318.65 34.67L318.64 34.2L318.65 33.74L318.67 33.27L318.72 32.81L318.78 32.36L318.87 31.91L318.97 31.47L319.08 31.04L319.22 30.61L319.36 30.19L319.53 29.78L319.71 29.38L319.9 28.98L320.11 28.59L320.34 28.22L320.58 27.85L320.83 27.49L321.09 27.14L321.37 26.81L321.66 26.48L321.96 26.17L322.28 25.86L322.6 25.57L322.94 25.3L323.29 25.03L323.65 24.78L324.01 24.54L324.39 24.32L324.78 24.11L325.17 23.91L325.58 23.73L325.99 23.56L326.41 23.42L326.84 23.28L327.27 23.17L327.71 23.07L328.16 22.98L328.61 22.92L329.07 22.87L329.53 22.84L330 22.84L440.26 22.84L471.46 2.01L471.72 1.85L471.97 1.69L472.24 1.54L472.5 1.4L472.77 1.26L473.04 1.13L473.31 1.01L473.59 0.9L473.87 0.79L474.15 0.69L474.43 0.6L474.71 0.52L475 0.44L475.28 0.38L475.57 0.32L475.86 0.26L476.15 0.22L476.45 0.18L476.74 0.15L477.03 0.13L477.33 0.11L477.62 0.1L477.92 0.1L478.21 0.11Z" id="c4g0YBloQ6"></path><path d="M444.56 23.12L445 23.16L445.43 23.22L445.86 23.29L446.29 23.38L446.71 23.49L447.12 23.61L447.53 23.74L447.94 23.89L448.33 24.06L448.72 24.24L449.11 24.44L449.48 24.65L449.85 24.87L450.21 25.11L450.56 25.36L450.9 25.63L451.23 25.9L451.55 26.19L451.86 26.5L452.16 26.81L452.44 27.14L452.72 27.48L452.98 27.83L453.23 28.19L453.46 28.56L453.69 28.94L453.89 29.34L454.09 29.74L454.27 30.15L454.43 30.58L454.58 31.01L454.71 31.45L477.44 122.39L477.54 122.85L477.63 123.3L477.69 123.76L477.74 124.21L477.77 124.67L477.78 125.12L477.77 125.57L477.74 126.01L477.7 126.46L477.64 126.9L477.56 127.33L477.47 127.76L477.36 128.19L477.23 128.61L477.09 129.02L476.93 129.43L476.76 129.83L476.57 130.22L476.37 130.61L476.15 130.99L475.92 131.36L475.67 131.72L475.41 132.07L475.14 132.41L474.85 132.74L474.56 133.06L474.24 133.37L473.92 133.67L473.58 133.95L473.24 134.23L472.88 134.48L472.5 134.73L472.12 134.96L471.73 135.18L471.33 135.38L470.91 135.57L470.49 135.74L470.06 135.9L469.61 136.04L469.16 136.16L469.09 136.18L469.03 136.19L468.96 136.21L468.89 136.23L468.82 136.24L468.75 136.26L468.69 136.27L468.62 136.28L468.55 136.3L468.48 136.31L468.41 136.32L468.34 136.33L468.27 136.35L468.21 136.36L468.14 136.37L468.07 136.38L468 136.39L467.93 136.4L467.86 136.41L467.79 136.42L467.72 136.42L467.65 136.43L467.58 136.44L467.51 136.45L467.45 136.45L467.38 136.46L467.31 136.47L467.24 136.47L467.17 136.48L467.1 136.48L467.03 136.49L466.96 136.49L466.89 136.49L466.82 136.5L466.75 136.5L466.68 136.5L466.61 136.5L466.54 136.5L466.47 136.5L466.4 136.51L466.01 136.5L465.63 136.48L465.24 136.45L464.86 136.4L464.48 136.34L464.11 136.27L463.74 136.19L463.38 136.09L463.02 135.99L462.66 135.87L462.31 135.74L461.96 135.6L461.62 135.45L461.29 135.28L460.96 135.11L460.64 134.93L460.32 134.73L460.01 134.53L459.71 134.32L459.41 134.09L459.12 133.86L458.84 133.62L458.57 133.37L458.31 133.11L458.05 132.84L457.8 132.56L457.57 132.27L457.34 131.98L457.12 131.68L456.91 131.37L456.71 131.05L456.52 130.73L456.34 130.39L456.17 130.06L456.01 129.71L455.86 129.36L455.73 129L455.6 128.64L455.49 128.27L455.39 127.89L432.65 36.96L432.56 36.51L432.49 36.05L432.43 35.6L432.4 35.15L432.38 34.71L432.38 34.26L432.39 33.82L432.43 33.38L432.48 32.94L432.54 32.51L432.63 32.08L432.72 31.66L432.84 31.24L432.97 30.83L433.12 30.42L433.28 30.02L433.45 29.63L433.64 29.24L433.85 28.87L434.07 28.5L434.3 28.13L434.55 27.78L434.81 27.44L435.08 27.1L435.36 26.78L435.66 26.47L435.97 26.17L436.29 25.87L436.63 25.6L436.97 25.33L437.33 25.08L437.69 24.84L438.07 24.61L438.46 24.4L438.86 24.2L439.26 24.01L439.68 23.84L440.11 23.69L440.55 23.55L440.99 23.43L441.44 23.33L441.89 23.25L442.34 23.18L442.79 23.13L443.23 23.1L443.68 23.09L444.12 23.1L444.56 23.12Z" id="d9ov0oI2SB"></path><path d="M93.31 2442.66L94.05 2442.74L94.79 2442.84L95.53 2442.97L96.26 2443.12L97 2443.29L97.73 2443.49L98.46 2443.72L143.25 2458.61L516.74 2458.61L561.53 2443.72L562.26 2443.49L562.99 2443.29L563.73 2443.12L564.46 2442.97L565.2 2442.84L565.94 2442.74L566.68 2442.66L567.42 2442.61L568.16 2442.58L568.89 2442.58L569.63 2442.6L570.36 2442.65L571.09 2442.71L571.82 2442.8L572.54 2442.92L573.25 2443.05L573.96 2443.21L574.67 2443.39L575.37 2443.6L576.06 2443.83L576.74 2444.07L577.42 2444.34L578.08 2444.63L578.74 2444.95L579.39 2445.28L580.03 2445.64L580.65 2446.01L581.27 2446.41L581.87 2446.83L582.46 2447.26L583.04 2447.72L583.6 2448.2L584.15 2448.69L584.69 2449.21L585.21 2449.74L585.71 2450.3L586.2 2450.87L586.67 2451.46L587.12 2452.07L587.56 2452.7L655.76 2555L656.13 2555.51L656.49 2556.03L656.83 2556.55L657.15 2557.09L657.46 2557.63L657.76 2558.17L658.04 2558.72L658.3 2559.28L658.54 2559.85L658.77 2560.42L658.99 2560.99L659.19 2561.57L659.37 2562.15L659.54 2562.74L659.69 2563.33L659.82 2563.93L659.94 2564.53L660.05 2565.13L660.13 2565.73L660.2 2566.33L660.26 2566.94L660.3 2567.55L660.32 2568.16L660.32 2568.77L660.31 2569.38L660.29 2569.99L660.24 2570.6L660.18 2571.21L660.11 2571.81L660.01 2572.42L659.9 2573.02L659.78 2573.63L659.63 2574.23L659.47 2574.82L659.3 2575.42L659.1 2576.01L658.89 2576.6L658.67 2577.18L658.42 2577.76L658.16 2578.33L657.89 2578.9L657.6 2579.46L657.29 2580.01L656.97 2580.54L656.64 2581.07L656.3 2581.58L655.94 2582.09L655.57 2582.58L655.19 2583.06L654.79 2583.53L654.38 2583.99L653.96 2584.44L653.53 2584.87L653.09 2585.3L652.64 2585.71L652.18 2586.11L651.7 2586.49L651.22 2586.86L650.73 2587.22L650.23 2587.57L649.72 2587.9L649.2 2588.22L648.67 2588.52L648.13 2588.81L647.59 2589.09L647.04 2589.35L646.48 2589.59L645.91 2589.82L645.34 2590.04L644.76 2590.24L644.17 2590.43L643.58 2590.6L642.98 2590.75L642.38 2590.89L641.77 2591.01L641.16 2591.12L640.54 2591.21L639.92 2591.28L639.3 2591.34L638.67 2591.37L638.04 2591.39L637.41 2591.4L636.78 2591.39L636.16 2591.35L635.54 2591.31L634.92 2591.24L634.31 2591.16L633.7 2591.06L633.09 2590.95L632.49 2590.82L631.9 2590.68L631.31 2590.51L630.72 2590.34L630.14 2590.15L629.57 2589.94L629 2589.71L628.44 2589.48L627.88 2589.22L627.34 2588.96L626.8 2588.67L626.26 2588.38L625.74 2588.07L625.22 2587.74L624.72 2587.4L624.22 2587.05L623.73 2586.69L623.25 2586.31L622.78 2585.92L622.32 2585.51L621.87 2585.09L621.43 2584.66L621.01 2584.22L620.59 2583.76L620.19 2583.29L619.79 2582.81L619.41 2582.32L619.05 2581.82L618.69 2581.3L618.35 2580.78L618.02 2580.24L559.37 2492.37L473.55 2521.02L473.45 2521.05L473.35 2521.08L473.24 2521.12L473.14 2521.15L473.04 2521.18L472.94 2521.21L472.83 2521.25L472.73 2521.28L472.63 2521.31L472.52 2521.34L472.42 2521.36L472.31 2521.39L472.21 2521.42L472.1 2521.45L472 2521.47L471.9 2521.5L471.79 2521.52L471.69 2521.55L471.58 2521.57L471.47 2521.59L471.37 2521.62L471.26 2521.64L471.16 2521.66L471.05 2521.68L470.95 2521.7L470.84 2521.72L470.73 2521.74L470.63 2521.76L470.52 2521.77L470.41 2521.79L470.31 2521.81L470.2 2521.82L470.09 2521.84L469.99 2521.85L469.88 2521.87L469.77 2521.88L469.67 2521.89L469.56 2521.9L469.45 2521.91L469.34 2521.93L190.65 2521.93L190.54 2521.91L190.43 2521.9L190.32 2521.89L190.22 2521.88L190.11 2521.87L190 2521.85L189.9 2521.84L189.79 2521.82L189.68 2521.81L189.57 2521.79L189.47 2521.77L189.36 2521.76L189.26 2521.74L189.15 2521.72L189.04 2521.7L188.94 2521.68L188.83 2521.66L188.73 2521.64L188.62 2521.62L188.51 2521.59L188.41 2521.57L188.3 2521.55L188.2 2521.52L188.09 2521.5L187.99 2521.47L187.89 2521.45L187.78 2521.42L187.68 2521.39L187.57 2521.36L187.47 2521.34L187.36 2521.31L187.26 2521.28L187.16 2521.25L187.05 2521.21L186.95 2521.18L186.85 2521.15L186.74 2521.12L186.64 2521.08L186.54 2521.05L186.44 2521.02L100.62 2492.37L41.97 2580.24L41.41 2580.95L40.84 2581.63L40.24 2582.28L39.62 2582.91L38.97 2583.51L38.32 2584.08L37.64 2584.62L36.94 2585.13L36.23 2585.61L35.51 2586.07L34.77 2586.49L34.01 2586.89L33.25 2587.25L32.47 2587.59L31.68 2587.9L30.88 2588.18L30.07 2588.42L29.26 2588.64L28.44 2588.83L27.61 2588.98L26.77 2589.11L25.94 2589.2L25.1 2589.27L24.25 2589.3L23.41 2589.3L22.56 2589.27L21.72 2589.21L20.87 2589.12L20.03 2588.99L19.19 2588.84L18.35 2588.65L17.52 2588.42L16.7 2588.17L15.88 2587.88L15.07 2587.56L14.27 2587.21L13.48 2586.83L12.7 2586.41L11.92 2585.95L11.17 2585.47L10.43 2584.95L9.71 2584.41L9.03 2583.85L8.37 2583.27L7.74 2582.66L7.13 2582.03L6.55 2581.39L6 2580.72L5.48 2580.04L4.99 2579.34L4.52 2578.62L4.08 2577.89L3.67 2577.15L3.3 2576.39L2.94 2575.62L2.62 2574.84L2.33 2574.05L2.07 2573.24L1.84 2572.43L1.63 2571.61L1.46 2570.79L1.32 2569.96L1.21 2569.12L1.13 2568.28L1.08 2567.44L1.06 2566.59L1.08 2565.74L1.12 2564.9L1.2 2564.05L1.31 2563.2L1.46 2562.36L1.63 2561.52L1.84 2560.68L2.08 2559.85L2.35 2559.02L2.66 2558.2L3 2557.39L3.38 2556.58L3.79 2555.79L4.23 2555L72.43 2452.7L72.87 2452.07L73.32 2451.46L73.79 2450.87L74.28 2450.3L74.78 2449.74L75.3 2449.21L75.84 2448.69L76.39 2448.2L76.95 2447.72L77.53 2447.26L78.12 2446.83L78.72 2446.41L79.34 2446.01L79.96 2445.64L80.6 2445.28L81.25 2444.95L81.91 2444.63L82.57 2444.34L83.25 2444.07L83.93 2443.83L84.62 2443.6L85.32 2443.39L86.03 2443.21L86.74 2443.05L87.45 2442.92L88.17 2442.8L88.9 2442.71L89.63 2442.65L90.36 2442.6L91.1 2442.58L91.83 2442.58L92.57 2442.61L93.31 2442.66Z" id="aBmMuUUEf"></path><path d="M529.36 2294.87L530.1 2294.92L530.83 2295L531.56 2295.1L532.29 2295.22L533.02 2295.37L533.74 2295.54L534.47 2295.74L535.18 2295.96L535.89 2296.2L536.6 2296.47L537.3 2296.77L537.99 2297.09L538.68 2297.43L647.46 2354.61L648.01 2354.91L648.56 2355.22L649.09 2355.55L649.61 2355.89L650.12 2356.24L650.62 2356.6L651.11 2356.98L651.58 2357.37L652.05 2357.77L652.5 2358.19L652.94 2358.61L653.37 2359.05L653.78 2359.5L654.19 2359.95L654.58 2360.42L654.95 2360.9L655.32 2361.38L655.67 2361.88L656.01 2362.38L656.33 2362.9L656.64 2363.42L656.94 2363.95L657.22 2364.49L657.49 2365.04L657.74 2365.59L657.98 2366.15L658.2 2366.72L658.41 2367.29L658.6 2367.87L658.78 2368.45L658.94 2369.05L659.09 2369.64L659.22 2370.24L659.33 2370.85L659.43 2371.46L659.51 2372.08L659.58 2372.69L659.63 2373.32L659.66 2373.94L659.67 2374.57L659.67 2375.2L659.65 2375.82L659.61 2376.45L659.56 2377.07L659.49 2377.68L659.4 2378.3L659.29 2378.9L659.17 2379.51L659.04 2380.11L658.89 2380.7L658.72 2381.29L658.53 2381.87L658.34 2382.45L658.12 2383.02L657.89 2383.58L657.65 2384.14L657.39 2384.69L657.12 2385.23L656.83 2385.77L656.53 2386.3L656.22 2386.82L655.89 2387.33L655.54 2387.83L655.19 2388.32L654.82 2388.8L654.44 2389.28L654.04 2389.74L653.63 2390.2L653.21 2390.64L652.78 2391.07L652.33 2391.49L651.88 2391.9L651.41 2392.3L650.92 2392.69L650.43 2393.06L649.93 2393.42L649.41 2393.77L648.88 2394.1L648.35 2394.42L647.8 2394.73L647.29 2395L646.79 2395.26L646.27 2395.5L645.76 2395.73L645.23 2395.94L644.71 2396.14L644.18 2396.33L643.65 2396.5L643.11 2396.66L642.57 2396.81L642.03 2396.94L641.48 2397.06L640.94 2397.16L640.39 2397.25L639.84 2397.33L639.29 2397.4L638.74 2397.45L638.18 2397.48L637.63 2397.51L637.07 2397.52L636.52 2397.51L635.97 2397.5L635.41 2397.46L634.86 2397.42L634.31 2397.36L633.76 2397.29L633.21 2397.2L632.66 2397.1L632.11 2396.99L631.57 2396.86L631.03 2396.72L630.49 2396.57L629.96 2396.4L629.43 2396.22L628.9 2396.03L628.37 2395.82L627.85 2395.6L627.34 2395.36L626.83 2395.11L626.32 2394.85L532.88 2345.74L512.08 2368.02L147.91 2368.02L127.1 2345.74L33.67 2394.85L33.16 2395.11L32.65 2395.36L32.14 2395.6L31.62 2395.82L31.09 2396.03L30.56 2396.22L30.03 2396.4L29.5 2396.57L28.96 2396.72L28.42 2396.86L27.88 2396.99L27.33 2397.1L26.78 2397.2L26.23 2397.29L25.68 2397.36L25.13 2397.42L24.58 2397.46L24.02 2397.5L23.47 2397.51L22.92 2397.52L22.36 2397.51L21.81 2397.48L21.25 2397.45L20.7 2397.4L20.15 2397.33L19.6 2397.25L19.05 2397.16L18.51 2397.06L17.96 2396.94L17.42 2396.81L16.88 2396.66L16.34 2396.5L15.81 2396.33L15.28 2396.14L14.76 2395.94L14.23 2395.73L13.72 2395.5L13.2 2395.26L12.69 2395L12.19 2394.73L11.64 2394.42L11.11 2394.1L10.58 2393.77L10.06 2393.42L9.56 2393.06L9.07 2392.69L8.59 2392.3L8.12 2391.9L7.66 2391.49L7.21 2391.07L6.78 2390.64L6.36 2390.2L5.95 2389.74L5.56 2389.28L5.17 2388.8L4.8 2388.32L4.45 2387.83L4.1 2387.33L3.78 2386.82L3.46 2386.3L3.16 2385.77L2.87 2385.23L2.6 2384.69L2.34 2384.14L2.1 2383.58L1.87 2383.02L1.65 2382.45L1.46 2381.87L1.27 2381.29L1.1 2380.7L0.95 2380.11L0.82 2379.51L0.7 2378.9L0.59 2378.3L0.5 2377.68L0.43 2377.07L0.38 2376.45L0.34 2375.82L0.32 2375.2L0.32 2374.57L0.33 2373.94L0.36 2373.32L0.41 2372.69L0.48 2372.08L0.56 2371.46L0.66 2370.85L0.77 2370.24L0.9 2369.64L1.05 2369.05L1.21 2368.45L1.39 2367.87L1.58 2367.29L1.79 2366.72L2.01 2366.15L2.25 2365.59L2.5 2365.04L2.77 2364.49L3.05 2363.95L3.35 2363.42L3.66 2362.9L3.98 2362.38L4.32 2361.88L4.67 2361.38L5.04 2360.9L5.41 2360.42L5.8 2359.95L6.21 2359.5L6.62 2359.05L7.05 2358.61L7.49 2358.19L7.94 2357.77L8.41 2357.37L8.88 2356.98L9.37 2356.6L9.87 2356.24L10.38 2355.89L10.9 2355.55L11.43 2355.22L11.98 2354.91L12.53 2354.61L121.31 2297.43L122 2297.09L122.69 2296.77L123.39 2296.47L124.1 2296.2L124.81 2295.96L125.52 2295.74L126.24 2295.54L126.97 2295.37L127.7 2295.22L128.43 2295.1L129.16 2295L129.89 2294.92L130.63 2294.87L131.36 2294.84L132.09 2294.84L132.83 2294.86L133.56 2294.9L134.29 2294.96L135.01 2295.05L135.74 2295.16L136.45 2295.3L137.17 2295.46L137.88 2295.64L138.58 2295.84L139.28 2296.07L139.97 2296.31L140.65 2296.58L141.33 2296.88L141.99 2297.19L142.65 2297.53L143.3 2297.89L143.93 2298.27L144.56 2298.67L145.18 2299.1L145.78 2299.54L146.37 2300.01L146.94 2300.5L147.51 2301.01L148.06 2301.54L148.59 2302.09L171.09 2326.19L488.9 2326.19L511.4 2302.09L511.93 2301.54L512.48 2301.01L513.05 2300.5L513.62 2300.01L514.21 2299.54L514.81 2299.1L515.43 2298.67L516.05 2298.27L516.69 2297.89L517.34 2297.53L518 2297.19L518.66 2296.88L519.34 2296.58L520.02 2296.31L520.71 2296.07L521.41 2295.84L522.11 2295.64L522.82 2295.46L523.54 2295.3L524.25 2295.16L524.98 2295.05L525.7 2294.96L526.43 2294.9L527.16 2294.86L527.9 2294.84L528.63 2294.84L529.36 2294.87Z" id="g3b38OUljW"></path><path d="M191.3 2181.18L192.05 2181.23L192.79 2181.31L193.52 2181.41L194.25 2181.53L194.97 2181.68L195.68 2181.85L196.39 2182.04L197.09 2182.25L197.78 2182.49L198.47 2182.75L199.14 2183.02L199.81 2183.32L200.46 2183.64L201.11 2183.99L201.74 2184.35L202.36 2184.73L202.97 2185.13L203.57 2185.55L204.15 2185.99L204.73 2186.45L205.28 2186.92L205.82 2187.42L206.35 2187.93L206.86 2188.46L207.35 2189.01L207.83 2189.57L208.29 2190.16L208.74 2190.75L209.16 2191.37L209.57 2192L209.95 2192.65L210.32 2193.31L210.67 2193.99L210.99 2194.68L234.64 2248.33L425.36 2248.33L449.01 2194.68L449.33 2193.99L449.68 2193.31L450.05 2192.65L450.44 2192L450.84 2191.37L451.27 2190.75L451.71 2190.16L452.17 2189.57L452.65 2189.01L453.14 2188.46L453.65 2187.93L454.18 2187.42L454.72 2186.92L455.28 2186.45L455.85 2185.99L456.43 2185.55L457.03 2185.13L457.64 2184.73L458.26 2184.35L458.89 2183.99L459.54 2183.64L460.19 2183.32L460.86 2183.02L461.53 2182.75L462.22 2182.49L462.91 2182.25L463.61 2182.04L464.32 2181.85L465.03 2181.68L465.75 2181.53L466.48 2181.41L467.22 2181.31L467.95 2181.23L468.7 2181.18L469.44 2181.15L470.19 2181.15L470.95 2181.17L471.7 2181.21L472.46 2181.28L473.22 2181.38L594.83 2199.79L595.76 2199.95L596.66 2200.15L597.55 2200.37L598.43 2200.64L599.29 2200.93L600.13 2201.26L600.95 2201.62L601.75 2202.01L602.54 2202.42L603.3 2202.87L604.04 2203.35L604.77 2203.85L605.47 2204.38L606.15 2204.93L606.8 2205.51L607.43 2206.12L608.04 2206.74L608.62 2207.39L609.18 2208.06L609.71 2208.75L610.22 2209.46L610.7 2210.19L611.15 2210.93L611.57 2211.7L611.96 2212.48L612.32 2213.28L612.65 2214.09L612.95 2214.91L613.22 2215.75L613.46 2216.6L613.67 2217.46L613.84 2218.33L613.97 2219.22L614.08 2220.11L614.14 2221.01L614.18 2221.91L614.17 2222.83L614.13 2223.74L614.05 2224.67L613.93 2225.6L613.86 2226.04L613.78 2226.49L613.69 2226.93L613.59 2227.37L613.48 2227.81L613.37 2228.24L613.25 2228.67L613.12 2229.1L612.98 2229.52L612.83 2229.94L612.67 2230.36L612.51 2230.78L612.34 2231.19L612.16 2231.6L611.97 2232L611.77 2232.4L611.57 2232.79L611.36 2233.19L611.14 2233.57L610.92 2233.96L610.68 2234.33L610.44 2234.71L610.2 2235.08L609.94 2235.44L609.68 2235.8L609.41 2236.15L609.13 2236.5L608.85 2236.85L608.56 2237.19L608.26 2237.52L607.96 2237.85L607.65 2238.17L607.33 2238.48L607.01 2238.79L606.68 2239.1L606.34 2239.4L606 2239.69L605.65 2239.97L605.3 2240.25L604.93 2240.52L604.57 2240.79L604.2 2241.05L603.82 2241.29L603.44 2241.54L603.05 2241.77L602.67 2241.99L602.27 2242.21L601.88 2242.42L601.48 2242.62L601.08 2242.81L600.67 2243L600.26 2243.18L599.85 2243.34L599.43 2243.51L599.02 2243.66L598.59 2243.8L598.17 2243.94L597.75 2244.06L597.32 2244.18L596.89 2244.29L596.45 2244.4L596.02 2244.49L595.58 2244.57L595.15 2244.65L594.71 2244.72L594.27 2244.78L593.82 2244.83L593.38 2244.87L592.94 2244.91L592.49 2244.93L592.04 2244.95L591.6 2244.95L591.15 2244.95L590.7 2244.94L590.25 2244.92L589.81 2244.89L589.36 2244.86L588.91 2244.81L588.46 2244.76L588.01 2244.69L483.67 2229.01L459 2284.7L200.99 2284.7L176.32 2229.01L71.98 2244.69L71.53 2244.76L71.08 2244.81L70.63 2244.86L70.18 2244.89L69.74 2244.92L69.29 2244.94L68.84 2244.95L68.39 2244.95L67.95 2244.95L67.5 2244.93L67.05 2244.91L66.61 2244.87L66.17 2244.83L65.72 2244.78L65.28 2244.72L64.84 2244.65L64.41 2244.57L63.97 2244.49L63.53 2244.4L63.1 2244.29L62.67 2244.18L62.24 2244.06L61.82 2243.94L61.39 2243.8L60.97 2243.66L60.56 2243.51L60.14 2243.34L59.73 2243.18L59.32 2243L58.91 2242.81L58.51 2242.62L58.11 2242.42L57.71 2242.21L57.32 2241.99L56.93 2241.77L56.55 2241.54L56.17 2241.29L55.79 2241.05L55.42 2240.79L55.06 2240.52L54.69 2240.25L54.34 2239.97L53.99 2239.69L53.65 2239.4L53.31 2239.1L52.98 2238.79L52.66 2238.48L52.34 2238.17L52.03 2237.85L51.73 2237.52L51.43 2237.19L51.14 2236.85L50.86 2236.5L50.58 2236.15L50.31 2235.8L50.05 2235.44L49.79 2235.08L49.55 2234.71L49.31 2234.33L49.07 2233.96L48.85 2233.57L48.63 2233.19L48.42 2232.79L48.22 2232.4L48.02 2232L47.83 2231.6L47.65 2231.19L47.48 2230.78L47.32 2230.36L47.16 2229.94L47.01 2229.52L46.87 2229.1L46.74 2228.67L46.62 2228.24L46.5 2227.81L46.4 2227.37L46.3 2226.93L46.21 2226.49L46.13 2226.04L46.06 2225.6L45.94 2224.67L45.86 2223.74L45.82 2222.83L45.81 2221.91L45.85 2221.01L45.91 2220.11L46.02 2219.22L46.15 2218.33L46.32 2217.46L46.53 2216.6L46.77 2215.75L47.04 2214.91L47.34 2214.09L47.67 2213.28L48.03 2212.48L48.42 2211.7L48.84 2210.93L49.29 2210.19L49.77 2209.46L50.28 2208.75L50.81 2208.06L51.37 2207.39L51.95 2206.74L52.56 2206.12L53.19 2205.51L53.84 2204.93L54.52 2204.38L55.22 2203.85L55.95 2203.35L56.69 2202.87L57.45 2202.42L58.24 2202.01L59.04 2201.62L59.86 2201.26L60.7 2200.93L61.56 2200.64L62.44 2200.37L63.33 2200.15L64.23 2199.95L65.16 2199.79L186.78 2181.38L187.54 2181.28L188.3 2181.21L189.05 2181.17L189.81 2181.15L190.56 2181.15L191.3 2181.18Z" id="a1VnICvQvp"></path><path d="M334.84 2192.67L337.26 2192.85L339.67 2193.11L342.07 2193.45L344.47 2193.85L346.85 2194.33L349.22 2194.89L351.58 2195.51L353.92 2196.22L356.25 2196.99L358.55 2197.84L360.83 2198.76L363.09 2199.76L365.33 2200.83L367.54 2201.98L369.72 2203.2L371.87 2204.49L373.99 2205.86L376.07 2207.3L380.32 2210.34L384.52 2213.44L388.69 2216.58L392.81 2219.77L396.89 2223.02L400.93 2226.31L404.92 2229.65L408.88 2233.03L412.78 2236.46L416.65 2239.94L420.47 2243.47L424.24 2247.04L427.97 2250.65L431.65 2254.31L435.29 2258.02L438.88 2261.77L442.42 2265.56L445.92 2269.39L449.37 2273.27L452.77 2277.19L456.12 2281.15L459.42 2285.15L462.68 2289.19L465.88 2293.27L469.04 2297.4L472.14 2301.56L475.2 2305.76L478.2 2310L481.15 2314.27L484.05 2318.58L486.9 2322.94L489.69 2327.32L492.43 2331.75L495.12 2336.2L497.75 2340.7L500.33 2345.23L502.86 2349.79L505.33 2354.39L507.75 2359.02L510.1 2363.68L511.24 2366.03L512.33 2368.4L513.36 2370.79L514.34 2373.2L515.27 2375.62L516.15 2378.06L516.98 2380.51L517.75 2382.97L518.47 2385.45L519.15 2387.93L519.76 2390.43L520.33 2392.94L520.84 2395.46L521.31 2397.98L521.72 2400.51L522.07 2403.05L522.38 2405.6L522.63 2408.15L522.83 2410.7L522.98 2413.26L523.08 2415.82L523.12 2418.38L523.11 2420.94L523.05 2423.51L522.94 2426.07L522.77 2428.63L522.55 2431.19L522.28 2433.74L521.96 2436.29L521.58 2438.84L521.15 2441.38L520.67 2443.91L520.13 2446.44L519.54 2448.96L518.9 2451.47L518.21 2453.96L517.46 2456.45L516.66 2458.93L515.8 2461.4L514.9 2463.85L513.94 2466.28L512.93 2468.69L511.88 2471.07L510.78 2473.42L509.63 2475.74L508.43 2478.04L507.19 2480.31L505.91 2482.55L504.58 2484.76L503.21 2486.94L501.79 2489.09L500.33 2491.21L498.83 2493.29L497.29 2495.35L495.71 2497.37L494.09 2499.35L492.42 2501.3L490.72 2503.22L488.98 2505.1L487.2 2506.94L485.39 2508.75L483.53 2510.52L481.65 2512.25L479.72 2513.94L477.76 2515.6L475.77 2517.21L473.74 2518.79L471.68 2520.32L469.59 2521.81L467.46 2523.26L465.3 2524.67L463.11 2526.03L460.89 2527.35L458.64 2528.63L456.37 2529.86L454.06 2531.04L451.72 2532.18L449.36 2533.27L446.97 2534.32L444.55 2535.31L441.81 2536.36L439.06 2537.39L436.3 2538.38L433.53 2539.35L430.75 2540.29L427.97 2541.21L425.18 2542.1L422.38 2542.96L419.57 2543.8L416.76 2544.61L413.94 2545.39L411.11 2546.15L408.28 2546.88L405.43 2547.58L402.59 2548.25L399.74 2548.9L396.88 2549.52L394.01 2550.11L391.14 2550.68L388.27 2551.22L385.39 2551.73L382.51 2552.22L379.62 2552.68L376.73 2553.11L373.83 2553.51L370.93 2553.88L368.02 2554.23L365.11 2554.55L362.2 2554.85L359.29 2555.11L356.37 2555.35L353.45 2555.56L350.52 2555.75L347.6 2555.9L344.67 2556.03L341.74 2556.13L338.81 2556.2L335.87 2556.25L332.94 2556.26L330 2556.25L327.06 2556.26L324.13 2556.25L321.19 2556.2L318.26 2556.13L315.33 2556.03L312.4 2555.9L309.48 2555.75L306.55 2555.56L303.63 2555.35L300.71 2555.12L297.8 2554.85L294.89 2554.56L291.98 2554.24L289.07 2553.89L286.17 2553.51L283.27 2553.11L280.38 2552.68L277.49 2552.22L274.61 2551.74L271.73 2551.23L268.86 2550.69L265.99 2550.12L263.12 2549.53L260.26 2548.91L257.41 2548.26L254.57 2547.59L251.72 2546.88L248.89 2546.16L246.06 2545.4L243.24 2544.62L240.43 2543.81L237.62 2542.97L234.82 2542.11L232.03 2541.22L229.25 2540.31L226.47 2539.36L223.7 2538.4L220.94 2537.4L218.19 2536.38L215.45 2535.33L213.03 2534.33L210.64 2533.29L208.28 2532.2L205.94 2531.06L203.63 2529.87L201.36 2528.64L199.11 2527.37L196.89 2526.05L194.7 2524.68L192.54 2523.27L190.41 2521.83L188.32 2520.33L186.26 2518.8L184.23 2517.23L182.24 2515.61L180.28 2513.96L178.35 2512.26L176.47 2510.53L174.61 2508.76L172.8 2506.95L171.02 2505.11L169.28 2503.23L167.58 2501.31L165.91 2499.36L164.29 2497.38L162.71 2495.36L161.17 2493.3L159.67 2491.22L158.21 2489.1L156.79 2486.95L155.42 2484.77L154.09 2482.56L152.81 2480.32L151.57 2478.05L150.37 2475.75L149.22 2473.43L148.12 2471.08L147.07 2468.7L146.06 2466.29L145.1 2463.86L144.2 2461.41L143.34 2458.94L142.54 2456.46L141.79 2453.98L141.1 2451.48L140.46 2448.97L139.87 2446.45L139.33 2443.92L138.85 2441.39L138.42 2438.85L138.04 2436.3L137.72 2433.75L137.45 2431.2L137.23 2428.64L137.06 2426.08L136.95 2423.52L136.89 2420.96L136.88 2418.39L136.92 2415.83L137.02 2413.27L137.17 2410.71L137.37 2408.16L137.62 2405.61L137.93 2403.06L138.29 2400.52L138.7 2397.99L139.16 2395.47L139.67 2392.95L140.24 2390.44L140.86 2387.94L141.53 2385.46L142.25 2382.98L143.02 2380.52L143.85 2378.07L144.73 2375.63L145.66 2373.21L146.64 2370.8L147.67 2368.42L148.76 2366.04L149.9 2363.69L152.25 2359.03L154.67 2354.4L157.14 2349.8L159.67 2345.24L162.25 2340.71L164.88 2336.21L167.57 2331.75L170.31 2327.33L173.1 2322.94L175.95 2318.59L178.85 2314.28L181.8 2310L184.8 2305.76L187.86 2301.56L190.96 2297.4L194.12 2293.28L197.32 2289.2L200.58 2285.16L203.88 2281.16L207.23 2277.19L210.63 2273.28L214.08 2269.4L217.58 2265.56L221.12 2261.77L224.71 2258.02L228.35 2254.32L232.03 2250.66L235.76 2247.04L239.53 2243.47L243.35 2239.95L247.22 2236.47L251.12 2233.03L255.08 2229.65L259.07 2226.31L263.11 2223.02L267.19 2219.78L271.31 2216.58L275.48 2213.44L279.68 2210.34L283.93 2207.3L286.01 2205.86L288.13 2204.49L290.28 2203.2L292.46 2201.98L294.67 2200.83L296.91 2199.76L299.17 2198.76L301.45 2197.84L303.75 2196.99L306.08 2196.22L308.42 2195.51L310.78 2194.89L313.15 2194.33L315.53 2193.85L317.93 2193.45L320.33 2193.11L322.74 2192.85L325.16 2192.67L327.58 2192.56L330 2192.52L332.42 2192.56L334.84 2192.67Z" id="g5jkEPyZai"></path><path d="M334.08 2192.67L336.11 2192.85L338.14 2193.11L340.16 2193.45L342.17 2193.85L344.16 2194.33L346.14 2194.89L348.11 2195.51L350.05 2196.22L351.97 2196.99L353.87 2197.84L355.74 2198.76L357.59 2199.76L359.4 2200.83L361.18 2201.98L362.93 2203.2L364.64 2204.49L366.31 2205.86L367.94 2207.3L371.56 2210.52L375.15 2213.79L378.69 2217.09L382.19 2220.44L385.64 2223.82L389.06 2227.25L392.43 2230.71L395.77 2234.21L399.05 2237.74L402.3 2241.31L405.5 2244.92L408.66 2248.57L411.78 2252.25L414.85 2255.97L417.88 2259.72L420.86 2263.51L423.8 2267.33L426.69 2271.18L429.54 2275.07L432.34 2278.99L435.1 2282.94L437.81 2286.93L440.47 2290.94L443.09 2294.99L445.66 2299.07L448.18 2303.18L450.65 2307.32L453.08 2311.49L455.46 2315.69L457.78 2319.91L460.06 2324.17L462.29 2328.45L464.48 2332.76L466.61 2337.1L468.69 2341.47L470.72 2345.86L472.7 2350.28L474.63 2354.72L476.51 2359.19L478.33 2363.68L480.24 2368.57L481.96 2373.5L483.49 2378.48L484.83 2383.49L485.99 2388.53L486.96 2393.6L487.75 2398.68L488.36 2403.78L488.8 2408.88L489.06 2413.98L489.14 2419.07L489.06 2424.14L488.8 2429.2L488.38 2434.23L487.79 2439.23L487.03 2444.19L486.11 2449.1L485.03 2453.97L483.79 2458.77L482.4 2463.51L480.85 2468.19L479.14 2472.78L477.29 2477.29L475.28 2481.72L473.13 2486.05L470.83 2490.27L468.39 2494.39L465.8 2498.4L463.08 2502.29L460.21 2506.05L457.21 2509.68L454.07 2513.16L450.81 2516.51L447.41 2519.7L443.88 2522.74L440.22 2525.61L436.44 2528.31L432.53 2530.83L428.5 2533.18L424.36 2535.33L419.85 2537.37L415.32 2539.31L410.75 2541.14L406.16 2542.87L401.53 2544.49L396.88 2546.01L392.21 2547.42L387.51 2548.73L382.79 2549.94L378.06 2551.03L373.3 2552.03L368.53 2552.92L363.75 2553.7L358.95 2554.39L354.14 2554.96L349.33 2555.43L344.51 2555.8L339.68 2556.06L334.85 2556.22L330.01 2556.27L325.18 2556.22L320.35 2556.06L315.52 2555.8L310.7 2555.43L305.88 2554.96L301.08 2554.39L296.28 2553.7L291.49 2552.92L286.72 2552.03L281.97 2551.03L277.23 2549.94L272.51 2548.73L267.82 2547.42L263.14 2546.01L258.49 2544.49L253.87 2542.87L249.27 2541.14L244.71 2539.31L240.17 2537.37L235.67 2535.33L231.52 2533.18L227.49 2530.83L223.59 2528.31L219.8 2525.61L216.15 2522.74L212.62 2519.7L209.21 2516.51L205.94 2513.16L202.81 2509.68L199.81 2506.05L196.94 2502.29L194.21 2498.4L191.63 2494.4L189.18 2490.28L186.88 2486.05L184.73 2481.72L182.72 2477.3L180.87 2472.79L179.16 2468.19L177.61 2463.52L176.22 2458.78L174.98 2453.97L173.9 2449.11L172.98 2444.2L172.22 2439.24L171.63 2434.24L171.21 2429.21L170.95 2424.15L170.86 2419.08L170.95 2413.98L171.21 2408.89L171.64 2403.79L172.26 2398.69L173.05 2393.61L174.02 2388.54L175.18 2383.5L176.52 2378.49L178.05 2373.51L179.77 2368.58L181.68 2363.69L183.5 2359.2L185.38 2354.73L187.31 2350.29L189.29 2345.87L191.32 2341.48L193.4 2337.11L195.53 2332.77L197.71 2328.46L199.94 2324.18L202.22 2319.92L204.55 2315.69L206.93 2311.5L209.35 2307.33L211.83 2303.19L214.35 2299.08L216.92 2295L219.53 2290.95L222.19 2286.93L224.9 2282.95L227.66 2279L230.46 2275.07L233.31 2271.19L236.2 2267.33L239.14 2263.51L242.12 2259.73L245.15 2255.97L248.22 2252.26L251.34 2248.57L254.5 2244.93L257.7 2241.32L260.95 2237.74L264.24 2234.21L267.57 2230.71L270.94 2227.25L274.36 2223.82L277.81 2220.44L281.31 2217.09L284.85 2213.79L288.44 2210.52L292.06 2207.3L293.69 2205.86L295.36 2204.49L297.07 2203.2L298.82 2201.98L300.6 2200.83L302.41 2199.76L304.26 2198.76L306.13 2197.84L308.03 2196.99L309.95 2196.22L311.89 2195.51L313.86 2194.89L315.84 2194.33L317.83 2193.85L319.84 2193.45L321.86 2193.11L323.89 2192.85L325.92 2192.67L327.96 2192.56L330 2192.52L332.04 2192.56L334.08 2192.67Z" id="b4MiSZUl9X"></path><path d="M281.54 2360.49L282.02 2361.61L282.46 2362.74L282.85 2363.88L283.21 2365.02L283.52 2366.17L283.79 2367.33L284.02 2368.49L284.2 2369.66L284.35 2370.82L284.45 2371.99L284.51 2373.16L284.54 2374.33L284.52 2375.49L284.46 2376.65L284.36 2377.81L284.23 2378.97L284.05 2380.11L283.84 2381.25L283.58 2382.38L283.29 2383.51L282.96 2384.62L282.59 2385.72L282.19 2386.81L281.75 2387.88L281.27 2388.94L280.75 2389.99L280.2 2391.01L279.61 2392.02L278.98 2393.02L278.32 2393.99L277.62 2394.94L276.89 2395.87L276.12 2396.77L275.31 2397.66L274.48 2398.51L273.6 2399.34L272.7 2400.15L271.76 2400.92L270.78 2401.67L250.43 2408.48L249.07 2408.45L247.72 2408.37L246.38 2408.23L245.06 2408.04L243.76 2407.8L242.48 2407.51L241.21 2407.18L239.96 2406.79L238.73 2406.37L237.53 2405.89L236.35 2405.37L235.19 2404.81L234.05 2404.21L232.95 2403.57L231.86 2402.88L230.81 2402.16L229.79 2401.4L228.79 2400.6L227.83 2399.77L226.89 2398.9L225.99 2398L225.13 2397.06L224.3 2396.09L223.5 2395.1L222.75 2394.07L222.03 2393.01L221.35 2391.92L220.71 2390.81L220.11 2389.67L219.55 2388.5L219.04 2387.32L218.57 2386.1L218.14 2384.87L217.76 2383.61L217.43 2382.34L217.15 2381.04L216.92 2379.73L216.73 2378.4L216.6 2377.06L216.52 2375.69L216.5 2374.33L216.52 2372.98L216.6 2371.64L216.74 2370.31L216.92 2369L217.15 2367.7L217.43 2366.42L217.76 2365.16L218.14 2363.91L218.56 2362.69L219.02 2361.49L219.53 2360.3L220.09 2359.15L220.68 2358.01L221.32 2356.9L221.99 2355.82L222.71 2354.76L223.46 2353.73L224.25 2352.73L225.08 2351.76L225.95 2350.82L226.84 2349.92L227.77 2349.05L228.74 2348.21L229.73 2347.41L230.76 2346.65L231.82 2345.92L232.9 2345.23L234.01 2344.58L235.15 2343.98L236.32 2343.41L237.51 2342.89L238.72 2342.41L239.96 2341.98L241.22 2341.6L242.5 2341.26L243.8 2340.97L245.12 2340.73L246.46 2340.54L247.82 2340.4L247.93 2340.4L281.01 2359.38L281.54 2360.49Z" id="bKTM0IVus"></path><path d="M414.88 2340.73L416.2 2340.97L417.5 2341.26L418.78 2341.6L420.04 2341.98L421.28 2342.41L422.49 2342.89L423.68 2343.41L424.85 2343.98L425.99 2344.58L427.1 2345.23L428.18 2345.92L429.24 2346.65L430.27 2347.41L431.26 2348.21L432.23 2349.05L433.16 2349.92L434.05 2350.82L434.92 2351.76L435.75 2352.73L436.54 2353.73L437.29 2354.76L438.01 2355.82L438.68 2356.9L439.32 2358.01L439.91 2359.15L440.47 2360.3L440.98 2361.49L441.44 2362.69L441.86 2363.91L442.24 2365.16L442.57 2366.42L442.85 2367.7L443.08 2369L443.26 2370.31L443.4 2371.64L443.48 2372.98L443.5 2374.33L443.48 2375.69L443.4 2377.06L443.27 2378.4L443.08 2379.73L442.85 2381.04L442.57 2382.34L442.24 2383.61L441.86 2384.87L441.44 2386.1L440.97 2387.32L440.45 2388.5L439.9 2389.67L439.3 2390.81L438.66 2391.92L437.98 2393.01L437.26 2394.07L436.5 2395.1L435.7 2396.09L434.87 2397.06L434.01 2398L433.11 2398.9L432.18 2399.77L431.21 2400.6L430.22 2401.4L429.19 2402.16L428.14 2402.88L427.06 2403.57L425.95 2404.21L424.81 2404.81L423.65 2405.37L422.47 2405.89L421.27 2406.37L420.04 2406.79L418.79 2407.18L417.52 2407.51L416.24 2407.8L414.94 2408.04L413.62 2408.23L412.28 2408.37L410.93 2408.45L409.57 2408.48L389.22 2401.67L388.25 2400.92L387.31 2400.15L386.4 2399.34L385.53 2398.51L384.69 2397.66L383.89 2396.77L383.12 2395.87L382.39 2394.94L381.69 2393.99L381.03 2393.02L380.4 2392.02L379.81 2391.01L379.25 2389.99L378.74 2388.94L378.26 2387.88L377.81 2386.81L377.41 2385.72L377.04 2384.62L376.71 2383.51L376.42 2382.38L376.16 2381.25L375.95 2380.11L375.77 2378.97L375.64 2377.81L375.54 2376.65L375.48 2375.49L375.46 2374.33L375.49 2373.16L375.55 2371.99L375.65 2370.82L375.8 2369.66L375.99 2368.49L376.21 2367.33L376.48 2366.17L376.79 2365.02L377.15 2363.88L377.54 2362.74L377.98 2361.61L378.46 2360.49L378.99 2359.38L412.07 2340.4L412.18 2340.4L413.54 2340.54L414.88 2340.73Z" id="d1oLJ6qaWr"></path><path d="M228.2 2317.44L228.5 2317.47L228.8 2317.5L229.1 2317.53L229.39 2317.58L229.69 2317.64L229.98 2317.7L230.27 2317.77L230.56 2317.84L230.85 2317.93L231.14 2318.02L231.42 2318.13L231.71 2318.23L231.99 2318.35L232.27 2318.48L232.54 2318.61L232.81 2318.75L233.08 2318.9L233.35 2319.05L312.92 2364.52L313.25 2364.72L313.57 2364.93L313.89 2365.14L314.19 2365.37L314.49 2365.6L314.77 2365.84L315.05 2366.1L315.32 2366.36L315.58 2366.62L315.83 2366.9L316.07 2367.18L316.3 2367.47L316.51 2367.77L316.72 2368.07L316.92 2368.38L317.11 2368.69L317.29 2369.01L317.46 2369.34L317.62 2369.67L317.76 2370.01L317.9 2370.35L318.02 2370.69L318.14 2371.04L318.24 2371.39L318.33 2371.75L318.41 2372.11L318.48 2372.47L318.53 2372.83L318.58 2373.2L318.61 2373.57L318.63 2373.94L318.64 2374.31L318.64 2374.68L318.62 2375.06L318.59 2375.43L318.55 2375.81L318.5 2376.18L318.43 2376.56L318.35 2376.93L318.26 2377.31L318.15 2377.68L318.03 2378.04L317.91 2378.4L317.77 2378.75L317.61 2379.1L317.45 2379.44L317.28 2379.77L317.1 2380.1L316.91 2380.42L316.7 2380.73L316.49 2381.03L316.27 2381.33L316.04 2381.62L315.8 2381.9L315.56 2382.17L315.3 2382.43L315.04 2382.69L314.76 2382.94L314.48 2383.17L314.2 2383.4L313.9 2383.62L313.6 2383.83L313.29 2384.03L312.98 2384.22L312.66 2384.4L312.33 2384.57L312 2384.72L311.66 2384.87L311.32 2385.01L310.97 2385.14L310.62 2385.25L310.26 2385.35L309.9 2385.45L309.53 2385.53L309.17 2385.59L308.79 2385.65L308.42 2385.7L308.04 2385.73L307.65 2385.75L307.27 2385.75L307.12 2385.75L306.97 2385.75L306.82 2385.74L306.68 2385.74L306.53 2385.73L306.38 2385.72L306.24 2385.71L306.09 2385.69L305.94 2385.68L305.8 2385.66L305.65 2385.64L305.51 2385.62L305.36 2385.59L305.22 2385.57L305.07 2385.54L304.93 2385.51L304.78 2385.48L304.64 2385.45L304.5 2385.41L304.36 2385.37L304.22 2385.33L304.07 2385.29L303.93 2385.25L303.79 2385.21L303.65 2385.16L303.52 2385.11L303.38 2385.06L303.24 2385.01L303.1 2384.96L302.97 2384.9L302.83 2384.85L302.7 2384.79L302.56 2384.73L302.43 2384.66L302.29 2384.6L302.16 2384.53L302.03 2384.47L301.9 2384.4L301.77 2384.33L301.64 2384.25L222.07 2338.79L221.8 2338.64L221.54 2338.48L221.28 2338.32L221.03 2338.15L220.78 2337.97L220.54 2337.79L220.3 2337.6L220.07 2337.4L219.84 2337.2L219.62 2337L219.41 2336.79L219.2 2336.57L218.99 2336.35L218.8 2336.12L218.61 2335.89L218.42 2335.66L218.25 2335.42L218.08 2335.17L217.91 2334.92L217.75 2334.67L217.6 2334.41L217.46 2334.15L217.32 2333.88L217.19 2333.62L217.06 2333.34L216.95 2333.07L216.84 2332.79L216.74 2332.51L216.64 2332.22L216.56 2331.93L216.48 2331.64L216.4 2331.35L216.34 2331.05L216.28 2330.76L216.23 2330.46L216.19 2330.15L216.16 2329.85L216.14 2329.54L216.12 2329.24L216.11 2328.93L216.11 2328.62L216.12 2328.31L216.14 2328L216.16 2327.7L216.2 2327.4L216.24 2327.1L216.29 2326.8L216.34 2326.5L216.41 2326.2L216.48 2325.91L216.56 2325.62L216.65 2325.33L216.74 2325.05L216.84 2324.77L216.95 2324.49L217.07 2324.21L217.19 2323.94L217.33 2323.67L217.46 2323.41L217.61 2323.15L217.76 2322.89L217.92 2322.63L218.08 2322.39L218.26 2322.14L218.43 2321.9L218.62 2321.66L218.81 2321.43L219.01 2321.21L219.21 2320.99L219.42 2320.77L219.63 2320.56L219.86 2320.35L220.08 2320.15L220.32 2319.96L220.55 2319.77L220.8 2319.59L221.05 2319.41L221.3 2319.24L221.56 2319.08L221.83 2318.92L222.1 2318.77L222.37 2318.63L222.65 2318.5L222.93 2318.37L223.21 2318.25L223.49 2318.14L223.78 2318.04L224.06 2317.94L224.35 2317.86L224.64 2317.78L224.94 2317.71L225.23 2317.64L225.52 2317.59L225.82 2317.54L226.12 2317.5L226.41 2317.47L226.71 2317.44L227.01 2317.43L227.31 2317.42L227.61 2317.42L227.91 2317.43L228.2 2317.44Z" id="f6iIglvYIu"></path><path d="M433.03 2317.73L433.46 2317.77L433.88 2317.84L434.31 2317.92L434.72 2318.01L435.14 2318.12L435.55 2318.25L435.96 2318.39L436.36 2318.54L436.75 2318.72L437.14 2318.9L437.52 2319.1L437.9 2319.32L438.27 2319.55L438.62 2319.8L438.97 2320.06L439.32 2320.33L439.65 2320.62L439.97 2320.92L440.28 2321.24L440.58 2321.57L440.86 2321.91L441.14 2322.26L441.4 2322.63L441.65 2323.02L441.89 2323.41L442.11 2323.82L442.31 2324.23L442.5 2324.64L442.67 2325.06L442.82 2325.48L442.95 2325.91L443.06 2326.33L443.16 2326.76L443.24 2327.19L443.3 2327.63L443.35 2328.06L443.38 2328.49L443.39 2328.93L443.39 2329.36L443.37 2329.79L443.33 2330.22L443.28 2330.65L443.21 2331.07L443.12 2331.49L443.02 2331.91L442.91 2332.33L442.78 2332.74L442.63 2333.14L442.47 2333.54L442.29 2333.93L442.1 2334.32L441.89 2334.7L441.67 2335.07L441.43 2335.44L441.18 2335.79L440.91 2336.14L440.63 2336.48L440.34 2336.81L440.03 2337.12L439.71 2337.43L439.37 2337.73L439.02 2338.01L438.66 2338.28L438.28 2338.54L437.89 2338.79L358.33 2384.25L358.2 2384.33L358.07 2384.4L357.94 2384.47L357.81 2384.53L357.68 2384.6L357.55 2384.66L357.41 2384.72L357.28 2384.78L357.15 2384.84L357.01 2384.9L356.87 2384.96L356.74 2385.01L356.6 2385.06L356.46 2385.11L356.33 2385.16L356.19 2385.2L356.05 2385.25L355.91 2385.29L355.77 2385.33L355.63 2385.37L355.49 2385.41L355.34 2385.44L355.2 2385.47L355.06 2385.51L354.92 2385.54L354.77 2385.56L354.63 2385.59L354.48 2385.61L354.34 2385.63L354.2 2385.66L354.05 2385.67L353.9 2385.69L353.76 2385.7L353.61 2385.72L353.47 2385.73L353.32 2385.74L353.17 2385.74L353.03 2385.75L352.88 2385.75L352.73 2385.75L352.35 2385.75L351.96 2385.73L351.58 2385.7L351.21 2385.66L350.83 2385.6L350.46 2385.53L350.1 2385.45L349.73 2385.36L349.38 2385.26L349.02 2385.15L348.67 2385.02L348.33 2384.88L347.99 2384.74L347.66 2384.58L347.33 2384.41L347.01 2384.23L346.69 2384.04L346.39 2383.84L346.08 2383.63L345.79 2383.42L345.5 2383.19L345.22 2382.95L344.95 2382.71L344.68 2382.45L344.43 2382.19L344.18 2381.92L343.94 2381.64L343.71 2381.35L343.49 2381.05L343.27 2380.75L343.07 2380.44L342.88 2380.12L342.69 2379.79L342.52 2379.46L342.36 2379.12L342.21 2378.78L342.07 2378.42L341.94 2378.06L341.82 2377.7L341.71 2377.33L341.62 2376.95L341.54 2376.58L341.47 2376.2L341.42 2375.83L341.38 2375.45L341.35 2375.08L341.33 2374.7L341.33 2374.33L341.33 2373.96L341.35 2373.58L341.39 2373.21L341.43 2372.85L341.49 2372.48L341.56 2372.12L341.64 2371.76L341.73 2371.4L341.83 2371.05L341.94 2370.7L342.07 2370.36L342.2 2370.02L342.35 2369.68L342.51 2369.35L342.67 2369.02L342.85 2368.7L343.04 2368.38L343.24 2368.08L343.45 2367.77L343.67 2367.48L343.9 2367.19L344.14 2366.9L344.39 2366.63L344.65 2366.36L344.92 2366.1L345.19 2365.85L345.48 2365.6L345.78 2365.37L346.08 2365.14L346.4 2364.93L346.72 2364.72L347.05 2364.52L426.62 2319.05L427.03 2318.84L427.44 2318.65L427.86 2318.47L428.28 2318.32L428.71 2318.18L429.14 2318.05L429.57 2317.95L430 2317.86L430.43 2317.79L430.86 2317.74L431.3 2317.71L431.73 2317.69L432.16 2317.68L432.6 2317.7L433.03 2317.73Z" id="e3EQLNrfvO"></path><path d="M285.07 2385.77L285.36 2385.79L285.66 2385.82L285.95 2385.85L286.24 2385.89L286.53 2385.94L286.82 2385.99L287.11 2386.06L287.4 2386.13L287.68 2386.21L287.96 2386.29L288.24 2386.38L288.52 2386.48L288.8 2386.59L289.07 2386.71L289.34 2386.83L289.61 2386.96L289.87 2387.09L290.13 2387.24L290.39 2387.39L290.65 2387.54L290.9 2387.71L291.14 2387.88L291.39 2388.06L291.62 2388.24L291.86 2388.44L292.09 2388.63L292.31 2388.84L292.53 2389.05L292.74 2389.26L292.95 2389.48L293.15 2389.71L293.34 2389.94L293.53 2390.17L293.71 2390.41L293.88 2390.65L294.05 2390.9L294.21 2391.15L294.36 2391.4L294.51 2391.66L294.65 2391.92L294.78 2392.19L294.9 2392.45L295.02 2392.72L295.13 2393L295.24 2393.27L295.33 2393.55L295.42 2393.83L295.5 2394.11L295.58 2394.4L295.65 2394.69L295.71 2394.98L295.76 2395.27L295.8 2395.56L295.84 2395.85L295.87 2396.15L295.89 2396.44L295.91 2396.74L295.91 2397.04L295.91 2397.34L295.9 2397.64L295.89 2397.93L295.86 2398.23L295.83 2398.53L295.79 2398.83L295.74 2399.13L295.68 2399.43L295.61 2399.73L295.54 2400.02L295.46 2400.31L295.37 2400.6L295.28 2400.89L295.18 2401.17L295.07 2401.45L294.95 2401.72L294.83 2401.99L294.7 2402.26L294.56 2402.52L294.42 2402.78L294.27 2403.04L294.11 2403.29L293.95 2403.53L293.78 2403.78L293.6 2404.01L293.42 2404.25L293.24 2404.47L293.04 2404.7L292.84 2404.92L292.64 2405.13L292.43 2405.34L292.22 2405.54L292 2405.73L291.77 2405.92L291.54 2406.11L291.3 2406.29L291.06 2406.46L290.82 2406.63L290.57 2406.79L290.31 2406.94L290.06 2407.09L289.79 2407.23L289.52 2407.37L289.25 2407.5L288.98 2407.62L288.7 2407.73L288.41 2407.84L288.12 2407.94L219.93 2430.68L219.84 2430.7L219.75 2430.73L219.66 2430.76L219.58 2430.78L219.49 2430.81L219.4 2430.83L219.31 2430.85L219.22 2430.88L219.13 2430.9L219.05 2430.92L218.96 2430.94L218.87 2430.96L218.78 2430.98L218.69 2431L218.6 2431.01L218.51 2431.03L218.42 2431.05L218.33 2431.06L218.24 2431.08L218.15 2431.09L218.06 2431.1L217.97 2431.12L217.88 2431.13L217.79 2431.14L217.7 2431.15L217.61 2431.16L217.52 2431.17L217.43 2431.18L217.34 2431.18L217.25 2431.19L217.16 2431.2L217.06 2431.2L216.97 2431.21L216.88 2431.21L216.79 2431.21L216.7 2431.22L216.61 2431.22L216.52 2431.22L216.43 2431.22L216.34 2431.22L215.92 2431.21L215.51 2431.19L215.1 2431.15L214.69 2431.1L214.29 2431.03L213.9 2430.95L213.5 2430.86L213.12 2430.75L212.74 2430.63L212.36 2430.49L211.99 2430.35L211.63 2430.19L211.27 2430.02L210.92 2429.84L210.58 2429.64L210.25 2429.44L209.92 2429.22L209.6 2428.99L209.29 2428.75L208.98 2428.5L208.69 2428.24L208.4 2427.97L208.13 2427.69L207.86 2427.4L207.61 2427.1L207.36 2426.8L207.12 2426.48L206.9 2426.15L206.68 2425.82L206.48 2425.48L206.29 2425.13L206.11 2424.77L205.94 2424.41L205.79 2424.04L205.65 2423.66L205.52 2423.28L205.4 2422.88L205.3 2422.49L205.21 2422.08L205.14 2421.67L205.08 2421.26L205.03 2420.85L205.01 2420.44L204.99 2420.03L204.99 2419.63L205.01 2419.22L205.04 2418.82L205.08 2418.42L205.14 2418.03L205.21 2417.64L205.29 2417.25L205.39 2416.87L205.5 2416.49L205.62 2416.11L205.76 2415.74L205.91 2415.38L206.07 2415.02L206.24 2414.67L206.43 2414.32L206.63 2413.98L206.84 2413.65L207.06 2413.32L207.29 2413L207.53 2412.69L207.78 2412.39L208.04 2412.1L208.32 2411.82L208.6 2411.54L208.9 2411.28L209.2 2411.02L209.51 2410.77L209.84 2410.54L210.17 2410.32L210.51 2410.1L210.86 2409.9L211.22 2409.71L211.59 2409.53L211.96 2409.37L212.35 2409.22L212.74 2409.08L280.94 2386.34L281.23 2386.25L281.52 2386.17L281.82 2386.09L282.11 2386.02L282.41 2385.96L282.7 2385.91L283 2385.87L283.29 2385.83L283.59 2385.8L283.88 2385.78L284.18 2385.77L284.48 2385.76L284.77 2385.76L285.07 2385.77Z" id="c1HuUKCxeg"></path><path d="M376.12 2385.74L376.41 2385.76L376.71 2385.79L377.01 2385.82L377.3 2385.87L377.6 2385.92L377.89 2385.98L378.19 2386.05L378.48 2386.12L378.77 2386.21L379.06 2386.3L447.26 2409.03L447.66 2409.17L448.05 2409.32L448.43 2409.48L448.8 2409.65L449.17 2409.84L449.52 2410.04L449.87 2410.25L450.21 2410.47L450.53 2410.71L450.85 2410.95L451.16 2411.21L451.46 2411.47L451.75 2411.75L452.03 2412.03L452.3 2412.32L452.55 2412.63L452.8 2412.94L453.04 2413.26L453.26 2413.58L453.47 2413.92L453.67 2414.26L453.86 2414.61L454.04 2414.96L454.2 2415.32L454.36 2415.69L454.5 2416.06L454.62 2416.44L454.74 2416.82L454.84 2417.21L454.92 2417.6L455 2417.99L455.05 2418.39L455.1 2418.79L455.13 2419.2L455.15 2419.6L455.15 2420.01L455.13 2420.43L455.11 2420.84L455.06 2421.25L455 2421.67L454.93 2422.08L454.84 2422.49L454.74 2422.89L454.62 2423.29L454.49 2423.67L454.34 2424.06L454.19 2424.43L454.02 2424.8L453.84 2425.16L453.64 2425.51L453.44 2425.85L453.22 2426.19L452.99 2426.52L452.75 2426.83L452.5 2427.14L452.24 2427.44L451.97 2427.73L451.69 2428.01L451.4 2428.28L451.1 2428.55L450.8 2428.79L450.48 2429.03L450.16 2429.26L449.82 2429.48L449.48 2429.68L449.14 2429.88L448.78 2430.06L448.42 2430.23L448.05 2430.39L447.68 2430.53L447.3 2430.66L446.92 2430.78L446.52 2430.88L446.13 2430.97L445.73 2431.05L445.32 2431.11L444.91 2431.16L444.5 2431.2L444.08 2431.21L443.66 2431.22L443.57 2431.22L443.48 2431.22L443.39 2431.21L443.3 2431.21L443.21 2431.21L443.12 2431.2L443.03 2431.2L442.94 2431.19L442.84 2431.19L442.75 2431.18L442.66 2431.17L442.57 2431.16L442.48 2431.16L442.39 2431.15L442.3 2431.13L442.21 2431.12L442.12 2431.11L442.03 2431.1L441.94 2431.08L441.85 2431.07L441.76 2431.05L441.67 2431.04L441.58 2431.02L441.49 2431.01L441.4 2430.99L441.31 2430.97L441.22 2430.95L441.13 2430.93L441.04 2430.91L440.95 2430.89L440.87 2430.86L440.78 2430.84L440.69 2430.82L440.6 2430.79L440.51 2430.77L440.42 2430.74L440.34 2430.71L440.25 2430.69L440.16 2430.66L440.07 2430.63L371.88 2407.9L371.59 2407.8L371.3 2407.69L371.02 2407.58L370.75 2407.45L370.48 2407.33L370.21 2407.19L369.94 2407.05L369.69 2406.9L369.43 2406.75L369.18 2406.58L368.94 2406.42L368.7 2406.24L368.46 2406.07L368.23 2405.88L368 2405.69L367.78 2405.49L367.57 2405.29L367.36 2405.08L367.16 2404.87L366.96 2404.65L366.76 2404.43L366.58 2404.2L366.4 2403.97L366.22 2403.73L366.05 2403.49L365.89 2403.24L365.73 2402.99L365.58 2402.74L365.44 2402.48L365.3 2402.22L365.17 2401.95L365.05 2401.68L364.93 2401.4L364.82 2401.12L364.72 2400.84L364.63 2400.56L364.54 2400.27L364.46 2399.98L364.39 2399.68L364.32 2399.38L364.26 2399.09L364.21 2398.79L364.17 2398.49L364.14 2398.19L364.12 2397.89L364.1 2397.59L364.09 2397.29L364.09 2396.99L364.1 2396.69L364.11 2396.4L364.13 2396.1L364.16 2395.81L364.2 2395.51L364.24 2395.22L364.3 2394.93L364.36 2394.64L364.42 2394.35L364.5 2394.07L364.58 2393.79L364.67 2393.51L364.77 2393.23L364.87 2392.95L364.98 2392.68L365.1 2392.41L365.22 2392.14L365.36 2391.88L365.5 2391.62L365.64 2391.36L365.79 2391.1L365.95 2390.85L366.12 2390.61L366.29 2390.37L366.47 2390.13L366.66 2389.89L366.85 2389.66L367.05 2389.44L367.26 2389.22L367.47 2389L367.69 2388.79L367.91 2388.59L368.14 2388.39L368.38 2388.2L368.61 2388.01L368.86 2387.83L369.1 2387.66L369.35 2387.5L369.61 2387.34L369.87 2387.19L370.13 2387.05L370.39 2386.91L370.66 2386.78L370.93 2386.66L371.2 2386.55L371.48 2386.44L371.76 2386.34L372.04 2386.25L372.32 2386.16L372.6 2386.08L372.89 2386.01L373.18 2385.95L373.47 2385.89L373.76 2385.85L374.05 2385.81L374.34 2385.77L374.64 2385.75L374.93 2385.73L375.23 2385.72L375.52 2385.72L375.82 2385.72L376.12 2385.74Z" id="auU6EBoM8"></path><path d="M351.91 2442.64L353.38 2442.7L354.84 2442.79L356.31 2442.89L357.77 2443.03L359.22 2443.18L360.68 2443.36L362.12 2443.56L363.57 2443.79L365.01 2444.03L366.44 2444.3L367.87 2444.6L369.29 2444.91L370.71 2445.25L372.13 2445.61L373.53 2445.99L374.93 2446.4L376.32 2446.83L377.71 2447.28L379.09 2447.75L380.46 2448.24L381.82 2448.76L383.17 2449.29L384.52 2449.85L385.86 2450.43L387.19 2451.03L388.51 2451.66L389.82 2452.3L391.12 2452.97L392.41 2453.65L393.69 2454.36L394.95 2455.09L396.21 2455.84L397.46 2456.61L398.7 2457.4L399.92 2458.21L401.13 2459.05L402.33 2459.9L403.52 2460.77L427.75 2478.96L428.04 2479.18L428.32 2479.41L428.59 2479.65L428.86 2479.9L429.11 2480.16L429.35 2480.42L429.59 2480.69L429.82 2480.96L430.03 2481.24L430.24 2481.53L430.44 2481.82L430.63 2482.12L430.81 2482.42L430.98 2482.73L431.13 2483.04L431.28 2483.36L431.42 2483.68L431.55 2484L431.67 2484.33L431.78 2484.66L431.88 2485L431.97 2485.34L432.05 2485.68L432.12 2486.02L432.17 2486.37L432.22 2486.72L432.26 2487.06L432.28 2487.42L432.3 2487.77L432.3 2488.12L432.29 2488.47L432.27 2488.83L432.25 2489.18L432.2 2489.54L432.15 2489.89L432.09 2490.24L432.01 2490.6L431.93 2490.95L431.83 2491.3L431.72 2491.65L431.6 2491.99L431.46 2492.33L431.32 2492.67L431.17 2492.99L431.01 2493.31L430.84 2493.63L430.66 2493.94L430.47 2494.24L430.27 2494.53L430.07 2494.82L429.85 2495.1L429.63 2495.37L429.4 2495.64L429.16 2495.9L428.91 2496.15L428.66 2496.39L428.4 2496.62L428.13 2496.85L427.86 2497.07L427.58 2497.28L427.29 2497.48L427 2497.67L426.7 2497.85L426.4 2498.02L426.09 2498.19L425.77 2498.34L425.45 2498.48L425.13 2498.62L424.8 2498.74L424.46 2498.86L424.13 2498.96L423.78 2499.06L423.44 2499.14L423.09 2499.22L422.74 2499.28L422.38 2499.33L422.02 2499.37L421.66 2499.4L421.3 2499.42L420.93 2499.42L420.75 2499.42L420.56 2499.42L420.38 2499.41L420.2 2499.4L420.01 2499.39L419.83 2499.37L419.65 2499.35L419.47 2499.33L419.29 2499.3L419.11 2499.28L418.93 2499.25L418.75 2499.21L418.57 2499.18L418.39 2499.14L418.21 2499.09L418.04 2499.05L417.86 2499L417.69 2498.95L417.51 2498.9L417.34 2498.84L417.17 2498.78L416.99 2498.72L416.82 2498.66L416.65 2498.59L416.49 2498.52L416.32 2498.45L416.15 2498.37L415.99 2498.29L415.83 2498.21L415.66 2498.13L415.5 2498.04L415.34 2497.95L415.18 2497.86L415.03 2497.77L414.87 2497.67L414.72 2497.57L414.56 2497.47L414.41 2497.36L414.26 2497.26L414.12 2497.15L389.87 2478.96L388.98 2478.3L388.08 2477.66L387.17 2477.04L386.25 2476.43L385.32 2475.84L384.39 2475.26L383.44 2474.7L382.49 2474.15L381.53 2473.62L380.56 2473.11L379.59 2472.61L378.61 2472.13L377.62 2471.66L376.62 2471.21L375.62 2470.77L374.61 2470.35L373.59 2469.95L372.57 2469.56L371.54 2469.19L370.51 2468.84L369.47 2468.5L368.43 2468.18L367.38 2467.88L366.32 2467.59L365.26 2467.32L364.2 2467.07L363.13 2466.83L362.06 2466.61L360.98 2466.41L359.91 2466.22L358.82 2466.05L357.74 2465.9L356.65 2465.77L355.55 2465.65L354.46 2465.55L353.36 2465.47L352.26 2465.41L351.16 2465.36L350.06 2465.33L348.95 2465.32L311.05 2465.32L309.94 2465.33L308.84 2465.36L307.74 2465.41L306.64 2465.47L305.54 2465.55L304.45 2465.65L303.35 2465.77L302.26 2465.9L301.18 2466.05L300.09 2466.22L299.02 2466.41L297.94 2466.61L296.87 2466.83L295.8 2467.06L294.74 2467.32L293.68 2467.59L292.62 2467.88L291.57 2468.18L290.53 2468.5L289.49 2468.84L288.46 2469.19L287.43 2469.56L286.41 2469.95L285.39 2470.35L284.38 2470.77L283.38 2471.2L282.38 2471.66L281.39 2472.12L280.41 2472.61L279.44 2473.11L278.47 2473.62L277.51 2474.15L276.56 2474.7L275.61 2475.26L274.68 2475.84L273.75 2476.43L272.83 2477.04L271.92 2477.66L271.02 2478.3L270.13 2478.96L245.89 2497.15L245.64 2497.33L245.39 2497.5L245.14 2497.66L244.88 2497.82L244.62 2497.97L244.36 2498.11L244.09 2498.25L243.83 2498.38L243.55 2498.5L243.28 2498.61L243 2498.72L242.72 2498.82L242.44 2498.91L242.16 2498.99L241.87 2499.07L241.59 2499.14L241.3 2499.2L241.01 2499.25L240.72 2499.3L240.43 2499.34L240.13 2499.37L239.84 2499.39L239.55 2499.41L239.25 2499.42L238.96 2499.42L238.66 2499.41L238.37 2499.4L238.07 2499.38L237.78 2499.35L237.48 2499.31L237.19 2499.26L236.9 2499.21L236.61 2499.15L236.32 2499.08L236.03 2499.01L235.74 2498.92L235.45 2498.83L235.17 2498.73L234.88 2498.62L234.6 2498.51L234.33 2498.38L234.05 2498.25L233.78 2498.12L233.52 2497.97L233.26 2497.82L233 2497.67L232.75 2497.5L232.51 2497.33L232.27 2497.16L232.03 2496.98L231.8 2496.79L231.57 2496.6L231.35 2496.4L231.14 2496.2L230.93 2495.99L230.73 2495.78L230.53 2495.56L230.34 2495.33L230.15 2495.1L229.97 2494.87L229.8 2494.63L229.63 2494.39L229.47 2494.14L229.32 2493.89L229.17 2493.64L229.03 2493.38L228.89 2493.12L228.76 2492.85L228.64 2492.58L228.53 2492.31L228.42 2492.03L228.32 2491.75L228.23 2491.47L228.14 2491.18L228.06 2490.89L227.99 2490.6L227.93 2490.31L227.87 2490.01L227.82 2489.71L227.78 2489.41L227.75 2489.11L227.73 2488.81L227.71 2488.51L227.7 2488.21L227.7 2487.91L227.71 2487.61L227.73 2487.31L227.75 2487.01L227.78 2486.72L227.82 2486.42L227.87 2486.13L227.92 2485.84L227.98 2485.55L228.05 2485.26L228.13 2484.98L228.21 2484.69L228.3 2484.41L228.4 2484.14L228.5 2483.86L228.62 2483.59L228.73 2483.32L228.86 2483.05L228.99 2482.79L229.13 2482.53L229.28 2482.28L229.43 2482.02L229.59 2481.77L229.76 2481.53L229.93 2481.29L230.11 2481.05L230.3 2480.82L230.49 2480.59L230.69 2480.37L230.89 2480.15L231.1 2479.94L231.32 2479.73L231.54 2479.53L231.77 2479.33L232.01 2479.14L232.25 2478.96L256.5 2460.77L257.69 2459.9L258.89 2459.05L260.1 2458.21L261.33 2457.4L262.56 2456.61L263.81 2455.84L265.07 2455.09L266.34 2454.36L267.62 2453.65L268.91 2452.96L270.21 2452.3L271.52 2451.65L272.84 2451.03L274.16 2450.43L275.5 2449.85L276.85 2449.29L278.2 2448.75L279.56 2448.24L280.94 2447.74L282.31 2447.27L283.7 2446.82L285.09 2446.39L286.49 2445.99L287.9 2445.61L289.31 2445.25L290.73 2444.91L292.15 2444.59L293.58 2444.3L295.02 2444.03L296.46 2443.78L297.9 2443.56L299.35 2443.36L300.8 2443.18L302.26 2443.02L303.72 2442.89L305.18 2442.78L306.65 2442.7L308.12 2442.64L309.59 2442.6L311.07 2442.59L348.96 2442.59L350.43 2442.6L351.91 2442.64Z" id="h1eMJuTMnt"></path></defs><g><g><g><use xlink:href="#aYUmDrRch" opacity="1" fill="#bdc3c7" fill-opacity="1"></use><g><use xlink:href="#aYUmDrRch" opacity="1" fill-opacity="0" stroke="#000000" stroke-width="1" stroke-opacity="0"></use></g></g><g><use xlink:href="#a2zZ70pyh5" opacity="1" fill="#bdc3c7" fill-opacity="1"></use><g><use xlink:href="#a2zZ70pyh5" opacity="1" fill-opacity="0" stroke="#000000" stroke-width="1" stroke-opacity="0"></use></g></g><g><use xlink:href="#e4K0j6e8G" opacity="1" fill="#bdc3c7" fill-opacity="1"></use><g><use xlink:href="#e4K0j6e8G" opacity="1" fill-opacity="0" stroke="#000000" stroke-width="1" stroke-opacity="0"></use></g></g><g><use xlink:href="#c5FxJ3JLnn" opacity="1" fill="#bdc3c7" fill-opacity="1"></use><g><use xlink:href="#c5FxJ3JLnn" opacity="1" fill-opacity="0" stroke="#000000" stroke-width="1" stroke-opacity="0"></use></g></g><g><use xlink:href="#b64axItCBN" opacity="1" fill="#bdc3c7" fill-opacity="1"></use><g><use xlink:href="#b64axItCBN" opacity="1" fill-opacity="0" stroke="#000000" stroke-width="1" stroke-opacity="0"></use></g></g><g><use xlink:href="#b2aM1aNTCf" opacity="1" fill="#bdc3c7" fill-opacity="1"></use><g><use xlink:href="#b2aM1aNTCf" opacity="1" fill-opacity="0" stroke="#000000" stroke-width="1" stroke-opacity="0"></use></g></g><g><use xlink:href="#gqEOCTEXB" opacity="1" fill="#bdc3c7" fill-opacity="1"></use><g><use xlink:href="#gqEOCTEXB" opacity="1" fill-opacity="0" stroke="#000000" stroke-width="1" stroke-opacity="0"></use></g></g><g><use xlink:href="#c4g0YBloQ6" opacity="1" fill="#bdc3c7" fill-opacity="1"></use><g><use xlink:href="#c4g0YBloQ6" opacity="1" fill-opacity="0" stroke="#000000" stroke-width="1" stroke-opacity="0"></use></g></g><g><use xlink:href="#d9ov0oI2SB" opacity="1" fill="#bdc3c7" fill-opacity="1"></use><g><use xlink:href="#d9ov0oI2SB" opacity="1" fill-opacity="0" stroke="#000000" stroke-width="1" stroke-opacity="0"></use></g></g><g><use xlink:href="#aBmMuUUEf" opacity="1" fill="#2c2f38" fill-opacity="1"></use><g><use xlink:href="#aBmMuUUEf" opacity="1" fill-opacity="0" stroke="#000000" stroke-width="1" stroke-opacity="0"></use></g></g><g><use xlink:href="#g3b38OUljW" opacity="1" fill="#2c2f38" fill-opacity="1"></use><g><use xlink:href="#g3b38OUljW" opacity="1" fill-opacity="0" stroke="#000000" stroke-width="1" stroke-opacity="0"></use></g></g><g><use xlink:href="#a1VnICvQvp" opacity="1" fill="#2c2f38" fill-opacity="1"></use><g><use xlink:href="#a1VnICvQvp" opacity="1" fill-opacity="0" stroke="#000000" stroke-width="1" stroke-opacity="0"></use></g></g><g><use xlink:href="#g5jkEPyZai" opacity="1" fill="#2c3e50" fill-opacity="1"></use><g><use xlink:href="#g5jkEPyZai" opacity="1" fill-opacity="0" stroke="#000000" stroke-width="1" stroke-opacity="0"></use></g></g><g><use xlink:href="#b4MiSZUl9X" opacity="1" fill="#35495e" fill-opacity="1"></use><g><use xlink:href="#b4MiSZUl9X" opacity="1" fill-opacity="0" stroke="#000000" stroke-width="1" stroke-opacity="0"></use></g></g><g><use xlink:href="#bKTM0IVus" opacity="1" fill="#ff5364" fill-opacity="1"></use><g><use xlink:href="#bKTM0IVus" opacity="1" fill-opacity="0" stroke="#000000" stroke-width="1" stroke-opacity="0"></use></g></g><g><use xlink:href="#d1oLJ6qaWr" opacity="1" fill="#ff5364" fill-opacity="1"></use><g><use xlink:href="#d1oLJ6qaWr" opacity="1" fill-opacity="0" stroke="#000000" stroke-width="1" stroke-opacity="0"></use></g></g><g><use xlink:href="#f6iIglvYIu" opacity="1" fill="#2c2f38" fill-opacity="1"></use><g><use xlink:href="#f6iIglvYIu" opacity="1" fill-opacity="0" stroke="#000000" stroke-width="1" stroke-opacity="0"></use></g></g><g><use xlink:href="#e3EQLNrfvO" opacity="1" fill="#2c2f38" fill-opacity="1"></use><g><use xlink:href="#e3EQLNrfvO" opacity="1" fill-opacity="0" stroke="#000000" stroke-width="1" stroke-opacity="0"></use></g></g><g><use xlink:href="#c1HuUKCxeg" opacity="1" fill="#2c2f38" fill-opacity="1"></use><g><use xlink:href="#c1HuUKCxeg" opacity="1" fill-opacity="0" stroke="#000000" stroke-width="1" stroke-opacity="0"></use></g></g><g><use xlink:href="#auU6EBoM8" opacity="1" fill="#2c2f38" fill-opacity="1"></use><g><use xlink:href="#auU6EBoM8" opacity="1" fill-opacity="0" stroke="#000000" stroke-width="1" stroke-opacity="0"></use></g></g><g><use xlink:href="#h1eMJuTMnt" opacity="1" fill="#2c2f38" fill-opacity="1"></use><g><use xlink:href="#h1eMJuTMnt" opacity="1" fill-opacity="0" stroke="#000000" stroke-width="1" stroke-opacity="0"></use></g></g></g></g></svg>