<?xml version="1.0" encoding="UTF-8" standalone="no"?>
<!DOCTYPE svg PUBLIC "-//W3C//DTD SVG 1.1//EN" "http://www.w3.org/Graphics/SVG/1.1/DTD/svg11.dtd">
<svg version="1.1" xmlns="http://www.w3.org/2000/svg" xmlns:xlink="http://www.w3.org/1999/xlink" preserveAspectRatio="xMidYMid meet" viewBox="0 0 640 640" width="640" height="640"><defs><path d="M262.51 484.27C262.51 484.27 262.74 504.5 278.89 509.48C293.09 513.85 307.01 501.51 295.6 479.76C293.02 474.82 294.65 468.71 299.36 465.72C320.12 452.59 314.23 434.94 299.75 431.63C283.27 427.86 272.96 445.27 272.96 445.27C252.34 439.74 87.39 395.55 66.78 390.02C66.78 390.02 66.55 369.79 50.4 364.82C36.2 360.44 22.28 372.78 33.69 394.54C36.27 399.47 34.64 405.59 29.93 408.57C9.17 421.7 15.06 439.35 29.54 442.66C46.02 446.43 56.33 429.02 56.33 429.02C56.33 429.02 241.89 478.75 262.51 484.27Z" id="cwn3mxtd"></path><path d="M273.36 479.97C273.49 478.72 272.7 477.57 271.5 477.24C249.55 471.36 74 424.33 52.06 418.45C50.85 418.12 49.6 418.73 49.09 419.87C47 424.58 40.58 435.67 27.5 432.68C21.81 431.38 18.13 428.05 17.01 423.69C14.55 432.59 20.29 440.55 29.54 442.66C46.02 446.43 56.33 429.02 56.33 429.02C76.94 434.55 241.89 478.75 262.51 484.27C262.51 484.27 262.74 504.5 278.89 509.48C287.96 512.27 296.91 508.25 299.23 499.31C296.08 502.53 291.22 503.57 285.65 501.85C272.83 497.9 272.82 485.08 273.36 479.97Z" id="f3qEFQFBm4"></path><path d="M216.84 141.58C215.46 144.14 215.48 147.23 216.91 149.77C217.84 151.38 225.28 164.27 226.21 165.88C228.5 169.87 227.13 174.95 223.16 177.25C222.68 177.53 220.28 178.92 215.95 181.42C213.46 177.09 212.07 174.69 211.79 174.21C210.64 172.22 208.09 171.53 206.1 172.68C205.38 173.1 199.61 176.43 198.89 176.85C196.9 178 196.22 180.54 197.37 182.53C197.65 183.01 199.03 185.42 201.53 189.74L190.72 195.99C186.97 189.5 184.89 185.89 184.47 185.17C182.16 181.2 177.08 179.84 173.1 182.12C172.38 182.54 166.61 185.87 165.89 186.29C161.92 188.6 160.56 193.68 162.84 197.66C163.26 198.38 165.34 201.99 169.08 208.48L158.27 214.72C155.77 210.4 154.38 207.99 154.11 207.51C152.96 205.52 150.41 204.84 148.42 205.99C147.7 206.4 141.93 209.73 141.21 210.15C139.22 211.3 138.53 213.85 139.68 215.84C139.96 216.32 141.35 218.72 143.85 223.05C139.52 225.55 137.12 226.93 136.64 227.21C132.65 229.5 127.57 228.13 125.26 224.16C124.33 222.55 116.89 209.66 115.96 208.05C114.48 205.54 111.81 203.98 108.9 203.9C78.97 202.77 52.05 188.94 37.73 164.14C13.58 122.32 34.36 65.14 84.15 36.39C133.94 7.64 193.85 18.24 217.99 60.06C232.32 84.87 230.83 115.1 216.84 141.58Z" id="c14Ea25c2u"></path><path d="M81.4 114.89C67.46 122.94 62.69 140.76 70.74 154.7C78.78 168.63 96.61 173.41 110.54 165.36C124.48 157.32 129.26 139.49 121.21 125.56C113.16 111.62 95.34 106.84 81.4 114.89Z" id="b1VIomFZC"></path><path d="M158.23 89.76C148.27 95.51 144.86 108.24 150.61 118.2C156.36 128.15 169.09 131.56 179.04 125.81C189 120.07 192.41 107.34 186.66 97.38C180.91 87.42 168.18 84.01 158.23 89.76Z" id="a9NnAXDdQf"></path><path d="M254.41 217.92C255.23 220.07 254.14 222.47 251.99 223.29C251.61 223.44 248.49 224.62 248.1 224.76C248.92 226.91 247.83 229.32 245.68 230.13C237.12 233.37 168.59 259.31 160.03 262.56C157.88 263.37 155.48 262.29 154.66 260.14C154.27 260.29 151.16 261.46 150.77 261.61C148.62 262.43 146.21 261.34 145.4 259.19C145.11 258.41 142.75 252.18 142.45 251.41C141.64 249.26 142.72 246.85 144.87 246.04C145.65 245.74 149.54 244.27 156.55 241.62C154.78 236.94 153.8 234.35 153.6 233.83C152.79 231.68 153.87 229.28 156.02 228.46C156.8 228.17 163.03 225.81 163.81 225.51C165.96 224.7 168.36 225.78 169.18 227.93C169.37 228.45 170.36 231.05 172.13 235.72L183.81 231.3C181.15 224.29 179.68 220.4 179.38 219.62C178.57 217.47 179.65 215.07 181.8 214.25C183.36 213.66 195.82 208.95 197.38 208.36C199.53 207.54 201.93 208.62 202.74 210.78C203.04 211.55 204.51 215.45 207.17 222.46L218.85 218.03C217.08 213.36 216.09 210.77 215.9 210.25C215.08 208.1 216.17 205.69 218.32 204.88C219.1 204.58 225.32 202.23 226.1 201.93C228.25 201.12 230.66 202.2 231.47 204.35C231.67 204.87 232.65 207.47 234.42 212.14C241.43 209.48 245.32 208.01 246.1 207.72C248.25 206.9 250.65 207.98 251.47 210.13C252.06 211.69 254.12 217.14 254.41 217.92Z" id="e1WoOhQcy"></path><path d="M150.18 16.36L154.08 16.7L157.94 17.17L161.75 17.79L165.52 18.54L169.23 19.43L172.88 20.46L176.47 21.62L179.99 22.92L183.44 24.35L186.81 25.92L190.1 27.61L193.3 29.44L196.42 31.4L199.44 33.49L202.36 35.7L205.17 38.05L207.88 40.52L210.48 43.12L212.95 45.84L215.31 48.69L217.54 51.67L219.64 54.76L221.6 57.98L222.65 59.87L223.65 61.78L224.6 63.72L225.48 65.68L226.31 67.66L227.09 69.66L227.81 71.68L228.48 73.73L229.09 75.79L229.64 77.87L230.14 79.96L230.58 82.07L230.97 84.2L231.3 86.33L231.58 88.49L231.8 90.65L231.97 92.82L232.08 95.01L232.14 97.2L232.14 99.4L232.08 101.6L231.97 103.82L231.8 106.03L231.58 108.26L231.31 110.48L230.97 112.71L230.59 114.93L230.14 117.16L229.65 119.39L229.09 121.61L228.49 123.83L227.82 126.05L227.1 128.26L226.33 130.47L225.5 132.67L224.61 134.87L223.67 137.05L222.68 139.23L221.63 141.39L220.52 143.54L220.47 143.64L220.42 143.74L220.37 143.84L220.33 143.94L220.29 144.04L220.25 144.14L220.21 144.24L220.18 144.34L220.15 144.45L220.12 144.55L220.09 144.66L220.07 144.76L220.05 144.87L220.03 144.97L220.02 145.08L220 145.18L220 145.29L219.99 145.4L219.98 145.5L219.98 145.61L219.98 145.72L219.99 145.83L219.99 145.93L220 146.04L220.01 146.15L220.03 146.25L220.05 146.36L220.07 146.46L220.09 146.57L220.11 146.67L220.14 146.78L220.17 146.88L220.2 146.98L220.24 147.09L220.28 147.19L220.32 147.29L220.36 147.39L220.41 147.49L220.46 147.59L220.51 147.68L229.82 163.8L230.06 164.25L230.29 164.71L230.5 165.17L230.68 165.64L230.85 166.11L230.99 166.58L231.12 167.06L231.23 167.54L231.32 168.02L231.39 168.5L231.43 168.98L231.47 169.47L231.48 169.95L231.47 170.43L231.45 170.91L231.4 171.39L231.34 171.87L231.26 172.34L231.16 172.81L231.05 173.27L230.92 173.73L230.77 174.19L230.6 174.64L230.41 175.08L230.21 175.52L229.99 175.94L229.76 176.37L229.51 176.78L229.24 177.18L228.95 177.57L228.65 177.96L228.34 178.33L228 178.69L227.66 179.04L227.29 179.38L226.91 179.7L226.52 180.01L226.11 180.31L225.68 180.59L225.24 180.86L218.03 185.02L217.88 185.11L217.73 185.18L217.58 185.25L217.42 185.31L217.27 185.37L217.11 185.42L216.95 185.46L216.79 185.5L216.63 185.53L216.47 185.55L216.31 185.57L216.15 185.58L215.98 185.58L215.82 185.58L215.66 185.57L215.5 185.56L215.34 185.54L215.19 185.51L215.03 185.48L214.88 185.44L214.72 185.39L214.57 185.34L214.42 185.29L214.27 185.23L214.13 185.16L213.98 185.09L213.84 185.01L213.71 184.92L213.57 184.83L213.44 184.74L213.31 184.64L213.19 184.53L213.07 184.42L212.95 184.3L212.84 184.18L212.73 184.06L212.63 183.92L212.53 183.79L212.44 183.65L212.35 183.5L208.18 176.29L200.97 180.45L205.14 187.66L205.22 187.81L205.3 187.96L205.37 188.12L205.43 188.27L205.48 188.43L205.53 188.59L205.58 188.75L205.61 188.91L205.64 189.07L205.66 189.23L205.68 189.39L205.69 189.55L205.7 189.71L205.69 189.87L205.69 190.03L205.67 190.19L205.65 190.35L205.62 190.51L205.59 190.67L205.55 190.82L205.51 190.97L205.46 191.13L205.4 191.28L205.34 191.42L205.27 191.57L205.2 191.71L205.12 191.85L205.04 191.99L204.95 192.12L204.85 192.26L204.75 192.38L204.65 192.51L204.54 192.63L204.42 192.74L204.3 192.86L204.17 192.96L204.04 193.07L203.9 193.17L203.76 193.26L203.61 193.35L192.8 199.59L192.65 199.68L192.49 199.75L192.34 199.82L192.19 199.88L192.03 199.94L191.87 199.99L191.71 200.03L191.55 200.07L191.39 200.1L191.23 200.12L191.07 200.14L190.91 200.15L190.75 200.15L190.59 200.15L190.43 200.14L190.27 200.13L190.11 200.11L189.95 200.08L189.79 200.05L189.64 200.01L189.48 199.96L189.33 199.91L189.18 199.86L189.04 199.8L188.89 199.73L188.75 199.66L188.61 199.58L188.47 199.49L188.34 199.4L188.2 199.31L188.08 199.21L187.95 199.1L187.83 198.99L187.72 198.88L187.6 198.75L187.5 198.63L187.39 198.5L187.29 198.36L187.2 198.22L187.11 198.07L180.87 187.25L180.78 187.11L180.68 186.96L180.58 186.83L180.48 186.7L180.37 186.57L180.26 186.45L180.14 186.33L180.02 186.22L179.9 186.11L179.77 186.01L179.64 185.92L179.51 185.83L179.37 185.75L179.23 185.67L179.09 185.59L178.94 185.53L178.79 185.46L178.64 185.41L178.49 185.36L178.34 185.31L178.18 185.28L178.03 185.24L177.87 185.22L177.71 185.2L177.55 185.18L177.39 185.17L177.23 185.17L177.07 185.18L176.91 185.19L176.75 185.2L176.59 185.23L176.42 185.26L176.27 185.29L176.11 185.33L175.95 185.38L175.79 185.44L175.64 185.5L175.48 185.57L175.33 185.65L175.18 185.73L167.97 189.89L167.82 189.98L167.68 190.08L167.54 190.17L167.41 190.28L167.28 190.39L167.16 190.5L167.05 190.61L166.94 190.73L166.83 190.86L166.73 190.99L166.63 191.12L166.54 191.25L166.46 191.39L166.38 191.53L166.31 191.67L166.24 191.82L166.18 191.97L166.12 192.12L166.07 192.27L166.03 192.42L165.99 192.58L165.96 192.73L165.93 192.89L165.91 193.05L165.9 193.21L165.89 193.37L165.89 193.53L165.89 193.69L165.9 193.85L165.92 194.01L165.94 194.17L165.97 194.33L166.01 194.49L166.05 194.65L166.1 194.81L166.15 194.97L166.22 195.12L166.29 195.28L166.36 195.43L166.44 195.58L172.69 206.4L172.77 206.55L172.85 206.7L172.92 206.85L172.98 207.01L173.04 207.16L173.08 207.32L173.13 207.48L173.16 207.64L173.19 207.8L173.22 207.96L173.23 208.12L173.24 208.28L173.25 208.45L173.25 208.61L173.24 208.77L173.22 208.93L173.2 209.09L173.18 209.24L173.14 209.4L173.11 209.55L173.06 209.71L173.01 209.86L172.96 210.01L172.89 210.16L172.83 210.3L172.75 210.45L172.67 210.59L172.59 210.72L172.5 210.86L172.41 210.99L172.31 211.12L172.2 211.24L172.09 211.36L171.97 211.48L171.85 211.59L171.72 211.7L171.59 211.8L171.45 211.9L171.31 211.99L171.17 212.08L160.35 218.33L160.2 218.41L160.05 218.49L159.89 218.55L159.74 218.62L159.58 218.67L159.42 218.72L159.26 218.76L159.1 218.8L158.94 218.83L158.78 218.85L158.62 218.87L158.46 218.88L158.3 218.89L158.14 218.88L157.98 218.87L157.82 218.86L157.66 218.84L157.5 218.81L157.35 218.78L157.19 218.74L157.04 218.7L156.89 218.65L156.74 218.59L156.59 218.53L156.44 218.46L156.3 218.39L156.16 218.31L156.02 218.23L155.89 218.14L155.76 218.04L155.63 217.94L155.5 217.84L155.38 217.73L155.27 217.61L155.16 217.49L155.05 217.36L154.94 217.23L154.85 217.09L154.75 216.95L154.66 216.8L150.5 209.59L143.29 213.76L147.45 220.97L147.54 221.12L147.61 221.27L147.68 221.42L147.74 221.58L147.8 221.74L147.85 221.89L147.89 222.05L147.93 222.21L147.96 222.37L147.98 222.53L148 222.69L148.01 222.86L148.01 223.02L148.01 223.18L148 223.34L147.99 223.5L147.97 223.66L147.94 223.81L147.91 223.97L147.87 224.13L147.82 224.28L147.77 224.43L147.72 224.58L147.66 224.73L147.59 224.87L147.52 225.02L147.44 225.16L147.35 225.29L147.26 225.43L147.17 225.56L147.07 225.69L146.96 225.81L146.85 225.93L146.73 226.05L146.61 226.16L146.49 226.27L146.35 226.37L146.22 226.47L146.08 226.56L145.93 226.65L138.72 230.82L138.27 231.06L137.81 231.29L137.35 231.5L136.88 231.68L136.41 231.85L135.94 231.99L135.46 232.12L134.98 232.23L134.5 232.32L134.02 232.38L133.54 232.43L133.05 232.47L132.57 232.48L132.09 232.47L131.61 232.45L131.13 232.4L130.65 232.34L130.18 232.26L129.71 232.16L129.25 232.05L128.78 231.92L128.33 231.77L127.88 231.6L127.44 231.41L127 231.21L126.57 230.99L126.15 230.76L125.74 230.51L125.34 230.24L124.94 229.95L124.56 229.65L124.19 229.34L123.83 229L123.48 228.66L123.14 228.29L122.82 227.91L122.5 227.52L122.21 227.11L121.93 226.68L121.66 226.24L112.35 210.13L112.3 210.04L112.23 209.94L112.17 209.85L112.11 209.77L112.04 209.68L111.97 209.6L111.9 209.51L111.83 209.43L111.75 209.35L111.68 209.28L111.6 209.2L111.52 209.13L111.44 209.06L111.36 208.99L111.27 208.93L111.18 208.87L111.1 208.8L111.01 208.75L110.92 208.69L110.82 208.63L110.73 208.58L110.64 208.53L110.54 208.49L110.44 208.44L110.34 208.4L110.24 208.36L110.14 208.32L110.04 208.28L109.94 208.25L109.84 208.22L109.73 208.2L109.63 208.17L109.52 208.15L109.41 208.13L109.31 208.11L109.2 208.1L109.09 208.09L108.98 208.08L108.87 208.07L108.76 208.07L106.34 207.95L103.94 207.78L101.56 207.55L99.2 207.27L96.86 206.94L94.54 206.56L92.24 206.13L89.96 205.64L87.71 205.11L85.48 204.53L83.28 203.89L81.1 203.21L78.95 202.48L76.83 201.7L74.74 200.88L72.67 200L70.64 199.08L68.63 198.12L66.66 197.11L64.72 196.05L62.82 194.95L60.95 193.81L59.11 192.62L57.31 191.39L55.55 190.12L53.83 188.8L52.14 187.44L50.5 186.05L48.89 184.61L47.32 183.13L45.8 181.61L44.32 180.05L42.89 178.45L41.49 176.81L40.15 175.14L38.85 173.43L37.59 171.68L36.39 169.9L35.23 168.08L34.12 166.22L32.32 162.91L30.69 159.54L29.23 156.13L27.94 152.66L26.82 149.15L25.86 145.61L25.08 142.03L24.45 138.41L23.99 134.78L23.69 131.12L23.56 127.44L23.57 123.75L23.75 120.06L24.08 116.35L24.57 112.65L25.2 108.95L25.99 105.27L26.93 101.59L28.01 97.93L29.24 94.3L30.62 90.69L32.13 87.11L33.79 83.56L35.59 80.05L37.52 76.59L39.59 73.17L41.8 69.81L44.14 66.5L46.61 63.26L49.22 60.08L51.95 56.96L54.81 53.93L57.79 50.96L60.9 48.09L64.13 45.29L67.48 42.59L70.95 39.99L74.54 37.48L78.25 35.08L82.07 32.78L85.97 30.62L89.9 28.61L93.86 26.76L97.86 25.06L101.87 23.5L105.91 22.1L109.95 20.85L114.01 19.74L118.07 18.79L122.13 17.98L126.19 17.32L130.24 16.8L134.27 16.42L138.29 16.2L142.28 16.11L146.25 16.16L150.18 16.36ZM134.32 24.75L130.61 25.12L126.88 25.62L123.15 26.25L119.41 27.01L115.67 27.91L111.94 28.94L108.21 30.11L104.49 31.41L100.79 32.85L97.11 34.43L93.45 36.14L89.83 38L86.23 39.99L82.71 42.11L79.29 44.32L75.97 46.63L72.76 49.03L69.67 51.52L66.68 54.08L63.8 56.73L61.04 59.45L58.4 62.24L55.87 65.09L53.45 68.01L51.16 70.99L48.99 74.02L46.94 77.1L45.01 80.23L43.21 83.4L41.54 86.62L39.99 89.86L38.57 93.14L37.29 96.44L36.13 99.77L35.11 103.11L34.23 106.47L33.48 109.84L32.88 113.22L32.41 116.6L32.08 119.98L31.89 123.36L31.85 126.73L31.96 130.08L32.21 133.42L32.61 136.74L33.16 140.03L33.86 143.29L34.72 146.52L35.73 149.72L36.89 152.87L38.21 155.98L39.69 159.05L41.34 162.06L42.35 163.75L43.4 165.41L44.49 167.04L45.63 168.63L46.8 170.18L48.02 171.7L49.28 173.18L50.57 174.63L51.91 176.04L53.28 177.41L54.69 178.75L56.13 180.04L57.61 181.3L59.13 182.52L60.68 183.71L62.27 184.85L63.89 185.95L65.54 187.02L67.23 188.04L68.94 189.03L70.69 189.97L72.47 190.87L74.28 191.73L76.12 192.55L77.98 193.33L79.88 194.07L81.8 194.76L83.75 195.41L85.73 196.01L87.73 196.58L89.76 197.1L91.81 197.57L93.89 198L95.99 198.38L98.11 198.72L100.25 199.02L102.42 199.27L104.61 199.47L106.82 199.63L109.04 199.73L109.37 199.75L109.69 199.77L110.02 199.8L110.34 199.84L110.65 199.88L110.97 199.94L111.28 200L111.6 200.07L111.91 200.15L112.21 200.23L112.52 200.32L112.82 200.42L113.12 200.53L113.41 200.65L113.7 200.77L113.99 200.9L114.28 201.03L114.56 201.18L114.84 201.33L115.11 201.49L115.38 201.65L115.65 201.82L115.91 202L116.17 202.18L116.42 202.38L116.66 202.57L116.91 202.78L117.15 202.99L117.38 203.2L117.61 203.42L117.83 203.65L118.04 203.89L118.26 204.13L118.46 204.37L118.66 204.62L118.85 204.88L119.04 205.15L119.22 205.41L119.4 205.69L119.56 205.97L128.87 222.08L128.96 222.23L129.05 222.37L129.15 222.51L129.25 222.64L129.36 222.77L129.47 222.89L129.59 223L129.71 223.12L129.83 223.22L129.96 223.32L130.09 223.42L130.23 223.51L130.36 223.59L130.51 223.67L130.65 223.74L130.79 223.81L130.94 223.87L131.09 223.93L131.24 223.98L131.4 224.02L131.55 224.06L131.71 224.09L131.87 224.12L132.02 224.14L132.18 224.15L132.34 224.16L132.5 224.16L132.67 224.16L132.83 224.15L132.99 224.13L133.15 224.11L133.31 224.08L133.47 224.04L133.63 224L133.79 223.95L133.94 223.9L134.1 223.83L134.25 223.76L134.4 223.69L134.56 223.61L138.16 221.52L136.08 217.92L135.91 217.62L135.76 217.31L135.63 217.01L135.5 216.69L135.39 216.38L135.29 216.06L135.21 215.75L135.14 215.43L135.08 215.11L135.03 214.79L135 214.46L134.98 214.14L134.97 213.82L134.98 213.5L134.99 213.18L135.02 212.86L135.06 212.54L135.12 212.23L135.18 211.91L135.26 211.6L135.35 211.3L135.45 210.99L135.56 210.69L135.68 210.4L135.82 210.11L135.96 209.82L136.12 209.54L136.29 209.27L136.46 209L136.65 208.74L136.85 208.48L137.07 208.23L137.29 207.99L137.52 207.76L137.76 207.53L138.01 207.32L138.28 207.11L138.55 206.91L138.83 206.72L139.13 206.55L146.34 202.38L146.64 202.22L146.94 202.07L147.25 201.93L147.56 201.81L147.88 201.69L148.19 201.6L148.51 201.51L148.83 201.44L149.15 201.38L149.47 201.34L149.79 201.3L150.11 201.28L150.44 201.27L150.76 201.28L151.08 201.3L151.4 201.32L151.71 201.37L152.03 201.42L152.34 201.48L152.65 201.56L152.96 201.65L153.26 201.75L153.56 201.86L153.86 201.98L154.15 202.12L154.43 202.26L154.71 202.42L154.99 202.59L155.26 202.77L155.52 202.96L155.78 203.16L156.02 203.37L156.26 203.59L156.5 203.82L156.72 204.06L156.94 204.32L157.15 204.58L157.34 204.85L157.53 205.14L157.71 205.43L159.79 209.03L163.4 206.95L159.23 199.74L158.99 199.29L158.76 198.83L158.56 198.37L158.37 197.91L158.2 197.44L158.06 196.96L157.93 196.49L157.82 196.01L157.73 195.52L157.67 195.04L157.62 194.56L157.59 194.08L157.57 193.59L157.58 193.11L157.6 192.63L157.65 192.15L157.71 191.68L157.79 191.2L157.89 190.73L158 190.27L158.13 189.81L158.28 189.35L158.45 188.91L158.64 188.46L158.84 188.03L159.06 187.6L159.29 187.18L159.54 186.76L159.81 186.36L160.1 185.97L160.4 185.59L160.71 185.21L161.05 184.85L161.4 184.5L161.76 184.16L162.14 183.84L162.53 183.53L162.94 183.23L163.37 182.95L163.81 182.68L171.02 178.52L171.47 178.27L171.92 178.05L172.39 177.84L172.85 177.65L173.32 177.49L173.8 177.34L174.27 177.21L174.75 177.11L175.23 177.02L175.72 176.95L176.2 176.9L176.68 176.87L177.17 176.86L177.65 176.86L178.13 176.89L178.61 176.93L179.08 176.99L179.55 177.07L180.02 177.17L180.49 177.29L180.95 177.42L181.4 177.57L181.85 177.74L182.3 177.92L182.73 178.12L183.16 178.34L183.58 178.58L183.99 178.83L184.4 179.1L184.79 179.38L185.17 179.68L185.55 180L185.91 180.33L186.26 180.68L186.59 181.04L186.92 181.42L187.23 181.82L187.53 182.23L187.81 182.65L188.08 183.09L192.24 190.3L195.84 188.22L193.76 184.61L193.6 184.31L193.45 184.01L193.31 183.7L193.19 183.39L193.08 183.08L192.98 182.76L192.89 182.44L192.82 182.12L192.76 181.8L192.72 181.48L192.68 181.16L192.66 180.84L192.66 180.52L192.66 180.19L192.68 179.87L192.71 179.55L192.75 179.24L192.8 178.92L192.86 178.61L192.94 178.3L193.03 177.99L193.13 177.69L193.24 177.39L193.37 177.09L193.5 176.8L193.65 176.52L193.8 176.24L193.97 175.96L194.15 175.69L194.34 175.43L194.54 175.18L194.75 174.93L194.97 174.69L195.2 174.45L195.45 174.23L195.7 174.01L195.96 173.81L196.24 173.61L196.52 173.42L196.81 173.24L204.02 169.08L204.32 168.91L204.63 168.76L204.93 168.62L205.25 168.5L205.56 168.39L205.88 168.29L206.19 168.21L206.51 168.14L206.83 168.08L207.15 168.03L207.48 168L207.8 167.98L208.12 167.97L208.44 167.97L208.76 167.99L209.08 168.02L209.4 168.06L209.71 168.11L210.03 168.18L210.34 168.26L210.64 168.34L210.95 168.44L211.25 168.56L211.54 168.68L211.83 168.81L212.12 168.96L212.4 169.12L212.67 169.28L212.94 169.46L213.2 169.65L213.46 169.85L213.71 170.06L213.95 170.29L214.18 170.52L214.41 170.76L214.62 171.01L214.83 171.28L215.03 171.55L215.22 171.83L215.4 172.13L217.48 175.73L221.08 173.65L221.23 173.56L221.37 173.47L221.51 173.37L221.64 173.26L221.77 173.16L221.89 173.04L222 172.93L222.12 172.81L222.22 172.68L222.32 172.56L222.42 172.42L222.51 172.29L222.59 172.15L222.67 172.01L222.74 171.87L222.81 171.72L222.87 171.58L222.93 171.43L222.98 171.27L223.02 171.12L223.06 170.97L223.09 170.81L223.12 170.65L223.14 170.49L223.15 170.33L223.16 170.17L223.16 170.01L223.16 169.85L223.15 169.69L223.13 169.53L223.11 169.37L223.08 169.21L223.04 169.05L223 168.89L222.95 168.73L222.9 168.57L222.83 168.42L222.76 168.26L222.69 168.11L222.61 167.96L213.3 151.85L213.14 151.56L212.99 151.27L212.85 150.98L212.72 150.69L212.59 150.39L212.47 150.1L212.36 149.79L212.26 149.49L212.17 149.19L212.08 148.88L212 148.57L211.93 148.26L211.87 147.95L211.81 147.64L211.77 147.33L211.73 147.01L211.69 146.7L211.67 146.38L211.66 146.07L211.65 145.75L211.65 145.44L211.66 145.12L211.67 144.8L211.7 144.49L211.73 144.17L211.77 143.86L211.82 143.55L211.87 143.23L211.94 142.92L212.01 142.61L212.09 142.3L212.18 142L212.27 141.69L212.38 141.39L212.49 141.09L212.61 140.79L212.73 140.49L212.87 140.2L213.01 139.91L213.16 139.62L214.18 137.64L215.15 135.65L216.07 133.65L216.94 131.65L217.76 129.65L218.52 127.64L219.24 125.63L219.91 123.61L220.52 121.6L221.09 119.58L221.6 117.57L222.06 115.55L222.48 113.54L222.84 111.53L223.15 109.52L223.41 107.51L223.62 105.51L223.78 103.51L223.89 101.52L223.94 99.54L223.95 97.56L223.9 95.59L223.81 93.62L223.66 91.67L223.47 89.72L223.22 87.79L222.92 85.87L222.57 83.95L222.17 82.05L221.72 80.16L221.21 78.29L220.66 76.43L220.05 74.59L219.4 72.76L218.69 70.94L217.93 69.15L217.12 67.37L216.26 65.61L215.35 63.87L214.39 62.14L212.6 59.22L210.69 56.4L208.66 53.7L206.51 51.12L204.25 48.65L201.88 46.29L199.4 44.05L196.82 41.93L194.15 39.92L191.39 38.03L188.53 36.27L185.6 34.62L182.58 33.09L179.49 31.68L176.33 30.4L173.1 29.24L169.8 28.2L166.45 27.28L163.04 26.49L159.59 25.83L156.08 25.29L152.54 24.88L148.95 24.6L145.34 24.44L141.69 24.42L138.02 24.52L134.32 24.75Z" id="cjotIefR5"></path><path d="M98.29 106.91L99.56 107.03L100.83 107.19L102.1 107.4L103.35 107.66L104.59 107.97L105.82 108.33L107.03 108.73L108.23 109.17L109.41 109.67L110.57 110.21L111.72 110.79L112.84 111.42L113.94 112.09L115.01 112.81L116.06 113.57L117.08 114.37L118.08 115.22L119.04 116.1L119.97 117.03L120.87 118.01L121.73 119.02L122.56 120.07L123.35 121.17L124.1 122.3L124.81 123.47L125.48 124.68L126.08 125.89L126.64 127.13L127.14 128.37L127.58 129.63L127.98 130.89L128.32 132.16L128.61 133.44L128.84 134.72L129.03 136.01L129.16 137.3L129.25 138.59L129.28 139.88L129.27 141.16L129.2 142.44L129.08 143.72L128.92 144.99L128.71 146.25L128.45 147.5L128.14 148.75L127.79 149.97L127.39 151.19L126.94 152.39L126.45 153.57L125.91 154.73L125.32 155.88L124.69 157L124.02 158.1L123.3 159.17L122.54 160.22L121.74 161.24L120.89 162.23L120 163.2L119.07 164.13L118.1 165.03L117.09 165.89L116.03 166.72L114.93 167.51L113.8 168.26L112.62 168.97L111.42 169.63L110.2 170.24L108.97 170.79L107.73 171.29L106.47 171.74L105.21 172.13L103.94 172.47L102.66 172.76L101.38 173L100.09 173.18L98.8 173.32L97.51 173.4L96.22 173.44L94.94 173.42L93.65 173.35L92.38 173.24L91.11 173.07L89.85 172.86L88.59 172.6L87.35 172.3L86.12 171.94L84.91 171.54L83.71 171.09L82.53 170.6L81.37 170.06L80.22 169.48L79.1 168.85L78 168.17L76.93 167.46L75.88 166.7L74.86 165.89L73.86 165.05L72.9 164.16L71.97 163.23L71.07 162.25L70.21 161.24L69.38 160.18L68.59 159.09L67.84 157.95L67.13 156.78L66.47 155.58L65.86 154.36L65.31 153.13L64.81 151.88L64.36 150.63L63.97 149.36L63.63 148.09L63.34 146.81L63.1 145.53L62.92 144.24L62.78 142.95L62.7 141.66L62.66 140.38L62.68 139.09L62.75 137.81L62.86 136.53L63.02 135.26L63.24 134L63.5 132.75L63.8 131.51L64.16 130.28L64.56 129.06L65.01 127.87L65.5 126.68L66.04 125.52L66.62 124.38L67.25 123.25L67.92 122.16L68.64 121.08L69.4 120.03L70.21 119.01L71.05 118.02L71.94 117.05L72.87 116.12L73.85 115.23L74.86 114.36L75.91 113.54L77.01 112.75L78.15 111.99L79.32 111.28L80.52 110.62L81.74 110.02L82.97 109.46L84.22 108.97L85.47 108.52L86.74 108.13L88.01 107.79L89.29 107.5L90.57 107.27L91.86 107.08L93.14 106.95L94.43 106.86L95.72 106.83L97.01 106.85L98.29 106.91ZM93.2 115.3L91.95 115.47L90.71 115.7L89.47 116L88.25 116.37L87.03 116.8L85.83 117.3L84.65 117.86L83.48 118.49L82.35 119.19L81.27 119.93L80.24 120.72L79.26 121.56L78.33 122.44L77.45 123.36L76.63 124.31L75.86 125.31L75.14 126.33L74.48 127.39L73.87 128.48L73.32 129.59L72.83 130.73L72.39 131.89L72.01 133.07L71.69 134.26L71.43 135.47L71.23 136.69L71.09 137.92L71.01 139.16L70.99 140.41L71.04 141.65L71.14 142.9L71.31 144.15L71.55 145.39L71.85 146.62L72.21 147.85L72.64 149.06L73.14 150.26L73.71 151.45L74.34 152.62L75.03 153.75L75.78 154.83L76.57 155.86L77.4 156.84L78.28 157.77L79.2 158.65L80.16 159.47L81.15 160.24L82.18 160.96L83.24 161.62L84.33 162.23L85.44 162.78L86.58 163.27L87.73 163.71L88.91 164.09L90.11 164.41L91.32 164.67L92.54 164.87L93.77 165.01L95.01 165.09L96.25 165.11L97.5 165.06L98.75 164.96L99.99 164.79L101.24 164.55L102.47 164.25L103.7 163.89L104.91 163.45L106.11 162.96L107.3 162.39L108.46 161.76L109.59 161.06L110.67 160.32L111.7 159.53L112.68 158.69L113.61 157.81L114.49 156.89L115.31 155.94L116.08 154.94L116.8 153.91L117.46 152.86L118.06 151.77L118.61 150.66L119.11 149.52L119.54 148.36L119.92 147.18L120.24 145.99L120.5 144.78L120.7 143.56L120.85 142.33L120.93 141.09L120.94 139.84L120.9 138.6L120.79 137.35L120.62 136.1L120.39 134.86L120.09 133.63L119.73 132.4L119.3 131.19L118.8 129.99L118.24 128.8L117.6 127.64L116.91 126.51L116.17 125.42L115.38 124.39L114.54 123.41L113.66 122.48L112.74 121.61L111.78 120.78L110.79 120.01L109.76 119.29L108.71 118.63L107.62 118.03L106.51 117.48L105.37 116.98L104.21 116.55L103.03 116.17L101.84 115.85L100.63 115.59L99.41 115.38L98.17 115.24L96.94 115.16L95.69 115.15L94.44 115.19L93.2 115.3Z" id="b25GUtWxCh"></path><path d="M170.84 82.91L172.07 83.06L173.29 83.26L174.5 83.52L175.69 83.84L176.87 84.22L178.03 84.65L179.17 85.15L180.28 85.7L181.37 86.3L182.42 86.96L183.45 87.68L184.44 88.45L185.4 89.27L186.32 90.15L187.2 91.08L188.04 92.06L188.83 93.09L189.57 94.17L190.27 95.3L190.9 96.47L191.47 97.65L191.96 98.85L192.4 100.06L192.76 101.29L193.06 102.53L193.3 103.77L193.47 105.01L193.57 106.26L193.62 107.51L193.6 108.75L193.52 109.99L193.38 111.22L193.18 112.44L192.92 113.65L192.6 114.85L192.22 116.03L191.78 117.19L191.29 118.32L190.74 119.44L190.13 120.52L189.47 121.58L188.75 122.61L187.98 123.6L187.16 124.56L186.28 125.48L185.35 126.36L184.37 127.19L183.34 127.98L182.26 128.73L181.12 129.42L179.96 130.05L178.77 130.62L177.57 131.12L176.36 131.55L175.13 131.91L173.9 132.21L172.66 132.45L171.41 132.62L170.16 132.72L168.92 132.77L167.67 132.75L166.43 132.67L165.2 132.53L163.98 132.33L162.77 132.07L161.58 131.75L160.4 131.37L159.24 130.93L158.1 130.44L156.99 129.89L155.9 129.28L154.84 128.62L153.82 127.9L152.82 127.13L151.87 126.31L150.95 125.43L150.07 124.5L149.23 123.52L148.44 122.49L147.7 121.41L147 120.28L146.37 119.11L145.81 117.93L145.31 116.73L144.88 115.51L144.51 114.29L144.21 113.05L143.98 111.81L143.81 110.56L143.7 109.32L143.65 108.07L143.67 106.82L143.75 105.59L143.89 104.35L144.1 103.13L144.36 101.92L144.68 100.73L145.06 99.55L145.49 98.39L145.99 97.25L146.54 96.14L147.14 95.05L147.8 94L148.52 92.97L149.29 91.98L150.12 91.02L150.99 90.1L151.92 89.22L152.9 88.38L153.93 87.59L155.02 86.85L156.15 86.16L157.31 85.52L158.5 84.96L159.7 84.46L160.91 84.03L162.14 83.67L163.37 83.37L164.61 83.14L165.86 82.97L167.11 82.86L168.35 82.82L169.6 82.83L170.84 82.91ZM166.58 91.26L165.29 91.47L164.02 91.79L162.76 92.21L161.52 92.73L160.31 93.37L159.15 94.1L158.08 94.91L157.09 95.79L156.18 96.73L155.35 97.74L154.61 98.8L153.96 99.91L153.4 101.07L152.93 102.26L152.55 103.48L152.27 104.72L152.08 105.99L151.99 107.27L152 108.56L152.11 109.85L152.32 111.13L152.63 112.41L153.05 113.67L153.58 114.9L154.21 116.11L154.95 117.27L155.75 118.34L156.63 119.34L157.58 120.25L158.59 121.07L159.65 121.81L160.76 122.46L161.91 123.02L163.1 123.49L164.33 123.87L165.57 124.16L166.84 124.34L168.12 124.43L169.41 124.43L170.69 124.32L171.98 124.11L173.25 123.79L174.51 123.37L175.75 122.84L176.96 122.21L178.12 121.48L179.19 120.67L180.19 119.79L181.1 118.84L181.92 117.84L182.66 116.77L183.31 115.66L183.87 114.51L184.34 113.32L184.72 112.1L185 110.85L185.19 109.59L185.28 108.31L185.27 107.02L185.16 105.73L184.95 104.44L184.64 103.17L184.22 101.91L183.69 100.67L183.06 99.46L182.33 98.31L181.52 97.23L180.64 96.24L179.69 95.33L178.68 94.5L177.62 93.76L176.51 93.11L175.36 92.55L174.17 92.08L172.95 91.7L171.7 91.42L170.43 91.23L169.15 91.14L167.87 91.15L166.58 91.26Z" id="n54Rw3zId6"></path><path d="M228.21 197.53L228.53 197.56L228.85 197.6L229.17 197.66L229.48 197.73L229.79 197.81L230.1 197.9L230.4 198L230.7 198.12L230.99 198.24L231.28 198.38L231.57 198.53L231.84 198.69L232.12 198.86L232.38 199.04L232.64 199.22L232.89 199.42L233.14 199.63L233.37 199.85L233.6 200.08L233.82 200.32L234.03 200.57L234.23 200.83L234.43 201.1L234.61 201.37L234.78 201.66L234.94 201.95L235.1 202.25L235.24 202.56L235.36 202.88L236.84 206.77L244.62 203.82L244.95 203.71L245.27 203.61L245.6 203.52L245.93 203.45L246.25 203.39L246.58 203.35L246.91 203.31L247.24 203.29L247.56 203.29L247.89 203.29L248.21 203.31L248.53 203.35L248.85 203.39L249.17 203.45L249.48 203.51L249.79 203.59L250.1 203.68L250.4 203.79L250.7 203.9L250.99 204.03L251.28 204.16L251.56 204.31L251.84 204.47L252.11 204.64L252.38 204.82L252.64 205.01L252.89 205.21L253.13 205.42L253.37 205.64L253.6 205.87L253.82 206.11L254.03 206.36L254.23 206.61L254.42 206.88L254.6 207.16L254.78 207.44L254.94 207.73L255.09 208.03L255.23 208.34L255.36 208.66L258.31 216.45L258.42 216.77L258.52 217.1L258.61 217.42L258.68 217.75L258.74 218.08L258.78 218.4L258.82 218.73L258.84 219.06L258.84 219.38L258.84 219.71L258.82 220.03L258.78 220.35L258.74 220.67L258.68 220.99L258.62 221.3L258.54 221.61L258.45 221.92L258.34 222.22L258.23 222.52L258.1 222.81L257.97 223.1L257.82 223.38L257.66 223.66L257.49 223.93L257.31 224.2L257.12 224.46L256.92 224.71L256.71 224.95L256.49 225.19L256.26 225.42L256.02 225.64L255.77 225.85L255.52 226.05L255.25 226.24L254.97 226.43L254.69 226.6L254.4 226.76L254.1 226.91L253.79 227.05L253.47 227.18L252.42 227.58L252.38 227.8L252.34 228.02L252.29 228.23L252.23 228.45L252.17 228.66L252.11 228.87L252.04 229.07L251.96 229.28L251.88 229.48L251.79 229.68L251.7 229.88L251.6 230.07L251.5 230.26L251.39 230.45L251.28 230.64L251.17 230.82L251.05 231L250.92 231.17L250.79 231.34L250.66 231.51L250.52 231.68L250.38 231.84L250.23 232L250.08 232.15L249.92 232.3L249.76 232.45L249.6 232.59L249.43 232.73L249.26 232.86L249.09 232.99L248.91 233.11L248.73 233.23L248.54 233.35L248.35 233.46L248.16 233.57L247.97 233.67L247.77 233.77L247.57 233.86L247.36 233.94L247.16 234.02L161.5 266.45L161.29 266.53L161.08 266.6L160.87 266.66L160.66 266.72L160.45 266.78L160.23 266.82L160.02 266.87L159.8 266.9L159.59 266.93L159.37 266.96L159.15 266.97L158.94 266.99L158.72 266.99L158.5 267L158.29 266.99L158.07 266.98L157.86 266.97L157.64 266.95L157.43 266.92L157.22 266.89L157 266.85L156.79 266.81L156.58 266.76L156.37 266.7L156.17 266.65L155.96 266.58L155.76 266.51L155.55 266.43L155.35 266.35L155.15 266.27L154.96 266.17L154.76 266.08L154.57 265.97L154.38 265.87L154.19 265.75L154.01 265.63L153.82 265.51L153.64 265.38L153.47 265.25L153.29 265.11L152.24 265.51L151.92 265.62L151.59 265.72L151.27 265.81L150.94 265.88L150.61 265.94L150.29 265.98L149.96 266.01L149.63 266.03L149.31 266.04L148.98 266.03L148.66 266.01L148.34 265.98L148.02 265.94L147.7 265.88L147.39 265.81L147.08 265.73L146.77 265.64L146.47 265.54L146.17 265.43L145.88 265.3L145.59 265.16L145.3 265.02L145.03 264.86L144.76 264.69L144.49 264.51L144.23 264.32L143.98 264.12L143.74 263.91L143.5 263.69L143.27 263.46L143.05 263.22L142.84 262.97L142.64 262.71L142.45 262.45L142.26 262.17L142.09 261.89L141.93 261.6L141.78 261.29L141.64 260.98L141.51 260.67L138.56 252.88L138.45 252.56L138.35 252.23L138.26 251.91L138.19 251.58L138.13 251.25L138.08 250.92L138.05 250.6L138.03 250.27L138.02 249.94L138.03 249.62L138.05 249.3L138.08 248.97L138.13 248.66L138.18 248.34L138.25 248.03L138.33 247.72L138.42 247.41L138.52 247.11L138.64 246.81L138.76 246.51L138.9 246.23L139.05 245.94L139.21 245.67L139.38 245.39L139.56 245.13L139.75 244.87L139.95 244.62L140.16 244.37L140.38 244.14L140.6 243.91L140.84 243.69L141.09 243.48L141.35 243.28L141.62 243.08L141.89 242.9L142.18 242.73L142.47 242.57L142.77 242.41L143.08 242.27L143.4 242.15L151.18 239.2L149.71 235.3L149.6 234.98L149.5 234.66L149.41 234.33L149.34 234L149.28 233.68L149.23 233.35L149.2 233.02L149.18 232.69L149.18 232.37L149.18 232.04L149.2 231.72L149.23 231.4L149.28 231.08L149.33 230.76L149.4 230.45L149.48 230.14L149.57 229.83L149.68 229.53L149.79 229.23L149.92 228.94L150.05 228.65L150.2 228.37L150.36 228.09L150.53 227.82L150.71 227.55L150.9 227.29L151.1 227.04L151.31 226.8L151.53 226.56L151.76 226.33L152 226.11L152.24 225.9L152.5 225.7L152.77 225.51L153.04 225.32L153.33 225.15L153.62 224.99L153.92 224.84L154.23 224.7L154.55 224.57L162.34 221.62L162.66 221.51L162.98 221.41L163.31 221.32L163.64 221.25L163.96 221.19L164.29 221.14L164.62 221.11L164.95 221.09L165.27 221.09L165.6 221.09L165.92 221.11L166.24 221.14L166.56 221.19L166.88 221.24L167.19 221.31L167.5 221.39L167.81 221.48L168.11 221.59L168.41 221.7L168.7 221.83L168.99 221.96L169.27 222.11L169.55 222.27L169.82 222.44L170.09 222.62L170.35 222.81L170.6 223.01L170.84 223.22L171.08 223.44L171.31 223.67L171.53 223.91L171.74 224.15L171.94 224.41L172.13 224.68L172.32 224.95L172.49 225.24L172.65 225.53L172.8 225.83L172.94 226.14L173.07 226.46L174.54 230.35L178.44 228.88L175.49 221.09L175.38 220.77L175.28 220.44L175.19 220.12L175.12 219.79L175.06 219.46L175.01 219.14L174.98 218.81L174.96 218.48L174.96 218.16L174.96 217.83L174.98 217.51L175.01 217.19L175.06 216.87L175.11 216.55L175.18 216.24L175.26 215.93L175.35 215.62L175.46 215.32L175.57 215.02L175.7 214.73L175.83 214.44L175.98 214.16L176.14 213.88L176.31 213.61L176.49 213.34L176.68 213.08L176.88 212.83L177.09 212.59L177.31 212.35L177.54 212.12L177.77 211.9L178.02 211.69L178.28 211.49L178.55 211.3L178.82 211.11L179.11 210.94L179.4 210.78L179.7 210.63L180.01 210.49L180.33 210.36L195.9 204.46L196.23 204.35L196.55 204.25L196.88 204.16L197.2 204.09L197.53 204.03L197.86 203.99L198.19 203.95L198.51 203.93L198.84 203.93L199.16 203.93L199.49 203.95L199.81 203.99L200.13 204.03L200.44 204.09L200.76 204.15L201.07 204.23L201.37 204.32L201.68 204.43L201.97 204.54L202.27 204.67L202.56 204.8L202.84 204.95L203.12 205.11L203.39 205.28L203.65 205.46L203.91 205.65L204.16 205.85L204.41 206.06L204.64 206.28L204.87 206.51L205.09 206.75L205.3 207L205.51 207.25L205.7 207.52L205.88 207.8L206.05 208.08L206.22 208.37L206.37 208.67L206.51 208.98L206.64 209.3L209.58 217.09L213.48 215.61L212 211.72L211.89 211.4L211.79 211.07L211.7 210.75L211.63 210.42L211.57 210.09L211.53 209.76L211.5 209.44L211.48 209.11L211.47 208.78L211.48 208.46L211.5 208.14L211.53 207.82L211.57 207.5L211.63 207.18L211.69 206.87L211.77 206.56L211.87 206.25L211.97 205.95L212.08 205.65L212.21 205.36L212.35 205.07L212.49 204.78L212.65 204.51L212.82 204.23L213 203.97L213.19 203.71L213.39 203.46L213.6 203.21L213.82 202.98L214.05 202.75L214.29 202.53L214.54 202.32L214.79 202.12L215.06 201.92L215.34 201.74L215.62 201.57L215.91 201.41L216.22 201.26L216.53 201.11L216.84 200.99L224.63 198.04L224.95 197.92L225.28 197.82L225.6 197.74L225.93 197.67L226.26 197.61L226.59 197.56L226.91 197.53L227.24 197.51L227.57 197.5L227.89 197.51L228.21 197.53ZM222.74 216.56L222.8 216.72L222.85 216.88L222.89 217.05L222.93 217.21L222.96 217.37L222.98 217.54L223 217.7L223.01 217.87L223.01 218.03L223.01 218.19L223 218.35L222.98 218.51L222.96 218.67L222.93 218.83L222.9 218.99L222.86 219.14L222.81 219.3L222.76 219.45L222.7 219.6L222.64 219.74L222.57 219.89L222.5 220.03L222.42 220.17L222.33 220.31L222.24 220.44L222.15 220.57L222.05 220.69L221.94 220.81L221.83 220.93L221.72 221.05L221.6 221.16L221.47 221.26L221.35 221.36L221.21 221.46L221.07 221.55L220.93 221.64L220.78 221.72L220.63 221.79L220.48 221.86L220.32 221.93L208.64 226.35L208.48 226.41L208.32 226.46L208.15 226.5L207.99 226.54L207.82 226.57L207.66 226.59L207.5 226.61L207.33 226.62L207.17 226.62L207.01 226.62L206.85 226.61L206.69 226.59L206.53 226.57L206.37 226.54L206.21 226.51L206.06 226.47L205.9 226.42L205.75 226.37L205.6 226.31L205.45 226.25L205.31 226.18L205.17 226.11L205.03 226.03L204.89 225.94L204.76 225.85L204.63 225.76L204.51 225.66L204.38 225.55L204.27 225.44L204.15 225.33L204.04 225.21L203.94 225.08L203.84 224.96L203.74 224.82L203.65 224.68L203.56 224.54L203.48 224.39L203.41 224.24L203.34 224.09L203.27 223.93L198.85 212.25L183.28 218.15L187.7 229.83L187.76 229.99L187.81 230.15L187.85 230.31L187.89 230.48L187.92 230.64L187.94 230.8L187.96 230.97L187.97 231.13L187.97 231.29L187.97 231.46L187.96 231.62L187.94 231.78L187.92 231.94L187.89 232.1L187.86 232.25L187.82 232.41L187.77 232.56L187.72 232.71L187.66 232.86L187.6 233.01L187.53 233.15L187.46 233.3L187.38 233.43L187.29 233.57L187.2 233.7L187.11 233.83L187.01 233.96L186.9 234.08L186.79 234.2L186.68 234.31L186.56 234.42L186.43 234.53L186.31 234.63L186.17 234.73L186.03 234.82L185.89 234.9L185.74 234.98L185.59 235.06L185.44 235.13L185.28 235.19L173.6 239.61L173.44 239.67L173.28 239.72L173.11 239.77L172.95 239.8L172.78 239.83L172.62 239.86L172.46 239.87L172.29 239.88L172.13 239.89L171.97 239.88L171.81 239.87L171.65 239.86L171.49 239.84L171.33 239.81L171.17 239.77L171.02 239.73L170.86 239.69L170.71 239.64L170.56 239.58L170.41 239.52L170.27 239.45L170.13 239.37L169.99 239.29L169.85 239.21L169.72 239.12L169.59 239.02L169.47 238.92L169.34 238.82L169.23 238.71L169.11 238.59L169 238.47L168.9 238.35L168.8 238.22L168.7 238.09L168.61 237.95L168.52 237.81L168.44 237.66L168.37 237.51L168.3 237.35L168.23 237.19L165.28 229.41L157.5 232.36L160.45 240.14L160.5 240.3L160.55 240.47L160.6 240.63L160.63 240.79L160.66 240.96L160.69 241.12L160.7 241.29L160.71 241.45L160.72 241.61L160.71 241.77L160.7 241.94L160.69 242.1L160.67 242.26L160.64 242.41L160.6 242.57L160.56 242.73L160.52 242.88L160.47 243.03L160.41 243.18L160.35 243.33L160.28 243.47L160.2 243.61L160.13 243.75L160.04 243.89L159.95 244.02L159.86 244.15L159.76 244.28L159.65 244.4L159.54 244.52L159.43 244.63L159.31 244.74L159.18 244.85L159.05 244.95L158.92 245.04L158.78 245.13L158.64 245.22L158.49 245.3L158.34 245.38L158.19 245.45L158.03 245.51L146.35 249.93L149.29 257.72L153.19 256.24L153.35 256.19L153.51 256.14L153.67 256.09L153.84 256.06L154 256.03L154.17 256L154.33 255.99L154.49 255.98L154.66 255.97L154.82 255.98L154.98 255.99L155.14 256L155.3 256.02L155.46 256.05L155.62 256.09L155.77 256.13L155.92 256.17L156.08 256.22L156.22 256.28L156.37 256.34L156.52 256.41L156.66 256.49L156.8 256.56L156.93 256.65L157.07 256.74L157.19 256.83L157.32 256.93L157.44 257.04L157.56 257.15L157.67 257.26L157.78 257.38L157.89 257.51L157.99 257.64L158.09 257.77L158.18 257.91L158.26 258.05L158.35 258.2L158.42 258.35L158.49 258.5L158.55 258.66L244.21 226.24L244.15 226.08L244.1 225.91L244.06 225.75L244.02 225.59L243.99 225.42L243.97 225.26L243.95 225.09L243.94 224.93L243.94 224.77L243.94 224.61L243.95 224.44L243.97 224.28L243.99 224.12L244.01 223.97L244.05 223.81L244.09 223.65L244.13 223.5L244.19 223.35L244.24 223.2L244.31 223.05L244.37 222.91L244.45 222.77L244.53 222.63L244.61 222.49L244.7 222.36L244.8 222.23L244.9 222.1L245 221.98L245.11 221.86L245.23 221.75L245.35 221.64L245.47 221.53L245.6 221.43L245.73 221.34L245.87 221.25L246.02 221.16L246.16 221.08L246.31 221L246.47 220.93L246.63 220.87L250.52 219.4L247.57 211.61L235.89 216.03L235.73 216.09L235.57 216.14L235.41 216.18L235.24 216.22L235.08 216.25L234.91 216.27L234.75 216.29L234.59 216.3L234.42 216.3L234.26 216.3L234.1 216.29L233.94 216.27L233.78 216.25L233.62 216.22L233.46 216.19L233.31 216.15L233.16 216.1L233 216.05L232.85 216L232.71 215.93L232.56 215.86L232.42 215.79L232.28 215.71L232.15 215.63L232.01 215.54L231.89 215.44L231.76 215.34L231.64 215.24L231.52 215.13L231.41 215.01L231.3 214.89L231.19 214.77L231.09 214.64L230.99 214.5L230.9 214.37L230.82 214.22L230.73 214.08L230.66 213.93L230.59 213.77L230.53 213.61L227.58 205.82L219.79 208.77L222.74 216.56Z" id="b3MpXRTjZo"></path><path d="M530.23 561.82C530.23 561.82 516.08 576.28 523.98 591.22C530.93 604.36 549.5 605.48 556.82 582.03C558.48 576.71 563.96 573.54 569.4 574.76C593.36 580.15 601.68 563.51 593.78 550.93C584.79 536.61 565.19 541.63 565.19 541.63C554.52 523.15 469.14 375.26 458.46 356.77C458.46 356.77 472.61 342.31 464.71 327.37C457.76 314.23 439.19 313.11 431.87 336.56C430.21 341.88 424.73 345.05 419.29 343.83C395.33 338.44 387.01 355.08 394.91 367.67C403.9 381.98 423.5 376.96 423.5 376.96C423.5 376.96 519.55 543.34 530.23 561.82Z" id="b161oSrLMq"></path><path d="M540.94 566.44C541.91 565.66 542.17 564.29 541.55 563.2C530.19 543.53 439.32 386.14 427.96 366.46C427.33 365.38 426.02 364.92 424.85 365.37C420.04 367.22 407.66 370.53 400.53 359.16C397.42 354.22 397.18 349.26 399.47 345.39C391.44 349.94 389.87 359.63 394.91 367.67C403.9 381.98 423.5 376.96 423.5 376.96C434.17 395.45 519.55 543.34 530.23 561.82C530.23 561.82 516.08 576.28 523.98 591.22C528.42 599.61 537.59 603.1 545.55 598.42C541.05 598.46 536.88 595.77 534.15 590.61C527.88 578.75 536.94 569.68 540.94 566.44Z" id="almC748L"></path><path d="M519.91 52.57L190.08 395.08C208.33 405.04 218.47 410.58 220.5 411.68C378.53 270.58 466.33 192.18 483.89 176.51C513.45 150.11 535.74 116.55 548.6 79.07C548.6 79.07 554.26 62.56 565.58 29.58C559.49 32.64 544.27 40.31 519.91 52.57Z" id="a3QNoADHl"></path><path d="M519.91 52.57L190.08 395.08C208.33 405.04 218.47 410.58 220.5 411.68C378.53 270.58 466.33 192.18 483.89 176.51C513.45 150.11 535.74 116.55 548.6 79.07C548.6 79.07 554.26 62.56 565.58 29.58C559.49 32.64 544.27 40.31 519.91 52.57Z" id="b4mcweDHI"></path><path d="M516.09 46.55C478.61 59.42 445.05 81.7 418.65 111.27C401.87 130.06 317.96 224.03 166.95 393.18C169.28 395.51 180.96 407.19 201.98 428.21C213.09 418.29 219.26 412.78 220.5 411.68C216.4 407.58 214.12 405.31 213.67 404.85C207.21 398.4 207.21 387.95 213.66 381.5C260.58 334.57 377.89 217.26 565.58 29.58C535.89 39.77 519.4 45.42 516.09 46.55Z" id="c1lCXmyvLJ"></path><path d="M516.09 46.55C478.61 59.42 445.05 81.7 418.65 111.27C401.87 130.06 317.96 224.03 166.95 393.18C169.28 395.51 180.96 407.19 201.98 428.21C213.09 418.29 219.26 412.78 220.5 411.68C216.4 407.58 214.12 405.31 213.67 404.85C207.21 398.4 207.21 387.95 213.66 381.5C260.58 334.57 377.89 217.26 565.58 29.58C535.89 39.77 519.4 45.42 516.09 46.55Z" id="b4TSabEsi"></path><path d="M79.35 504.12L178.62 404.85L166.95 451.57L155.27 463.25L144.83 466.32L143.59 474.93L131.91 486.61L121.83 489.32L120.24 498.28L96.87 521.65L79.35 504.12Z" id="ivb266ea"></path><path d="M79.35 504.12L178.62 404.85L166.95 451.57L155.27 463.25L144.83 466.32L143.59 474.93L131.91 486.61L121.83 489.32L120.24 498.28L96.87 521.65L79.35 504.12Z" id="kgq1gPMyi"></path><path d="M178.63 439.89L196.14 422.37L172.78 399.01L155.27 416.53L153.33 425.83L143.59 428.21L131.9 439.89L130.71 448.45L120.23 451.56L108.55 463.25L106.21 472.95L96.87 474.92L73.51 498.28L85.19 509.96L166.95 428.21L178.63 439.89Z" id="b7jdyhCpO"></path><path d="M178.63 439.89L196.14 422.37L172.78 399.01L155.27 416.53L153.33 425.83L143.59 428.21L131.9 439.89L130.71 448.45L120.23 451.56L108.55 463.25L106.21 472.95L96.87 474.92L73.51 498.28L85.19 509.96L166.95 428.21L178.63 439.89Z" id="hgMX7eycl"></path><path d="M67.68 504.12C68.26 503.54 72.93 498.86 73.51 498.28C76.74 495.06 81.97 495.06 85.19 498.28C86.95 500.04 100.96 514.05 102.71 515.8C105.94 519.03 105.93 524.25 102.71 527.48C102.13 528.06 97.45 532.73 96.87 533.31C93.64 536.54 88.42 536.54 85.2 533.32C81.69 529.81 69.43 517.55 67.68 515.8C64.45 512.57 64.45 507.35 67.68 504.12Z" id="lq7SeewTd"></path><path d="M67.68 504.12C68.26 503.54 72.93 498.86 73.51 498.28C76.74 495.06 81.97 495.06 85.19 498.28C86.95 500.04 100.96 514.05 102.71 515.8C105.94 519.03 105.93 524.25 102.71 527.48C102.13 528.06 97.45 532.73 96.87 533.31C93.64 536.54 88.42 536.54 85.2 533.32C81.69 529.81 69.43 517.55 67.68 515.8C64.45 512.57 64.45 507.35 67.68 504.12Z" id="e2aHqzISwi"></path><path d="M143.59 334.78C146.82 331.55 152.04 331.55 155.27 334.79C158.49 338.01 158.5 343.24 155.27 346.46C148.83 352.9 148.83 363.38 155.27 369.82C162.27 376.82 218.33 432.88 225.34 439.89C231.78 446.32 242.25 446.32 248.7 439.88C251.92 436.66 257.15 436.67 260.37 439.89C263.6 443.12 263.6 448.34 260.38 451.56C247.49 464.45 226.54 464.45 213.66 451.57C199.64 437.56 150.59 388.5 143.59 381.5C130.7 368.61 130.71 347.66 143.59 334.78Z" id="dBa6PFdsx"></path><path d="M143.59 334.78C146.82 331.55 152.04 331.55 155.27 334.79C158.49 338.01 158.5 343.24 155.27 346.46C148.83 352.9 148.83 363.38 155.27 369.82C162.27 376.82 218.33 432.88 225.34 439.89C231.78 446.32 242.25 446.32 248.7 439.88C251.92 436.66 257.15 436.67 260.37 439.89C263.6 443.12 263.6 448.34 260.38 451.56C247.49 464.45 226.54 464.45 213.66 451.57C199.64 437.56 150.59 388.5 143.59 381.5C130.7 368.61 130.71 347.66 143.59 334.78Z" id="bgqezL6JZ"></path><path d="M79.35 504.12C79.74 503.73 81.69 501.78 85.19 498.28C81.69 494.78 79.74 492.83 79.35 492.44C76.13 489.22 70.9 489.22 67.68 492.45C66.51 493.62 57.17 502.96 56 504.12C52.78 507.35 52.77 512.57 56 515.8C58.34 518.14 77.02 536.82 79.36 539.16C82.58 542.38 87.81 542.38 91.03 539.15C91.42 538.76 93.37 536.82 96.87 533.31C87.53 523.97 81.69 518.13 79.36 515.8C76.13 512.57 76.13 507.35 79.35 504.12Z" id="i6qZph2eD"></path><path d="M79.35 504.12C79.74 503.73 81.69 501.78 85.19 498.28C81.69 494.78 79.74 492.83 79.35 492.44C76.13 489.22 70.9 489.22 67.68 492.45C66.51 493.62 57.17 502.96 56 504.12C52.78 507.35 52.77 512.57 56 515.8C58.34 518.14 77.02 536.82 79.36 539.16C82.58 542.38 87.81 542.38 91.03 539.15C91.42 538.76 93.37 536.82 96.87 533.31C87.53 523.97 81.69 518.13 79.36 515.8C76.13 512.57 76.13 507.35 79.35 504.12Z" id="a15gKVCZJ7"></path><path d="M178.66 439.83L166.98 451.51L143.62 428.16L155.3 416.48L178.66 439.83Z" id="aGFkyfo8j"></path><path d="M178.66 439.83L166.98 451.51L143.62 428.16L155.3 416.48L178.66 439.83Z" id="al0gKuLwN"></path><path d="M166.98 428.15L155.29 439.83L143.62 428.16L155.3 416.48L166.98 428.15Z" id="c34aO3thVq"></path><path d="M166.98 428.15L155.29 439.83L143.62 428.16L155.3 416.48L166.98 428.15Z" id="d6iddJ65hw"></path><path d="M155.3 463.19L143.62 474.87L120.26 451.51L131.95 439.83L155.3 463.19Z" id="c8QGzVJCo"></path><path d="M155.3 463.19L143.62 474.87L120.26 451.51L131.95 439.83L155.3 463.19Z" id="l407PdpqhD"></path><path d="M143.63 451.51L131.95 463.2L120.26 451.51L131.95 439.83L143.63 451.51Z" id="b2k1MEldsZ"></path><path d="M143.63 451.51L131.95 463.2L120.26 451.51L131.95 439.83L143.63 451.51Z" id="ewr42KMtg"></path><path d="M131.95 486.54L120.27 498.22L96.92 474.87L108.6 463.2L131.95 486.54Z" id="b1vidCJio9"></path><path d="M131.95 486.54L120.27 498.22L96.92 474.87L108.6 463.2L131.95 486.54Z" id="f35aSreG59"></path><path d="M120.27 474.87L108.59 486.55L96.92 474.88L108.6 463.2L120.27 474.87Z" id="a1xZI5RWF4"></path><path d="M120.27 474.87L108.59 486.55L96.92 474.88L108.6 463.2L120.27 474.87Z" id="bac2UugFt7"></path></defs><g><g><g><use xlink:href="#cwn3mxtd" opacity="1" fill="#ffdaaa" fill-opacity="1"></use><g><use xlink:href="#cwn3mxtd" opacity="1" fill-opacity="0" stroke="#0c0808" stroke-width="8" stroke-opacity="1"></use></g></g><g><use xlink:href="#f3qEFQFBm4" opacity="1" fill="#edc794" fill-opacity="1"></use><g><use xlink:href="#f3qEFQFBm4" opacity="1" fill-opacity="0" stroke="#000000" stroke-width="1" stroke-opacity="0"></use></g></g><g><use xlink:href="#c14Ea25c2u" opacity="1" fill="#ffdaaa" fill-opacity="1"></use><g><use xlink:href="#c14Ea25c2u" opacity="1" fill-opacity="0" stroke="#000000" stroke-width="1" stroke-opacity="0"></use></g></g><g><use xlink:href="#b1VIomFZC" opacity="1" fill="#3e3d42" fill-opacity="1"></use><g><use xlink:href="#b1VIomFZC" opacity="1" fill-opacity="0" stroke="#000000" stroke-width="1" stroke-opacity="0"></use></g></g><g><use xlink:href="#a9NnAXDdQf" opacity="1" fill="#3e3d42" fill-opacity="1"></use><g><use xlink:href="#a9NnAXDdQf" opacity="1" fill-opacity="0" stroke="#000000" stroke-width="1" stroke-opacity="0"></use></g></g><g><use xlink:href="#e1WoOhQcy" opacity="1" fill="#ffdaaa" fill-opacity="1"></use><g><use xlink:href="#e1WoOhQcy" opacity="1" fill-opacity="0" stroke="#000000" stroke-width="1" stroke-opacity="0"></use></g></g><g><use xlink:href="#cjotIefR5" opacity="1" fill="#000000" fill-opacity="1"></use><g><use xlink:href="#cjotIefR5" opacity="1" fill-opacity="0" stroke="#000000" stroke-width="1" stroke-opacity="0"></use></g></g><g><use xlink:href="#b25GUtWxCh" opacity="1" fill="#000000" fill-opacity="1"></use><g><use xlink:href="#b25GUtWxCh" opacity="1" fill-opacity="0" stroke="#000000" stroke-width="1" stroke-opacity="0"></use></g></g><g><use xlink:href="#n54Rw3zId6" opacity="1" fill="#000000" fill-opacity="1"></use><g><use xlink:href="#n54Rw3zId6" opacity="1" fill-opacity="0" stroke="#000000" stroke-width="1" stroke-opacity="0"></use></g></g><g><use xlink:href="#b3MpXRTjZo" opacity="1" fill="#000000" fill-opacity="1"></use><g><use xlink:href="#b3MpXRTjZo" opacity="1" fill-opacity="0" stroke="#000000" stroke-width="1" stroke-opacity="0"></use></g></g><g><use xlink:href="#b161oSrLMq" opacity="1" fill="#ffdaaa" fill-opacity="1"></use><g><use xlink:href="#b161oSrLMq" opacity="1" fill-opacity="0" stroke="#000000" stroke-width="9" stroke-opacity="1"></use></g></g><g><use xlink:href="#almC748L" opacity="1" fill="#edc794" fill-opacity="1"></use><g><use xlink:href="#almC748L" opacity="1" fill-opacity="0" stroke="#000000" stroke-width="1" stroke-opacity="0"></use></g></g><g><use xlink:href="#a3QNoADHl" opacity="1" fill="#eceaec" fill-opacity="1"></use><g><use xlink:href="#a3QNoADHl" opacity="1" fill-opacity="0" stroke="#000000" stroke-width="1" stroke-opacity="0"></use></g></g><g><use xlink:href="#b4mcweDHI" opacity="1" fill="#000000" fill-opacity="0"></use><g><use xlink:href="#b4mcweDHI" opacity="1" fill-opacity="0" stroke="#000000" stroke-width="1" stroke-opacity="0"></use></g></g><g><use xlink:href="#c1lCXmyvLJ" opacity="1" fill="#dad8db" fill-opacity="1"></use><g><use xlink:href="#c1lCXmyvLJ" opacity="1" fill-opacity="0" stroke="#000000" stroke-width="1" stroke-opacity="0"></use></g></g><g><use xlink:href="#b4TSabEsi" opacity="1" fill="#000000" fill-opacity="0"></use><g><use xlink:href="#b4TSabEsi" opacity="1" fill-opacity="0" stroke="#000000" stroke-width="1" stroke-opacity="0"></use></g></g><g><use xlink:href="#ivb266ea" opacity="1" fill="#c38c66" fill-opacity="1"></use><g><use xlink:href="#ivb266ea" opacity="1" fill-opacity="0" stroke="#000000" stroke-width="1" stroke-opacity="0"></use></g></g><g><use xlink:href="#kgq1gPMyi" opacity="1" fill="#000000" fill-opacity="0"></use><g><use xlink:href="#kgq1gPMyi" opacity="1" fill-opacity="0" stroke="#000000" stroke-width="1" stroke-opacity="0"></use></g></g><g><use xlink:href="#b7jdyhCpO" opacity="1" fill="#b57f5f" fill-opacity="1"></use><g><use xlink:href="#b7jdyhCpO" opacity="1" fill-opacity="0" stroke="#000000" stroke-width="1" stroke-opacity="0"></use></g></g><g><use xlink:href="#hgMX7eycl" opacity="1" fill="#000000" fill-opacity="0"></use><g><use xlink:href="#hgMX7eycl" opacity="1" fill-opacity="0" stroke="#000000" stroke-width="1" stroke-opacity="0"></use></g></g><g><use xlink:href="#lq7SeewTd" opacity="1" fill="#ffe09f" fill-opacity="1"></use><g><use xlink:href="#lq7SeewTd" opacity="1" fill-opacity="0" stroke="#000000" stroke-width="1" stroke-opacity="0"></use></g></g><g><use xlink:href="#e2aHqzISwi" opacity="1" fill="#000000" fill-opacity="0"></use><g><use xlink:href="#e2aHqzISwi" opacity="1" fill-opacity="0" stroke="#000000" stroke-width="1" stroke-opacity="0"></use></g></g><g><use xlink:href="#dBa6PFdsx" opacity="1" fill="#f6d190" fill-opacity="1"></use><g><use xlink:href="#dBa6PFdsx" opacity="1" fill-opacity="0" stroke="#000000" stroke-width="1" stroke-opacity="0"></use></g></g><g><use xlink:href="#bgqezL6JZ" opacity="1" fill="#000000" fill-opacity="0"></use><g><use xlink:href="#bgqezL6JZ" opacity="1" fill-opacity="0" stroke="#000000" stroke-width="1" stroke-opacity="0"></use></g></g><g><use xlink:href="#i6qZph2eD" opacity="1" fill="#f6d190" fill-opacity="1"></use><g><use xlink:href="#i6qZph2eD" opacity="1" fill-opacity="0" stroke="#000000" stroke-width="1" stroke-opacity="0"></use></g></g><g><use xlink:href="#a15gKVCZJ7" opacity="1" fill="#000000" fill-opacity="0"></use><g><use xlink:href="#a15gKVCZJ7" opacity="1" fill-opacity="0" stroke="#000000" stroke-width="1" stroke-opacity="0"></use></g></g><g><use xlink:href="#aGFkyfo8j" opacity="1" fill="#e2a975" fill-opacity="1"></use><g><use xlink:href="#aGFkyfo8j" opacity="1" fill-opacity="0" stroke="#000000" stroke-width="1" stroke-opacity="0"></use></g></g><g><use xlink:href="#al0gKuLwN" opacity="1" fill="#000000" fill-opacity="0"></use><g><use xlink:href="#al0gKuLwN" opacity="1" fill-opacity="0" stroke="#000000" stroke-width="1" stroke-opacity="0"></use></g></g><g><use xlink:href="#c34aO3thVq" opacity="1" fill="#c38c66" fill-opacity="1"></use><g><use xlink:href="#c34aO3thVq" opacity="1" fill-opacity="0" stroke="#000000" stroke-width="1" stroke-opacity="0"></use></g></g><g><use xlink:href="#d6iddJ65hw" opacity="1" fill="#000000" fill-opacity="0"></use><g><use xlink:href="#d6iddJ65hw" opacity="1" fill-opacity="0" stroke="#000000" stroke-width="1" stroke-opacity="0"></use></g></g><g><use xlink:href="#c8QGzVJCo" opacity="1" fill="#e2a975" fill-opacity="1"></use><g><use xlink:href="#c8QGzVJCo" opacity="1" fill-opacity="0" stroke="#000000" stroke-width="1" stroke-opacity="0"></use></g></g><g><use xlink:href="#l407PdpqhD" opacity="1" fill="#000000" fill-opacity="0"></use><g><use xlink:href="#l407PdpqhD" opacity="1" fill-opacity="0" stroke="#000000" stroke-width="1" stroke-opacity="0"></use></g></g><g><use xlink:href="#b2k1MEldsZ" opacity="1" fill="#c38c66" fill-opacity="1"></use><g><use xlink:href="#b2k1MEldsZ" opacity="1" fill-opacity="0" stroke="#000000" stroke-width="1" stroke-opacity="0"></use></g></g><g><use xlink:href="#ewr42KMtg" opacity="1" fill="#000000" fill-opacity="0"></use><g><use xlink:href="#ewr42KMtg" opacity="1" fill-opacity="0" stroke="#000000" stroke-width="1" stroke-opacity="0"></use></g></g><g><use xlink:href="#b1vidCJio9" opacity="1" fill="#e2a975" fill-opacity="1"></use><g><use xlink:href="#b1vidCJio9" opacity="1" fill-opacity="0" stroke="#000000" stroke-width="1" stroke-opacity="0"></use></g></g><g><use xlink:href="#f35aSreG59" opacity="1" fill="#000000" fill-opacity="0"></use><g><use xlink:href="#f35aSreG59" opacity="1" fill-opacity="0" stroke="#000000" stroke-width="1" stroke-opacity="0"></use></g></g><g><use xlink:href="#a1xZI5RWF4" opacity="1" fill="#c38c66" fill-opacity="1"></use><g><use xlink:href="#a1xZI5RWF4" opacity="1" fill-opacity="0" stroke="#000000" stroke-width="1" stroke-opacity="0"></use></g></g><g><use xlink:href="#bac2UugFt7" opacity="1" fill="#000000" fill-opacity="0"></use><g><use xlink:href="#bac2UugFt7" opacity="1" fill-opacity="0" stroke="#000000" stroke-width="1" stroke-opacity="0"></use></g></g></g></g></svg>