<?xml version="1.0" encoding="UTF-8" standalone="no"?>
<!DOCTYPE svg PUBLIC "-//W3C//DTD SVG 1.1//EN" "http://www.w3.org/Graphics/SVG/1.1/DTD/svg11.dtd">
<svg version="1.1" xmlns="http://www.w3.org/2000/svg" xmlns:xlink="http://www.w3.org/1999/xlink" preserveAspectRatio="xMidYMid meet" viewBox="0 0 640 640" width="640" height="640"><defs><path d="M26.11 512.04C45.96 378.01 56.99 303.55 59.2 288.66C59.51 286.53 60.8 284.7 62.64 283.78C65.89 282.14 82.16 273.95 111.46 259.2C128.94 178.67 138.66 133.93 140.6 124.98C141.11 122.65 142.78 120.8 144.95 120.16C153.03 117.79 217.71 98.77 225.8 96.39C226.44 96.2 227.06 95.9 227.61 95.5C236.58 89.02 308.33 37.2 317.3 30.72C319.15 29.38 321.53 29.22 323.53 30.29C337.91 38.03 452.97 99.92 467.36 107.66C468.56 108.3 469.53 109.35 470.11 110.64C476.41 124.5 526.8 235.39 533.1 249.25C533.48 250.08 534.02 250.82 534.7 251.42C540.95 256.96 590.97 301.26 597.22 306.8C598.4 307.84 599.17 309.31 599.38 310.93C601.88 330.3 621.92 485.26 624.43 504.63C624.93 508.55 622.07 512.04 618.34 512.04C539.38 512.04 341.97 512.04 26.11 512.04Z" id="amMqD6L07"></path><path d="M510.95 266.27C511.33 267.11 511.88 267.85 512.55 268.44C518.8 273.98 568.83 318.29 575.08 323.82C576.26 324.86 577.02 326.34 577.23 327.95C578.82 340.22 586.75 401.59 601.04 512.04C611.42 512.04 617.19 512.04 618.34 512.04C622.07 512.04 624.93 508.55 624.43 504.63C621.92 485.26 601.88 330.29 599.38 310.92C599.17 309.31 598.4 307.84 597.23 306.8C590.97 301.26 540.95 256.95 534.7 251.42C534.03 250.82 533.48 250.08 533.1 249.24C526.8 235.38 476.41 124.5 470.11 110.64C469.53 109.35 468.56 108.3 467.36 107.66C452.97 99.92 337.91 38.03 323.53 30.29C321.54 29.22 319.15 29.38 317.3 30.72C315.97 31.68 309.32 36.49 297.34 45.14C386.06 92.87 435.35 119.38 445.21 124.68C446.41 125.33 447.38 126.38 447.97 127.67C460.56 155.39 504.65 252.41 510.95 266.27Z" id="b3t0wGXIm"></path><path d="M114.57 539.6C82.3 548.74 64.38 553.82 60.79 554.84C59.44 555.22 58.02 555.11 56.74 554.51C52.99 552.76 22.94 538.74 19.19 536.99C16.75 535.85 15.28 533.16 15.55 530.35C16.06 525.07 20.14 482.86 20.65 477.58C20.84 475.68 21.8 473.95 23.29 472.87C26.55 470.49 52.7 451.43 55.97 449.05C57.38 448.02 59.12 447.67 60.79 448.06C64.09 448.85 80.6 452.79 110.31 459.88L136.48 501.44L114.57 539.6Z" id="b7BR7zkwbG"></path><path d="M114.57 539.6C82.3 548.74 64.38 553.82 60.79 554.84C59.44 555.22 58.02 555.11 56.74 554.51C52.99 552.76 22.94 538.74 19.19 536.99C16.75 535.85 15.28 533.16 15.55 530.35C16.06 525.07 20.14 482.86 20.65 477.58C20.84 475.68 21.8 473.95 23.29 472.87C26.55 470.49 52.7 451.43 55.97 449.05C57.38 448.02 59.12 447.67 60.79 448.06C64.09 448.85 80.6 452.79 110.31 459.88L136.48 501.44L114.57 539.6Z" id="bd81vnhXq"></path><path d="M110.31 459.88L84.25 453.66L111.42 496.8L89.38 546.74L114.57 539.6L136.48 501.44L110.31 459.88Z" id="a1uok5QYdk"></path><path d="M468.37 540.86C516.8 540.86 543.71 540.86 549.09 540.86C549.62 540.86 550.15 540.93 550.67 541.08C555.43 542.42 593.57 553.2 598.34 554.54C600.3 555.1 602.4 554.58 603.94 553.17C605.75 551.5 620.26 538.13 622.08 536.46C624.06 534.63 624.73 531.68 623.75 529.09C622.22 525.05 609.98 492.66 608.45 488.61C608.05 487.57 607.41 486.65 606.59 485.95C602.87 482.78 573.12 457.46 569.41 454.29C568.32 453.36 566.96 452.86 565.57 452.86C564.14 452.86 557 452.86 544.16 452.86C529.11 444.86 520.74 440.42 519.07 439.53C516.59 438.21 513.58 438.82 511.74 441.03C508.54 444.86 492.54 464.01 463.74 498.48L468.37 540.86Z" id="e34dJO5Ivv"></path><path d="M588.19 497.6L607.84 549.57C616.38 541.7 621.13 537.33 622.08 536.46C624.06 534.63 624.73 531.68 623.75 529.09C622.22 525.05 609.98 492.66 608.45 488.61C608.05 487.57 607.41 486.65 606.59 485.95C602.87 482.78 573.12 457.46 569.4 454.29C568.31 453.36 566.96 452.86 565.57 452.86C564.14 452.86 557 452.86 544.16 452.86L521.47 440.81L588.19 497.6Z" id="cjIQic3o"></path><path d="M469 561.17C433.33 561.17 413.52 561.17 409.55 561.17C405.7 561.17 402.8 557.44 403.52 553.41C403.92 551.23 407.06 533.8 407.45 531.63C407.71 530.15 408.45 528.82 409.53 527.86C413.4 524.4 444.42 496.69 448.29 493.23C450.38 491.37 453.36 491.18 455.63 492.78C457.46 494.07 466.58 500.49 483.01 512.04C486.68 530.62 488.72 540.94 489.13 543.01C489.66 545.71 488.54 548.48 486.32 549.92C484.01 551.42 478.24 555.17 469 561.17Z" id="c2UiT3ylzt"></path><path d="M470.39 560.26C479.95 554.05 485.26 550.61 486.32 549.92C488.54 548.48 489.67 545.71 489.13 543.01C488.72 540.94 486.69 530.62 483.02 512.04L457.3 493.95L470.39 560.26Z" id="c2dJmb5X2Q"></path><path d="M133.72 547.52L194.89 547.52C203.82 541.02 208.78 537.42 209.77 536.69C212.68 534.58 213.32 530.32 211.19 527.35C209.3 524.72 194.17 503.64 192.28 501C191.55 499.99 190.57 499.23 189.45 498.81C186.6 497.73 163.83 489.15 160.98 488.07C159.22 487.41 157.26 487.63 155.67 488.69C153.57 490.08 143.06 497.07 124.14 509.63L114.57 539.6L133.72 547.52Z" id="bgsmrxBJn"></path><path d="M177.43 513.87L199.28 544.32C205.58 539.75 209.08 537.2 209.78 536.7C212.68 534.59 213.32 530.32 211.19 527.35C209.3 524.72 194.17 503.64 192.28 501C191.56 499.99 190.57 499.23 189.45 498.81C186.6 497.74 163.83 489.15 160.98 488.07C159.22 487.41 157.26 487.63 155.67 488.69C154.59 489.41 149.15 493.02 139.37 499.52L177.43 513.87Z" id="d4XY3vGRh"></path><path d="M335.97 411.68C334.12 411.2 332.67 409.74 332.19 407.89C331.72 406.03 332.29 404.06 333.68 402.75C337.85 398.78 344.39 398.78 348.55 402.75C350.05 404.25 350.5 406.52 349.69 408.48C348.87 410.44 346.95 411.73 344.83 411.72C343.43 411.72 342.09 411.17 341.11 410.18C339.8 411.58 337.83 412.15 335.97 411.68Z" id="d3i1Oe3IQJ"></path><path d="M353.87 240.49C353.2 239.92 352.35 239.63 351.48 239.65C345.1 239.84 294.11 241.34 287.73 241.53C286.72 241.56 285.78 242.02 285.12 242.79C281.63 246.93 264.16 267.64 232.71 304.9C257.67 358.25 271.54 387.89 274.31 393.82C274.88 395.03 276.33 395.53 277.52 394.93C289.28 389.02 383.35 341.74 395.11 335.83C395.47 335.64 395.79 335.36 396.02 335.02C398.41 331.41 417.53 302.57 419.92 298.97C420.59 297.96 420.39 296.62 419.47 295.85C419.47 295.85 360.43 246.02 353.87 240.49Z" id="bRkZurIH5"></path><path d="M407.11 285.41C392.11 308.02 383.78 320.59 382.12 323.1C381.84 323.52 381.45 323.87 380.99 324.1C373.49 327.92 335.99 347.01 268.49 381.38C271.98 388.84 273.92 392.99 274.31 393.82C274.88 395.03 276.33 395.53 277.52 394.93C289.28 389.02 383.35 341.74 395.11 335.83C395.47 335.64 395.79 335.36 396.02 335.02C398.41 331.41 417.53 302.57 419.92 298.97C420.59 297.96 420.39 296.62 419.47 295.85C419.47 295.85 415.35 292.37 407.11 285.41Z" id="a3TbyR1qsB"></path><path d="M371.57 542.89C371.96 542.08 372.76 541.56 373.66 541.54C380.1 541.39 431.6 540.2 438.04 540.06C439.88 540.01 441.07 542.01 440.14 543.61C437.01 549.03 411.95 592.45 408.81 597.87C408.36 598.65 407.7 599.29 406.89 599.71C402.2 602.15 364.61 621.67 359.91 624.11C359.19 624.49 358.33 624.47 357.63 624.06C356.34 623.32 349.88 619.59 338.26 612.88C358.25 570.88 369.35 547.55 371.57 542.89Z" id="a56GvrIaB7"></path><path d="M420.84 540.45L392.28 589.92L342.92 615.57C351.75 620.66 356.65 623.5 357.63 624.06C358.33 624.47 359.19 624.49 359.91 624.11C364.61 621.67 402.2 602.15 406.9 599.71C407.7 599.29 408.36 598.65 408.81 597.87C411.95 592.45 437.01 549.03 440.14 543.61C441.07 542.01 439.89 540.01 438.04 540.06C435.75 540.11 430.01 540.24 420.84 540.45Z" id="a3Yg2AdBcH"></path><path d="M207.38 506.77C215.59 498.56 228.88 498.55 237.09 506.76C245.29 514.97 245.29 528.27 237.09 536.49C228.88 544.69 215.59 544.69 207.38 536.48C199.18 528.28 199.18 514.97 207.38 506.77Z" id="ggrFsa5QE"></path><path d="M403.17 439.88L403.06 439.77" id="b2Y3KwgPmU"></path><path d="M250.27 434.02C250.64 434.61 250.72 435.34 250.5 436C247.04 446.3 219.38 528.67 215.92 538.97C215.44 540.39 213.79 541.01 212.49 540.26C205.91 536.46 153.25 506.06 146.67 502.26C145.91 501.82 145.46 501.01 145.48 500.14C145.65 494.67 147.02 450.93 147.19 445.46C147.21 445.07 147.31 444.69 147.51 444.35C152.61 435.51 193.44 364.8 198.54 355.96C199.44 354.4 201.68 354.37 202.62 355.91C202.62 355.91 245.51 426.2 250.27 434.02Z" id="b1bMzkohPB"></path><path d="M202.62 355.91C201.68 354.37 199.44 354.4 198.54 355.96C198.02 356.87 195.4 361.41 190.67 369.59L230.13 434.26L199.15 532.57C207.16 537.18 211.6 539.75 212.49 540.26C213.79 541.01 215.44 540.39 215.92 538.97C219.38 528.67 247.04 446.3 250.5 436C250.72 435.34 250.64 434.61 250.27 434.02C240.74 418.39 207.38 363.72 202.62 355.91Z" id="b1yDHkGodo"></path><path d="M403.17 439.88L403.06 439.77" id="f2maOr99Xk"></path><path d="M499.63 304.22C501.83 302.33 503.19 299.62 503.35 296.71C503.61 291.96 505.67 254.01 505.93 249.27C506.09 246.22 504.96 243.25 502.8 241.1C500.65 238.94 497.68 237.81 494.63 237.97C489.89 238.23 451.94 240.24 447.19 240.49C444.26 240.66 441.52 242.03 439.63 244.28C295.47 417.13 340.14 363.71 331.03 374.52C338.69 382.18 361.67 405.16 369.33 412.82C373.01 409.83 395.35 391.17 499.63 304.22Z" id="d3qax2TNJl"></path><path d="M499.63 304.22C501.83 302.33 503.19 299.62 503.35 296.71C503.61 291.96 505.67 254.01 505.93 249.27C506.09 246.22 504.96 243.25 502.8 241.1C500.65 238.94 497.68 237.81 494.63 237.97C489.89 238.23 451.94 240.24 447.19 240.49C444.26 240.66 441.52 242.03 439.63 244.28C295.47 417.13 340.14 363.71 331.03 374.52C338.69 382.18 361.67 405.16 369.33 412.82C373.01 409.83 395.35 391.17 499.63 304.22Z" id="e8bLhsvtu"></path><path d="M499.63 304.22C396.04 390.59 372.97 409.85 369.33 412.82C369.33 410.27 369.33 397.5 369.33 374.52C449.4 294.45 493.88 249.97 502.78 241.07C504.96 243.22 506.11 246.21 505.93 249.27C505.93 249.27 503.61 291.96 503.35 296.71C503.19 299.62 501.83 302.33 499.63 304.22Z" id="a72EXHQgi"></path><path d="M276.53 463.38C277.26 461.99 279.13 461.68 280.27 462.78C287.19 469.43 342.53 522.68 349.44 529.34C350.12 529.99 350.35 530.98 350.02 531.86C347.57 538.57 327.9 592.25 325.44 598.96C324.93 600.34 323.31 600.93 322.03 600.2C313.22 595.11 242.74 554.42 233.93 549.33C232.83 548.7 232.43 547.31 233.02 546.18C241.72 529.62 272.18 471.66 276.53 463.38Z" id="e2ciBch0Hg"></path><path d="M280.27 462.78C279.13 461.68 277.26 461.99 276.53 463.38C276.25 463.92 274.83 466.62 272.27 471.49L331.28 530.63L308.63 592.46C316.67 597.1 321.14 599.68 322.03 600.2C323.31 600.93 324.93 600.34 325.44 598.96C327.9 592.25 347.57 538.57 350.02 531.86C350.35 530.98 350.12 529.99 349.44 529.34C335.61 516.02 287.19 469.43 280.27 462.78Z" id="efphhoKgm"></path><path d="M499.63 304.22C396.04 390.59 372.97 409.85 369.33 412.82C369.33 410.27 369.33 397.5 369.33 374.52C449.4 294.45 493.88 249.97 502.78 241.07C504.96 243.22 506.11 246.21 505.93 249.27C505.93 249.27 503.61 291.96 503.35 296.71C503.19 299.62 501.83 302.33 499.63 304.22Z" id="b1PrsZnlVy"></path><path d="M270.51 451.01L284.52 459.77L292.84 473.34L242.56 516.37L227.48 501.29L270.51 451.01Z" id="gSmS2Y4SV"></path><path d="M207.38 506.77C215.59 498.56 228.88 498.55 237.09 506.76C245.29 514.97 245.29 528.27 237.09 536.49C228.88 544.69 215.59 544.69 207.38 536.48C199.18 528.28 199.18 514.97 207.38 506.77Z" id="a7vnxZn1c"></path><path d="M220.06 508.94C224.17 504.84 230.81 504.83 234.92 508.93C239.02 513.04 239.02 519.7 234.92 523.8C230.81 527.9 224.17 527.9 220.06 523.8C215.96 519.69 215.96 513.04 220.06 508.94Z" id="bexg1reeE"></path><path d="M220.06 508.94C224.17 504.84 230.81 504.83 234.92 508.93C239.02 513.04 239.02 519.7 234.92 523.8C230.81 527.9 224.17 527.9 220.06 523.8C215.96 519.69 215.96 513.04 220.06 508.94Z" id="d3rvpuAgrC"></path><path d="M440.3 355.48C440.05 355.83 439.71 356.1 439.32 356.27C426.99 361.7 328.39 405.07 316.07 410.49C314.69 411.1 314.22 412.82 315.1 414.04C321.41 422.81 371.89 492.99 378.2 501.76C378.67 502.41 379.34 502.88 380.11 503.1C387.58 505.24 447.35 522.36 454.82 524.5C456.06 524.86 457.39 524.51 458.31 523.6C465.24 516.67 520.7 461.2 527.64 454.27C528.27 453.64 528.64 452.8 528.67 451.91C528.98 444.81 531.39 388.04 531.69 380.94C531.73 379.95 531.36 378.99 530.65 378.28C524.62 372.25 476.39 324.02 470.36 317.99C469.33 316.96 467.61 317.1 466.76 318.3C466.76 318.3 442.94 351.76 440.3 355.48Z" id="b16rx98SkK"></path><path d="M369.33 412.82C349.46 429.38 360.09 420.51 319.05 454.74C317.5 454.3 309.74 452.08 295.78 448.07C295.34 446.52 293.11 438.76 289.11 424.8L331.03 374.52L369.33 374.52C369.33 398.35 369.33 411.12 369.33 412.82Z" id="a2R1LXjVAW"></path><path d="M300.25 436.19C303.6 432.84 330.34 406.1 333.68 402.75C331.64 400.7 331.64 397.38 333.68 395.33C339.99 389.02 349.07 402.23 341.11 410.19C337.77 413.53 311.03 440.27 307.68 443.62C306.7 444.6 305.36 445.15 303.97 445.16C301.84 445.15 299.93 443.88 299.12 441.91C298.31 439.95 298.75 437.69 300.25 436.19Z" id="l5ZFkK6Wmd"></path><path d="M300.25 436.19C303.6 432.84 330.34 406.1 333.68 402.75C331.64 400.7 331.64 397.38 333.68 395.33C339.99 389.02 349.07 402.23 341.11 410.19C337.77 413.53 311.03 440.27 307.68 443.62C306.7 444.6 305.36 445.15 303.97 445.16C301.84 445.15 299.93 443.88 299.12 441.91C298.31 439.95 298.75 437.69 300.25 436.19Z" id="e3D8DaiH1q"></path><path d="M335.97 411.68C334.12 411.2 332.67 409.74 332.19 407.89C331.72 406.03 332.29 404.06 333.68 402.75C337.85 398.78 344.39 398.78 348.55 402.75C350.05 404.25 350.5 406.52 349.69 408.48C348.87 410.44 346.95 411.73 344.83 411.72C343.43 411.72 342.09 411.17 341.11 410.18C339.8 411.58 337.83 412.15 335.97 411.68Z" id="a2va0ak6iu"></path><path d="M524.98 370.01C523.13 413.5 522.1 437.66 521.9 442.49C521.86 443.4 521.47 444.26 520.82 444.9C514.13 451.36 460.65 503.03 453.97 509.49C453.08 510.35 451.81 510.68 450.62 510.37C445.49 509.05 419.86 502.45 373.74 490.56C380.11 499.41 383.65 504.33 384.36 505.32C384.82 505.97 385.49 506.44 386.26 506.66C393.73 508.8 453.5 525.92 460.97 528.06C462.21 528.41 463.55 528.07 464.46 527.15C471.4 520.22 526.86 464.76 533.79 457.82C534.42 457.2 534.79 456.35 534.83 455.46C535.13 448.37 537.55 391.6 537.85 384.5C537.89 383.51 537.51 382.54 536.81 381.84C536.81 381.84 532.87 377.89 524.98 370.01Z" id="hsM1zs0xR"></path><path d="M319.37 499.87C311.46 491.97 248.21 428.71 240.3 420.8C232.11 412.59 232.11 399.29 240.3 391.07C240.67 390.7 243.66 387.76 244.03 387.39C245 386.38 246.34 385.82 247.73 385.82C249.13 385.82 250.47 386.38 251.44 387.39C261.57 397.52 342.65 478.6 352.78 488.74C354.48 490.44 354.81 493.08 353.57 495.15C353.18 495.83 353 495.93 349.05 499.88C340.85 508.06 327.57 508.06 319.37 499.87Z" id="d6XAQ3G4"></path><path d="M319.37 499.87C311.46 491.97 248.21 428.71 240.3 420.8C232.11 412.59 232.11 399.29 240.3 391.07C240.67 390.7 243.66 387.76 244.03 387.39C245 386.38 246.34 385.82 247.73 385.82C249.13 385.82 250.47 386.38 251.44 387.39C261.57 397.52 342.65 478.6 352.78 488.74C354.48 490.44 354.81 493.08 353.57 495.15C353.18 495.83 353 495.93 349.05 499.88C340.85 508.06 327.57 508.06 319.37 499.87Z" id="c60arcbdL3"></path><path d="M369.33 412.82C349.46 429.38 360.09 420.51 319.05 454.74C317.5 454.3 309.74 452.08 295.78 448.07C295.34 446.52 293.11 438.76 289.11 424.8L331.03 374.52L369.33 374.52C369.33 398.35 369.33 411.12 369.33 412.82Z" id="brK69QoRg"></path><path d="M270.51 451.01L284.52 459.77L292.84 473.34L242.56 516.37L227.48 501.29L270.51 451.01Z" id="b2zCCUdbO"></path><path d="M255.57 256.73L229.24 190.9L183.16 151.41L190.78 82.29L170 26.33L341.15 26.33L332.59 67.1L296.2 111.91L291.5 177.74L255.57 256.73Z" id="cmzhfudq8"></path><path d="M281.9 105.33L290.22 26.33L170 26.33L190.78 82.29L183.16 151.41L229.24 190.9L255.57 138.24L281.9 105.33Z" id="g6vfcgo60"></path><path d="M341.15 26.33L308.24 26.33L295.07 111.91L296.2 111.91L332.59 67.1L341.15 26.33Z" id="b3kt8ycGZr"></path><path d="M48.21 230.4L18.59 151.41L25.17 105.33L-7.74 72.41L-14.32 26.33L137.08 26.33L110.75 125.07L65.12 167.06L48.21 230.4Z" id="aF86XucnX"></path><path d="M-27.49 0L354.32 0L354.32 26.33L-27.49 26.33L-27.49 0Z" id="eumBwYyQJ"></path><path d="M163.41 329.14L141.47 223.82L93.21 168.73L97.58 111.91L60.46 70.04L58.09 26.33L268.74 26.33L262.16 98.74L216.08 151.41L196.33 250.15L163.41 329.14Z" id="e1HNY03mgt"></path><path d="M348.95 603.4L317.46 567.87L292 561.17L242.41 568.52L286.63 607.4L348.95 603.4Z" id="agjGNrT8A"></path><path d="M348.95 603.4L317.46 567.87L292 561.17L242.41 568.52L301.38 577.25L348.95 603.4Z" id="b1iYmA5WUD"></path><path d="M248.99 289.65L229.24 342.31L255.57 368.64L268.74 315.98L248.99 289.65Z" id="b1qfNicK8V"></path><path d="M262.16 98.74L216.18 151.41L196.33 111.91L196.33 26.33L268.74 26.33L262.16 98.74Z" id="aeYxjk55n"></path><path d="M-7.74 72.41L25.17 105.33L38.34 26.33L-14.32 26.33L-7.74 72.41Z" id="g1Dfqr8FJh"></path><path d="M117.33 159.19L117.33 83.39L156.83 26.33L58.09 26.33L60.46 70.04L97.58 111.91L93.21 168.73L141.47 223.82L163.41 329.14L163.41 204.07L117.33 159.19Z" id="b223KimuyA"></path><path d="M202.91 32.91L137.08 46.08L150.25 26.33L202.91 26.33L202.91 32.91Z" id="d14A9RG6IV"></path><path d="M248.99 289.65L229.24 342.31L255.57 368.64L242.41 342.31L248.99 289.65Z" id="a5AEYSmo8"></path></defs><g><g><g><use xlink:href="#amMqD6L07" opacity="1" fill="#a0a0a0" fill-opacity="1"></use><g><use xlink:href="#amMqD6L07" opacity="1" fill-opacity="0" stroke="#000000" stroke-width="1" stroke-opacity="0"></use></g></g><g><use xlink:href="#b3t0wGXIm" opacity="1" fill="#8e8e8e" fill-opacity="1"></use><g><use xlink:href="#b3t0wGXIm" opacity="1" fill-opacity="0" stroke="#000000" stroke-width="1" stroke-opacity="0"></use></g></g><g><use xlink:href="#b7BR7zkwbG" opacity="1" fill="#e0e0e0" fill-opacity="1"></use><g><use xlink:href="#b7BR7zkwbG" opacity="1" fill-opacity="0" stroke="#000000" stroke-width="1" stroke-opacity="0"></use></g></g><g><use xlink:href="#bd81vnhXq" opacity="1" fill="#e0e0e0" fill-opacity="1"></use><g><use xlink:href="#bd81vnhXq" opacity="1" fill-opacity="0" stroke="#000000" stroke-width="1" stroke-opacity="0"></use></g></g><g><use xlink:href="#a1uok5QYdk" opacity="1" fill="#cccccc" fill-opacity="1"></use><g><use xlink:href="#a1uok5QYdk" opacity="1" fill-opacity="0" stroke="#000000" stroke-width="1" stroke-opacity="0"></use></g></g><g><use xlink:href="#e34dJO5Ivv" opacity="1" fill="#e0e0e0" fill-opacity="1"></use><g><use xlink:href="#e34dJO5Ivv" opacity="1" fill-opacity="0" stroke="#000000" stroke-width="1" stroke-opacity="0"></use></g></g><g><use xlink:href="#cjIQic3o" opacity="1" fill="#cccccc" fill-opacity="1"></use><g><use xlink:href="#cjIQic3o" opacity="1" fill-opacity="0" stroke="#000000" stroke-width="1" stroke-opacity="0"></use></g></g><g><use xlink:href="#c2UiT3ylzt" opacity="1" fill="#e0e0e0" fill-opacity="1"></use><g><use xlink:href="#c2UiT3ylzt" opacity="1" fill-opacity="0" stroke="#000000" stroke-width="1" stroke-opacity="0"></use></g></g><g><use xlink:href="#c2dJmb5X2Q" opacity="1" fill="#cccccc" fill-opacity="1"></use><g><use xlink:href="#c2dJmb5X2Q" opacity="1" fill-opacity="0" stroke="#000000" stroke-width="1" stroke-opacity="0"></use></g></g><g><use xlink:href="#bgsmrxBJn" opacity="1" fill="#e0e0e0" fill-opacity="1"></use><g><use xlink:href="#bgsmrxBJn" opacity="1" fill-opacity="0" stroke="#000000" stroke-width="1" stroke-opacity="0"></use></g></g><g><use xlink:href="#d4XY3vGRh" opacity="1" fill="#cccccc" fill-opacity="1"></use><g><use xlink:href="#d4XY3vGRh" opacity="1" fill-opacity="0" stroke="#000000" stroke-width="1" stroke-opacity="0"></use></g></g><g><use xlink:href="#d3i1Oe3IQJ" opacity="1" fill="#000000" fill-opacity="0"></use><g><use xlink:href="#d3i1Oe3IQJ" opacity="1" fill-opacity="0" stroke="#000000" stroke-width="1" stroke-opacity="0"></use></g></g><g><use xlink:href="#bRkZurIH5" opacity="1" fill="#bdf9ff" fill-opacity="1"></use><g><use xlink:href="#bRkZurIH5" opacity="1" fill-opacity="0" stroke="#000000" stroke-width="1" stroke-opacity="0"></use></g></g><g><use xlink:href="#a3TbyR1qsB" opacity="1" fill="#8cf2ff" fill-opacity="1"></use><g><use xlink:href="#a3TbyR1qsB" opacity="1" fill-opacity="0" stroke="#000000" stroke-width="1" stroke-opacity="0"></use></g></g><g><use xlink:href="#a56GvrIaB7" opacity="1" fill="#bdf9ff" fill-opacity="1"></use><g><use xlink:href="#a56GvrIaB7" opacity="1" fill-opacity="0" stroke="#000000" stroke-width="1" stroke-opacity="0"></use></g></g><g><use xlink:href="#a3Yg2AdBcH" opacity="1" fill="#8cf2ff" fill-opacity="1"></use><g><use xlink:href="#a3Yg2AdBcH" opacity="1" fill-opacity="0" stroke="#000000" stroke-width="1" stroke-opacity="0"></use></g></g><g><use xlink:href="#ggrFsa5QE" opacity="1" fill="#f0c419" fill-opacity="1"></use><g><use xlink:href="#ggrFsa5QE" opacity="1" fill-opacity="0" stroke="#000000" stroke-width="1" stroke-opacity="0"></use></g></g><g><use xlink:href="#b2Y3KwgPmU" opacity="1" fill="#a5a5a4" fill-opacity="1"></use><g><use xlink:href="#b2Y3KwgPmU" opacity="1" fill-opacity="0" stroke="#000000" stroke-width="1" stroke-opacity="0"></use></g></g><g><use xlink:href="#b1bMzkohPB" opacity="1" fill="#bdf9ff" fill-opacity="1"></use><g><use xlink:href="#b1bMzkohPB" opacity="1" fill-opacity="0" stroke="#000000" stroke-width="1" stroke-opacity="0"></use></g></g><g><use xlink:href="#b1yDHkGodo" opacity="1" fill="#8cf2ff" fill-opacity="1"></use><g><use xlink:href="#b1yDHkGodo" opacity="1" fill-opacity="0" stroke="#000000" stroke-width="1" stroke-opacity="0"></use></g></g><g><use xlink:href="#f2maOr99Xk" opacity="1" fill="#000000" fill-opacity="0"></use><g><use xlink:href="#f2maOr99Xk" opacity="1" fill-opacity="0" stroke="#000000" stroke-width="1" stroke-opacity="0"></use></g></g><g><use xlink:href="#d3qax2TNJl" opacity="1" fill="#d1d4d1" fill-opacity="1"></use><g><use xlink:href="#d3qax2TNJl" opacity="1" fill-opacity="0" stroke="#000000" stroke-width="1" stroke-opacity="0"></use></g></g><g><use xlink:href="#e8bLhsvtu" opacity="1" fill="#000000" fill-opacity="0"></use><g><use xlink:href="#e8bLhsvtu" opacity="1" fill-opacity="0" stroke="#000000" stroke-width="1" stroke-opacity="0"></use></g></g><g><use xlink:href="#a72EXHQgi" opacity="1" fill="#a5a5a4" fill-opacity="1"></use><g><use xlink:href="#a72EXHQgi" opacity="1" fill-opacity="0" stroke="#000000" stroke-width="1" stroke-opacity="0"></use></g></g><g><use xlink:href="#e2ciBch0Hg" opacity="1" fill="#bdf9ff" fill-opacity="1"></use><g><use xlink:href="#e2ciBch0Hg" opacity="1" fill-opacity="0" stroke="#000000" stroke-width="1" stroke-opacity="0"></use></g></g><g><use xlink:href="#efphhoKgm" opacity="1" fill="#8cf2ff" fill-opacity="1"></use><g><use xlink:href="#efphhoKgm" opacity="1" fill-opacity="0" stroke="#000000" stroke-width="1" stroke-opacity="0"></use></g></g><g><use xlink:href="#b1PrsZnlVy" opacity="1" fill="#000000" fill-opacity="0"></use><g><use xlink:href="#b1PrsZnlVy" opacity="1" fill-opacity="0" stroke="#000000" stroke-width="1" stroke-opacity="0"></use></g></g><g><use xlink:href="#gSmS2Y4SV" opacity="1" fill="#a56a43" fill-opacity="1"></use><g><use xlink:href="#gSmS2Y4SV" opacity="1" fill-opacity="0" stroke="#000000" stroke-width="1" stroke-opacity="0"></use></g></g><g><use xlink:href="#a7vnxZn1c" opacity="1" fill="#000000" fill-opacity="0"></use><g><use xlink:href="#a7vnxZn1c" opacity="1" fill-opacity="0" stroke="#000000" stroke-width="1" stroke-opacity="0"></use></g></g><g><use xlink:href="#bexg1reeE" opacity="1" fill="#000000" fill-opacity="0"></use><g><use xlink:href="#bexg1reeE" opacity="1" fill-opacity="0" stroke="#000000" stroke-width="1" stroke-opacity="0"></use></g></g><g><use xlink:href="#d3rvpuAgrC" opacity="1" fill="#f3d55b" fill-opacity="1"></use><g><use xlink:href="#d3rvpuAgrC" opacity="1" fill-opacity="0" stroke="#000000" stroke-width="1" stroke-opacity="0"></use></g></g><g><use xlink:href="#b16rx98SkK" opacity="1" fill="#bdf9ff" fill-opacity="1"></use><g><use xlink:href="#b16rx98SkK" opacity="1" fill-opacity="0" stroke="#000000" stroke-width="1" stroke-opacity="0"></use></g></g><g><use xlink:href="#a2R1LXjVAW" opacity="1" fill="#f0c419" fill-opacity="1"></use><g><use xlink:href="#a2R1LXjVAW" opacity="1" fill-opacity="0" stroke="#000000" stroke-width="1" stroke-opacity="0"></use></g></g><g><use xlink:href="#l5ZFkK6Wmd" opacity="1" fill="#f29c1f" fill-opacity="1"></use><g><use xlink:href="#l5ZFkK6Wmd" opacity="1" fill-opacity="0" stroke="#000000" stroke-width="1" stroke-opacity="0"></use></g></g><g><use xlink:href="#e3D8DaiH1q" opacity="1" fill="#000000" fill-opacity="0"></use><g><use xlink:href="#e3D8DaiH1q" opacity="1" fill-opacity="0" stroke="#000000" stroke-width="1" stroke-opacity="0"></use></g></g><g><use xlink:href="#a2va0ak6iu" opacity="1" fill="#f29c1f" fill-opacity="1"></use><g><use xlink:href="#a2va0ak6iu" opacity="1" fill-opacity="0" stroke="#000000" stroke-width="1" stroke-opacity="0"></use></g></g><g><use xlink:href="#hsM1zs0xR" opacity="1" fill="#8cf2ff" fill-opacity="1"></use><g><use xlink:href="#hsM1zs0xR" opacity="1" fill-opacity="0" stroke="#000000" stroke-width="1" stroke-opacity="0"></use></g></g><g><use xlink:href="#d6XAQ3G4" opacity="1" fill="#f3d55b" fill-opacity="1"></use><g><use xlink:href="#d6XAQ3G4" opacity="1" fill-opacity="0" stroke="#000000" stroke-width="1" stroke-opacity="0"></use></g></g><g><use xlink:href="#c60arcbdL3" opacity="1" fill="#000000" fill-opacity="0"></use><g><use xlink:href="#c60arcbdL3" opacity="1" fill-opacity="0" stroke="#000000" stroke-width="1" stroke-opacity="0"></use></g></g><g><use xlink:href="#brK69QoRg" opacity="1" fill="#000000" fill-opacity="0"></use><g><use xlink:href="#brK69QoRg" opacity="1" fill-opacity="0" stroke="#000000" stroke-width="1" stroke-opacity="0"></use></g></g><g><use xlink:href="#b2zCCUdbO" opacity="1" fill="#000000" fill-opacity="0"></use><g><use xlink:href="#b2zCCUdbO" opacity="1" fill-opacity="0" stroke="#000000" stroke-width="1" stroke-opacity="0"></use></g></g><g><use xlink:href="#cmzhfudq8" opacity="1" fill="#57b7eb" fill-opacity="1"></use><g><use xlink:href="#cmzhfudq8" opacity="1" fill-opacity="0" stroke="#000000" stroke-width="1" stroke-opacity="0"></use></g></g><g><use xlink:href="#g6vfcgo60" opacity="1" fill="#4891d3" fill-opacity="1"></use><g><use xlink:href="#g6vfcgo60" opacity="1" fill-opacity="0" stroke="#000000" stroke-width="1" stroke-opacity="0"></use></g></g><g><use xlink:href="#b3kt8ycGZr" opacity="1" fill="#aae1f9" fill-opacity="1"></use><g><use xlink:href="#b3kt8ycGZr" opacity="1" fill-opacity="0" stroke="#000000" stroke-width="1" stroke-opacity="0"></use></g></g><g><use xlink:href="#aF86XucnX" opacity="1" fill="#4891d3" fill-opacity="1"></use><g><use xlink:href="#aF86XucnX" opacity="1" fill-opacity="0" stroke="#000000" stroke-width="1" stroke-opacity="0"></use></g></g><g><use xlink:href="#eumBwYyQJ" opacity="1" fill="#aae1f9" fill-opacity="1"></use><g><use xlink:href="#eumBwYyQJ" opacity="1" fill-opacity="0" stroke="#000000" stroke-width="1" stroke-opacity="0"></use></g></g><g><use xlink:href="#e1HNY03mgt" opacity="1" fill="#aae1f9" fill-opacity="1"></use><g><use xlink:href="#e1HNY03mgt" opacity="1" fill-opacity="0" stroke="#000000" stroke-width="1" stroke-opacity="0"></use></g></g><g><use xlink:href="#agjGNrT8A" opacity="1" fill="#57b7eb" fill-opacity="1"></use><g><use xlink:href="#agjGNrT8A" opacity="1" fill-opacity="0" stroke="#000000" stroke-width="1" stroke-opacity="0"></use></g></g><g><use xlink:href="#b1iYmA5WUD" opacity="1" fill="#4891d3" fill-opacity="1"></use><g><use xlink:href="#b1iYmA5WUD" opacity="1" fill-opacity="0" stroke="#000000" stroke-width="1" stroke-opacity="0"></use></g></g><g><use xlink:href="#b1qfNicK8V" opacity="1" fill="#aae1f9" fill-opacity="1"></use><g><use xlink:href="#b1qfNicK8V" opacity="1" fill-opacity="0" stroke="#000000" stroke-width="1" stroke-opacity="0"></use></g></g><g><use xlink:href="#aeYxjk55n" opacity="1" fill="#57b7eb" fill-opacity="1"></use><g><use xlink:href="#aeYxjk55n" opacity="1" fill-opacity="0" stroke="#000000" stroke-width="1" stroke-opacity="0"></use></g></g><g><use xlink:href="#g1Dfqr8FJh" opacity="1" fill="#57b7eb" fill-opacity="1"></use><g><use xlink:href="#g1Dfqr8FJh" opacity="1" fill-opacity="0" stroke="#000000" stroke-width="1" stroke-opacity="0"></use></g></g><g><use xlink:href="#b223KimuyA" opacity="1" fill="#57b7eb" fill-opacity="1"></use><g><use xlink:href="#b223KimuyA" opacity="1" fill-opacity="0" stroke="#000000" stroke-width="1" stroke-opacity="0"></use></g></g><g><use xlink:href="#d14A9RG6IV" opacity="1" fill="#57b7eb" fill-opacity="1"></use><g><use xlink:href="#d14A9RG6IV" opacity="1" fill-opacity="0" stroke="#000000" stroke-width="1" stroke-opacity="0"></use></g></g><g><use xlink:href="#a5AEYSmo8" opacity="1" fill="#57b7eb" fill-opacity="1"></use><g><use xlink:href="#a5AEYSmo8" opacity="1" fill-opacity="0" stroke="#000000" stroke-width="1" stroke-opacity="0"></use></g></g></g></g></svg>