<svg height="512" viewBox="0 0 64 64" width="512" xmlns="http://www.w3.org/2000/svg"><g id="Ghost"><path d="m50 21v40c-3 0-3-6-6-6s-3 6-6 6-2.99-6-5.99-6-3 6-6 6-3-6-6.01-6-3 6-6 6v-40a18 18 0 0 1 36 0z" fill="#d1d3d4"/><path d="m32 3a17.915 17.915 0 0 0 -2.5.194 17.99 17.99 0 0 1 15.5 17.806v34.261c2.047 1.152 2.377 5.739 5 5.739v-40a18 18 0 0 0 -18-18z" fill="#bcbec0"/><circle cx="25" cy="21" fill="#58595b" r="3"/><circle cx="39" cy="21" fill="#58595b" r="3"/><path d="m24 36h16a8 8 0 0 0 -16 0z" fill="#58595b"/><g fill="#231f20"><path d="m50 62c-2.117 0-3.1-1.97-3.893-3.553-.76-1.522-1.282-2.447-2.107-2.447s-1.344.924-2.1 2.447c-.793 1.583-1.778 3.553-3.895 3.553s-3.1-1.97-3.893-3.553c-.76-1.523-1.281-2.447-2.102-2.447s-1.345.925-2.107 2.448c-.792 1.582-1.776 3.552-3.894 3.552s-3.105-1.97-3.9-3.553c-.758-1.522-1.281-2.447-2.104-2.447s-1.347.925-2.109 2.448c-.796 1.582-1.777 3.552-3.896 3.552a1 1 0 0 1 -1-1v-40a19 19 0 0 1 38 0v40a1 1 0 0 1 -1 1zm-17.99-8c2.116 0 3.1 1.97 3.891 3.553.761 1.522 1.283 2.447 2.1 2.447s1.344-.924 2.1-2.447c.799-1.583 1.785-3.553 3.899-3.553s3.1 1.97 3.893 3.553a10.332 10.332 0 0 0 1.107 1.887v-38.44a17 17 0 0 0 -34 0v38.442a10.129 10.129 0 0 0 1.107-1.889c.793-1.583 1.779-3.553 3.898-3.553s3.1 1.97 3.9 3.553c.758 1.522 1.281 2.447 2.104 2.447s1.344-.924 2.105-2.447c.792-1.583 1.778-3.553 3.896-3.553z"/><path d="m25 25a4 4 0 1 1 4-4 4 4 0 0 1 -4 4zm0-6a2 2 0 1 0 2 2 2 2 0 0 0 -2-2z"/><path d="m39 25a4 4 0 1 1 4-4 4 4 0 0 1 -4 4zm0-6a2 2 0 1 0 2 2 2 2 0 0 0 -2-2z"/><path d="m40 37h-16a1 1 0 0 1 -1-1 9 9 0 0 1 18 0 1 1 0 0 1 -1 1zm-14.929-2h13.858a7 7 0 0 0 -13.858 0z"/></g></g></svg>