<svg height="512pt" viewBox="0 -4 512.0008 512" width="512pt" xmlns="http://www.w3.org/2000/svg"><g fill="#bdc3c7"><path d="m256 213.414062c-4.710938 0-8.53125-3.820312-8.53125-8.535156v-196.265625c0-4.714843 3.820312-8.535156 8.53125-8.535156 4.714844 0 8.535156 3.820313 8.535156 8.535156v196.265625c0 4.714844-3.820312 8.535156-8.535156 8.535156zm0 0"/><path d="m256 102.480469h-102.398438c-1.523437 0-3.015624-.40625-4.328124-1.179688l-145.066407-85.332031c-2.628906-1.546875-4.2304685-4.375-4.207031-7.425781.0234375-3.046875 1.675781-5.851563 4.328125-7.355469s5.902344-1.476562 8.53125.070312l143.0625 84.15625h100.078125c4.714844 0 8.535156 3.820313 8.535156 8.53125 0 4.714844-3.820312 8.535157-8.535156 8.535157zm0 0"/><path d="m256 68.347656h-93.867188c-1.546874 0-3.066406-.421875-4.394531-1.222656l-85.332031-51.199219c-3.945312-2.46875-5.183594-7.640625-2.789062-11.628906 2.398437-3.988281 7.546874-5.320313 11.578124-2.996094l83.300782 49.980469h91.503906c4.714844 0 8.535156 3.820312 8.535156 8.53125 0 4.714844-3.820312 8.535156-8.535156 8.535156zm0 0"/><path d="m170.667969 34.214844c-1.6875-.003906-3.332031-.503906-4.738281-1.433594l-25.597657-17.070312c-2.539062-1.691407-3.980469-4.605469-3.78125-7.648438.195313-3.042969 2.003907-5.75 4.734375-7.101562 2.734375-1.351563 5.980469-1.140626 8.519532.550781l23.421874 15.632812h82.773438c4.714844 0 8.535156 3.824219 8.535156 8.535157 0 4.714843-3.820312 8.535156-8.535156 8.535156zm0 0"/><path d="m153.601562 102.480469c-.699218-.003907-1.394531-.089844-2.074218-.257813-4.570313-1.140625-7.351563-5.769531-6.210938-10.339844l17.066406-68.269531c1.222657-4.46875 5.796876-7.144531 10.292969-6.019531 4.5 1.121094 7.277344 5.628906 6.261719 10.152344l-17.066406 68.265625c-.949219 3.796875-4.355469 6.464843-8.269532 6.46875zm0 0"/><path d="m358.402344 102.480469h-102.402344c-4.710938 0-8.53125-3.820313-8.53125-8.535157 0-4.710937 3.820312-8.53125 8.53125-8.53125h100.078125l143.0625-84.15625c2.628906-1.546874 5.882813-1.574218 8.535156-.070312 2.652344 1.503906 4.300781 4.308594 4.324219 7.355469.023438 3.050781-1.578125 5.878906-4.207031 7.425781l-145.066407 85.332031c-1.3125.773438-2.804687 1.179688-4.324218 1.179688zm0 0"/><path d="m349.867188 68.347656h-93.867188c-4.710938 0-8.53125-3.820312-8.53125-8.535156 0-4.710938 3.820312-8.53125 8.53125-8.53125h91.503906l83.300782-49.980469c2.617187-1.636719 5.910156-1.734375 8.621093-.253906 2.707031 1.476563 4.402344 4.304687 4.4375 7.390625.039063 3.082031-1.59375 5.949219-4.269531 7.488281l-85.332031 51.199219c-1.328125.800781-2.847657 1.222656-4.394531 1.222656zm0 0"/><path d="m341.332031 34.214844h-85.332031c-4.710938 0-8.53125-3.820313-8.53125-8.535156 0-4.710938 3.820312-8.535157 8.53125-8.535157h82.773438l23.425781-15.632812c2.535156-1.691407 5.78125-1.902344 8.515625-.550781 2.734375 1.351562 4.539062 4.058593 4.734375 7.101562.199219 3.042969-1.242188 5.957031-3.78125 7.648438l-25.597657 17.070312c-1.40625.929688-3.050781 1.429688-4.738281 1.433594zm0 0"/><path d="m358.402344 102.480469c-3.914063-.003907-7.324219-2.671875-8.269532-6.46875l-17.066406-68.265625c-1.019531-4.523438 1.761719-9.03125 6.257813-10.152344 4.5-1.125 9.070312 1.550781 10.296875 6.019531l17.066406 68.269531c1.136719 4.570313-1.644531 9.199219-6.214844 10.339844-.675781.167969-1.375.253906-2.070312.257813zm0 0"/></g><path d="m396.195312 404.644531 33.621094-11.179687c7.289063-2.398438 15.285156.359375 19.539063 6.742187l51.203125 76.800781c3.800781 5.054688 4.496094 11.792969 1.804687 17.515626-2.6875 5.726562-8.320312 9.492187-14.636719 9.789062-6.316406.300781-12.28125-2.917969-15.5-8.359375l-44.03125-65.964844-64.425781 21.503907c-1.023437.351562-2.082031.578124-3.160156.683593h-209.226563c-1.078124-.105469-2.136718-.332031-3.160156-.683593l-64.425781-21.503907-44.03125 65.964844c-5.445313 7.238281-15.597656 8.960937-23.125 3.925781-7.53125-5.035156-9.816406-15.074218-5.207031-22.871094l51.203125-76.800781c4.253906-6.382812 12.25-9.140625 19.539062-6.742187l33.621094 11.179687zm0 0" fill="#2c2f38"/><path d="m392.695312 336.632812 15.617188-16.722656 70.144531 36.863282c5.042969 2.703124 11.113281 2.671874 16.125-.085938 5.542969-3.011719 8.96875-8.832031 8.914063-15.136719-.054688-6.304687-3.578125-12.066406-9.167969-14.984375l-81.664063-42.925781c-6.835937-3.570313-15.21875-2.136719-20.480468 3.5l-16.894532 18.089844h-238.585937l-16.894531-18.089844c-5.261719-5.636719-13.644532-7.070313-20.480469-3.5l-81.664063 42.925781c-5.589843 2.917969-9.113281 8.679688-9.167968 14.984375-.054688 6.304688 3.375 12.125 8.914062 15.136719 5.011719 2.757812 11.082032 2.789062 16.125.085938l70.144532-36.863282 15.617187 16.722656zm0 0" fill="#2c2f38"/><path d="m352.84375 274.085938 18.519531-41.8125 78.335938 11.773437c4.480469.6875 9.050781-.441406 12.703125-3.128906 3.648437-2.691407 6.078125-6.722657 6.753906-11.207031 1.375-9.304688-5.039062-17.964844-14.335938-19.371094l-91.300781-13.824219c-7.605469-1.089844-15.015625 2.980469-18.175781 9.984375l-17.75 40.277344h-143.1875l-17.75-40.277344c-3.15625-7.003906-10.570312-11.074219-18.175781-9.984375l-91.308594 13.824219c-9.296875 1.40625-15.710937 10.066406-14.335937 19.371094.675781 4.484374 3.105468 8.515624 6.753906 11.207031 3.652344 2.6875 8.222656 3.816406 12.703125 3.128906l78.335937-11.773437 18.519532 41.8125zm0 0" fill="#2c2f38"/><path d="m342 462.226562c24.316406-9.730468 43.460938-29.183593 52.808594-53.652343 9.34375-24.472657 8.042968-51.734375-3.597656-75.199219-23.335938-46.839844-57.90625-87.175781-100.625-117.402344-20.6875-14.789062-48.484376-14.789062-69.171876 0-42.71875 30.230469-77.289062 70.566406-100.625 117.410156-11.636718 23.464844-12.941406 50.726563-3.597656 75.199219 9.347656 24.46875 28.492188 43.921875 52.808594 53.65625 27.414062 10.628907 56.597656 15.960938 86 15.707031 29.402344.25 58.585938-5.082031 86-15.71875zm0 0" fill="#2c3e50"/><path d="m326.828125 462.226562c42.121094-20.582031 60.585937-80.210937 40.53125-128.851562-18.027344-45.097656-46.417969-85.316406-82.875-117.402344-16.109375-14.789062-40.859375-14.789062-56.96875 0-36.457031 32.089844-64.84375 72.3125-82.867187 117.410156-20.0625 48.640626-1.585938 108.261719 40.535156 128.855469 44.890625 20.960938 96.761718 20.960938 141.652344 0zm0 0" fill="#35495e"/><path d="m219.222656 330.148438c5.472656 11.042968 2.238282 24.425781-7.679687 31.746093l-15.277344 5.117188c-13.707031-.0625-24.929687-10.917969-25.457031-24.617188s9.832031-25.378906 23.496094-26.496093h.085937zm0 0" fill="#ff5364"/><path d="m317.609375 315.898438h.085937c13.664063 1.117187 24.023438 12.796874 23.496094 26.496093-.523437 13.699219-11.75 24.554688-25.457031 24.617188l-15.273437-5.117188c-9.917969-7.320312-13.15625-20.703125-7.683594-31.746093zm0 0" fill="#ff5364"/><path d="m238.933594 349.945312c-1.480469.003907-2.9375-.386718-4.222656-1.125l-59.734376-34.132812c-2.722656-1.472656-4.4375-4.304688-4.476562-7.402344s1.605469-5.972656 4.292969-7.511718c2.6875-1.539063 5.996093-1.5 8.648437.097656l59.734375 34.136718c3.359375 1.917969 5.003907 5.859376 4.007813 9.597657-.996094 3.742187-4.378906 6.34375-8.25 6.339843zm0 0" fill="#2c2f38"/><path d="m273.066406 349.945312c-3.875.015626-7.269531-2.582031-8.273437-6.324218-1-3.742188.644531-7.691406 4.007812-9.613282l59.734375-34.136718c4.074219-2.203125 9.164063-.75 11.464844 3.273437 2.300781 4.023438.96875 9.148438-3 11.542969l-59.734375 34.132812c-1.277344.734376-2.726563 1.125-4.199219 1.125zm0 0" fill="#2c2f38"/><path d="m170.667969 384.078125c-4.179688-.007813-7.734375-3.042969-8.40625-7.164063-.667969-4.125 1.746093-8.128906 5.707031-9.457031l51.203125-17.066406c2.894531-.964844 6.085937-.308594 8.367187 1.71875 2.28125 2.023437 3.3125 5.117187 2.695313 8.105469-.613281 2.988281-2.773437 5.425781-5.671875 6.386718l-51.199219 17.070313c-.871093.277344-1.78125.417969-2.695312.40625zm0 0" fill="#2c2f38"/><path d="m341.332031 384.078125c-.914062 0-1.824219-.148437-2.695312-.441406l-51.199219-17.066407c-2.898438-.964843-5.058594-3.398437-5.671875-6.390624-.613281-2.988282.414063-6.078126 2.695313-8.105469 2.28125-2.027344 5.472656-2.679688 8.371093-1.71875l51.199219 17.066406c4.015625 1.292969 6.484375 5.324219 5.8125 9.488281-.675781 4.164063-4.292969 7.210938-8.511719 7.167969zm0 0" fill="#2c2f38"/><path d="m324.265625 435.28125c-1.84375.003906-3.644531-.597656-5.117187-1.707031l-18.203126-13.65625c-8.871093-6.625-19.644531-10.214844-30.71875-10.238281h-28.453124c-11.074219.019531-21.847657 3.609374-30.71875 10.238281l-18.199219 13.65625c-2.441407 1.828125-5.671875 2.21875-8.472657 1.019531-2.804687-1.199219-4.757812-3.800781-5.121093-6.828125-.363281-3.023437.914062-6.015625 3.351562-7.847656l18.210938-13.652344c11.824219-8.84375 26.191406-13.632813 40.960937-13.652344h28.449219c14.765625.023438 29.132813 4.8125 40.960937 13.652344l18.191407 13.652344c2.9375 2.207031 4.136719 6.042969 2.976562 9.527343-1.164062 3.484376-4.421875 5.835938-8.097656 5.835938zm0 0" fill="#2c2f38"/></svg>