<?xml version="1.0" encoding="UTF-8" standalone="no"?>
<!DOCTYPE svg PUBLIC "-//W3C//DTD SVG 1.1//EN" "http://www.w3.org/Graphics/SVG/1.1/DTD/svg11.dtd">
<svg version="1.1" xmlns="http://www.w3.org/2000/svg" xmlns:xlink="http://www.w3.org/1999/xlink" preserveAspectRatio="xMidYMid meet" viewBox="0 0 666 500" width="666" height="500"><defs><path d="M98.25 319.24L98.99 319.29L99.72 319.36L100.46 319.46L101.2 319.59L101.94 319.74L102.67 319.92L103.41 320.12L104.14 320.34L148.92 335.24L522.42 335.24L567.2 320.34L567.93 320.12L568.67 319.92L569.4 319.74L570.14 319.59L570.88 319.46L571.62 319.36L572.36 319.29L573.1 319.24L573.83 319.21L574.57 319.2L575.31 319.22L576.04 319.27L576.77 319.34L577.49 319.43L578.21 319.54L578.93 319.68L579.64 319.84L580.34 320.02L581.04 320.22L581.73 320.45L582.42 320.7L583.09 320.97L583.76 321.26L584.42 321.57L585.07 321.9L585.7 322.26L586.33 322.64L586.95 323.03L587.55 323.45L588.14 323.89L588.72 324.34L589.28 324.82L589.83 325.32L590.37 325.83L590.88 326.37L591.39 326.92L591.87 327.49L592.34 328.09L592.8 328.7L593.23 329.33L661.44 431.63L661.81 432.14L662.16 432.65L662.5 433.18L662.83 433.71L663.14 434.25L663.43 434.8L663.71 435.35L663.97 435.91L664.22 436.47L664.45 437.04L664.67 437.61L664.86 438.19L665.05 438.78L665.22 439.37L665.37 439.96L665.5 440.55L665.62 441.15L665.72 441.75L665.81 442.35L665.88 442.96L665.93 443.56L665.97 444.17L665.99 444.78L666 445.39L665.99 446L665.96 446.61L665.92 447.22L665.86 447.83L665.78 448.44L665.69 449.04L665.58 449.65L665.45 450.25L665.31 450.85L665.15 451.45L664.97 452.04L664.78 452.63L664.57 453.22L664.34 453.8L664.1 454.38L663.84 454.96L663.56 455.52L663.27 456.08L662.97 456.63L662.65 457.17L662.32 457.69L661.97 458.21L661.62 458.71L661.24 459.2L660.86 459.69L660.47 460.16L660.06 460.62L659.64 461.06L659.21 461.5L658.77 461.92L658.32 462.33L657.85 462.73L657.38 463.11L656.9 463.49L656.41 463.84L655.9 464.19L655.39 464.52L654.87 464.84L654.35 465.14L653.81 465.43L653.27 465.71L652.71 465.97L652.15 466.22L651.59 466.45L651.01 466.66L650.44 466.87L649.85 467.05L649.26 467.22L648.66 467.38L648.06 467.51L647.45 467.64L646.84 467.74L646.22 467.83L645.6 467.9L644.97 467.96L644.34 468L643.71 468.02L643.08 468.02L642.46 468.01L641.84 467.98L641.22 467.93L640.6 467.87L639.99 467.79L639.38 467.69L638.77 467.57L638.17 467.45L637.57 467.3L636.98 467.14L636.4 466.96L635.82 466.77L635.24 466.56L634.68 466.34L634.11 466.1L633.56 465.85L633.01 465.58L632.47 465.3L631.94 465L631.42 464.69L630.9 464.37L630.39 464.03L629.89 463.68L629.41 463.31L628.93 462.93L628.46 462.54L628 462.13L627.55 461.72L627.11 461.28L626.68 460.84L626.27 460.39L625.86 459.92L625.47 459.44L625.09 458.95L624.72 458.44L624.37 457.93L624.02 457.4L623.7 456.86L565.05 368.99L479.23 397.64L479.13 397.67L479.02 397.71L478.92 397.74L478.82 397.77L478.72 397.81L478.61 397.84L478.51 397.87L478.41 397.9L478.3 397.93L478.2 397.96L478.09 397.99L477.99 398.02L477.89 398.04L477.78 398.07L477.68 398.1L477.57 398.12L477.47 398.15L477.36 398.17L477.26 398.19L477.15 398.22L477.05 398.24L476.94 398.26L476.83 398.28L476.73 398.3L476.62 398.32L476.52 398.34L476.41 398.36L476.3 398.38L476.2 398.4L476.09 398.41L475.98 398.43L475.88 398.45L475.77 398.46L475.66 398.47L475.56 398.49L475.45 398.5L475.34 398.51L475.23 398.53L475.13 398.54L475.02 398.55L196.32 398.55L196.22 398.54L196.11 398.53L196 398.51L195.89 398.5L195.79 398.49L195.68 398.47L195.57 398.46L195.46 398.45L195.36 398.43L195.25 398.41L195.14 398.4L195.04 398.38L194.93 398.36L194.83 398.34L194.72 398.32L194.61 398.3L194.51 398.28L194.4 398.26L194.3 398.24L194.19 398.22L194.09 398.19L193.98 398.17L193.88 398.15L193.77 398.12L193.67 398.1L193.56 398.07L193.46 398.04L193.35 398.02L193.25 397.99L193.14 397.96L193.04 397.93L192.94 397.9L192.83 397.87L192.73 397.84L192.63 397.81L192.52 397.77L192.42 397.74L192.32 397.71L192.22 397.67L192.11 397.64L106.3 368.99L47.65 456.86L47.09 457.57L46.51 458.25L45.91 458.91L45.29 459.53L44.65 460.13L43.99 460.7L43.31 461.24L42.62 461.75L41.91 462.24L41.18 462.69L40.44 463.11L39.69 463.51L38.92 463.88L38.14 464.21L37.36 464.52L36.56 464.8L35.75 465.05L34.93 465.26L34.11 465.45L33.28 465.61L32.45 465.73L31.61 465.83L30.77 465.89L29.93 465.92L29.08 465.93L28.24 465.9L27.39 465.83L26.55 465.74L25.7 465.62L24.87 465.46L24.03 465.27L23.2 465.05L22.38 464.79L21.56 464.51L20.75 464.19L19.95 463.83L19.15 463.45L18.37 463.03L17.6 462.58L16.84 462.09L16.1 461.58L15.39 461.04L14.7 460.47L14.04 459.89L13.41 459.28L12.81 458.66L12.23 458.01L11.68 457.34L11.16 456.66L10.66 455.96L10.2 455.25L9.76 454.52L9.35 453.77L8.97 453.01L8.62 452.24L8.3 451.46L8.01 450.67L7.74 449.87L7.51 449.06L7.31 448.24L7.14 447.41L7 446.58L6.89 445.75L6.81 444.9L6.76 444.06L6.74 443.21L6.76 442.37L6.8 441.52L6.88 440.67L6.99 439.82L7.13 438.98L7.31 438.14L7.52 437.3L7.76 436.47L8.03 435.64L8.34 434.82L8.68 434.01L9.05 433.21L9.46 432.41L9.91 431.63L78.11 329.33L78.54 328.7L79 328.09L79.47 327.49L79.95 326.92L80.46 326.37L80.98 325.83L81.51 325.32L82.06 324.82L82.63 324.34L83.2 323.89L83.79 323.45L84.4 323.03L85.01 322.64L85.64 322.26L86.28 321.9L86.92 321.57L87.58 321.26L88.25 320.97L88.92 320.7L89.61 320.45L90.3 320.22L91 320.02L91.7 319.84L92.41 319.68L93.13 319.54L93.85 319.43L94.58 319.34L95.3 319.27L96.04 319.22L96.77 319.2L97.51 319.21L98.25 319.24Z" id="benGkjShK"></path><path d="M535.77 171.55L536.51 171.62L537.24 171.72L537.97 171.85L538.7 171.99L539.42 172.17L540.14 172.36L540.86 172.58L541.57 172.83L542.28 173.1L542.98 173.39L543.67 173.71L544.36 174.06L653.14 231.23L653.69 231.53L654.23 231.84L654.76 232.17L655.29 232.51L655.8 232.86L656.29 233.23L656.78 233.61L657.26 234L657.72 234.4L658.18 234.81L658.62 235.24L659.04 235.67L659.46 236.12L659.86 236.58L660.25 237.04L660.63 237.52L660.99 238.01L661.35 238.5L661.68 239.01L662.01 239.52L662.32 240.04L662.61 240.57L662.9 241.11L663.16 241.66L663.42 242.21L663.65 242.77L663.88 243.34L664.09 243.91L664.28 244.49L664.46 245.08L664.62 245.67L664.77 246.27L664.9 246.87L665.01 247.47L665.11 248.08L665.19 248.7L665.25 249.32L665.3 249.94L665.33 250.56L665.35 251.19L665.35 251.82L665.32 252.45L665.29 253.07L665.23 253.69L665.16 254.31L665.07 254.92L664.97 255.53L664.85 256.13L664.71 256.73L664.56 257.32L664.39 257.91L664.21 258.49L664.01 259.07L663.8 259.64L663.57 260.21L663.33 260.76L663.07 261.31L662.8 261.86L662.51 262.39L662.21 262.92L661.89 263.44L661.56 263.95L661.22 264.45L660.86 264.94L660.5 265.43L660.11 265.9L659.72 266.37L659.31 266.82L658.89 267.26L658.45 267.69L658.01 268.12L657.55 268.52L657.08 268.92L656.6 269.31L656.11 269.68L655.6 270.04L655.09 270.39L654.56 270.73L654.02 271.05L653.47 271.36L652.97 271.62L652.46 271.88L651.95 272.12L651.43 272.35L650.91 272.56L650.38 272.76L649.86 272.95L649.32 273.12L648.79 273.28L648.25 273.43L647.7 273.56L647.16 273.68L646.61 273.79L646.07 273.88L645.52 273.96L644.96 274.02L644.41 274.07L643.86 274.11L643.3 274.13L642.75 274.14L642.2 274.14L641.64 274.12L641.09 274.09L640.54 274.04L639.98 273.99L639.43 273.91L638.88 273.83L638.34 273.73L637.79 273.61L637.25 273.49L636.71 273.35L636.17 273.19L635.63 273.03L635.1 272.84L634.57 272.65L634.05 272.44L633.53 272.22L633.01 271.98L632.5 271.73L632 271.47L538.56 222.37L517.76 244.64L153.58 244.64L132.78 222.37L39.35 271.47L38.84 271.73L38.33 271.98L37.81 272.22L37.29 272.44L36.77 272.65L36.24 272.84L35.71 273.03L35.17 273.19L34.64 273.35L34.1 273.49L33.55 273.61L33.01 273.73L32.46 273.83L31.91 273.91L31.36 273.99L30.81 274.04L30.25 274.09L29.7 274.12L29.15 274.14L28.59 274.14L28.04 274.13L27.48 274.11L26.93 274.07L26.38 274.02L25.83 273.96L25.28 273.88L24.73 273.79L24.18 273.68L23.64 273.56L23.1 273.43L22.56 273.28L22.02 273.12L21.49 272.95L20.96 272.76L20.43 272.56L19.91 272.35L19.39 272.12L18.88 271.88L18.37 271.62L17.87 271.36L17.32 271.05L16.78 270.73L16.26 270.39L15.74 270.04L15.24 269.68L14.74 269.31L14.26 268.92L13.79 268.52L13.33 268.12L12.89 267.69L12.46 267.26L12.04 266.82L11.63 266.37L11.23 265.9L10.85 265.43L10.48 264.94L10.12 264.45L9.78 263.95L9.45 263.44L9.14 262.92L8.84 262.39L8.55 261.86L8.28 261.31L8.02 260.76L7.77 260.21L7.54 259.64L7.33 259.07L7.13 258.49L6.95 257.91L6.78 257.32L6.63 256.73L6.49 256.13L6.37 255.53L6.27 254.92L6.18 254.31L6.11 253.69L6.06 253.07L6.02 252.45L6 251.82L5.99 251.19L6.01 250.56L6.04 249.94L6.09 249.32L6.15 248.7L6.23 248.08L6.33 247.47L6.45 246.87L6.58 246.27L6.72 245.67L6.89 245.08L7.06 244.49L7.26 243.91L7.46 243.34L7.69 242.77L7.93 242.21L8.18 241.66L8.45 241.11L8.73 240.57L9.02 240.04L9.33 239.52L9.66 239.01L10 238.5L10.35 238.01L10.71 237.52L11.09 237.04L11.48 236.58L11.88 236.12L12.3 235.67L12.73 235.24L13.17 234.81L13.62 234.4L14.08 234L14.56 233.61L15.05 233.23L15.55 232.86L16.06 232.51L16.58 232.17L17.11 231.84L17.65 231.53L18.21 231.23L126.98 174.06L127.67 173.71L128.37 173.39L129.07 173.1L129.77 172.83L130.48 172.58L131.2 172.36L131.92 172.17L132.65 171.99L133.37 171.85L134.1 171.72L134.84 171.62L135.57 171.55L136.3 171.49L137.04 171.47L137.77 171.46L138.5 171.48L139.23 171.52L139.96 171.59L140.69 171.68L141.41 171.79L142.13 171.92L142.84 172.08L143.55 172.26L144.26 172.46L144.95 172.69L145.64 172.94L146.33 173.21L147 173.5L147.67 173.82L148.33 174.15L148.97 174.51L149.61 174.89L150.24 175.3L150.85 175.72L151.45 176.17L152.04 176.63L152.62 177.12L153.18 177.63L153.73 178.16L154.27 178.72L176.77 202.81L494.57 202.81L517.08 178.72L517.61 178.16L518.16 177.63L518.72 177.12L519.3 176.63L519.89 176.17L520.49 175.72L521.11 175.3L521.73 174.89L522.37 174.51L523.02 174.15L523.67 173.82L524.34 173.5L525.01 173.21L525.7 172.94L526.39 172.69L527.08 172.46L527.79 172.26L528.5 172.08L529.21 171.92L529.93 171.79L530.65 171.68L531.38 171.59L532.11 171.52L532.84 171.48L533.57 171.46L534.31 171.47L535.04 171.49L535.77 171.55Z" id="h1AXdhhQqM"></path><path d="M196.98 57.8L197.72 57.86L198.46 57.93L199.19 58.03L199.92 58.16L200.64 58.3L201.36 58.47L202.07 58.66L202.77 58.88L203.46 59.11L204.14 59.37L204.82 59.65L205.49 59.95L206.14 60.27L206.78 60.61L207.42 60.97L208.04 61.35L208.65 61.75L209.25 62.17L209.83 62.61L210.4 63.07L210.96 63.55L211.5 64.04L212.03 64.55L212.54 65.08L213.03 65.63L213.51 66.2L213.97 66.78L214.41 67.38L214.84 67.99L215.24 68.62L215.63 69.27L216 69.93L216.34 70.61L216.67 71.3L240.31 124.95L431.04 124.95L454.68 71.3L455.01 70.61L455.36 69.93L455.73 69.27L456.11 68.62L456.52 67.99L456.94 67.38L457.39 66.78L457.85 66.2L458.32 65.63L458.82 65.08L459.33 64.55L459.86 64.04L460.4 63.55L460.95 63.07L461.52 62.61L462.11 62.17L462.7 61.75L463.31 61.35L463.94 60.97L464.57 60.61L465.21 60.27L465.87 59.95L466.53 59.65L467.21 59.37L467.89 59.11L468.59 58.88L469.29 58.66L469.99 58.47L470.71 58.3L471.43 58.16L472.16 58.03L472.89 57.93L473.63 57.86L474.37 57.8L475.12 57.77L475.87 57.77L476.62 57.79L477.38 57.84L478.14 57.91L478.9 58L600.51 76.42L601.43 76.58L602.34 76.77L603.23 77L604.1 77.26L604.96 77.55L605.8 77.88L606.62 78.24L607.43 78.63L608.21 79.05L608.98 79.5L609.72 79.97L610.44 80.47L611.14 81L611.82 81.56L612.48 82.14L613.11 82.74L613.72 83.36L614.3 84.01L614.86 84.68L615.39 85.37L615.89 86.08L616.37 86.81L616.82 87.56L617.24 88.32L617.63 89.1L618 89.9L618.33 90.71L618.63 91.53L618.9 92.37L619.14 93.22L619.34 94.08L619.51 94.96L619.65 95.84L619.75 96.73L619.82 97.63L619.85 98.54L619.85 99.45L619.8 100.37L619.72 101.29L619.61 102.22L619.53 102.67L619.45 103.11L619.36 103.55L619.27 103.99L619.16 104.43L619.05 104.86L618.92 105.29L618.79 105.72L618.65 106.15L618.5 106.57L618.35 106.99L618.18 107.4L618.01 107.81L617.83 108.22L617.65 108.62L617.45 109.02L617.25 109.42L617.04 109.81L616.82 110.2L616.59 110.58L616.36 110.96L616.12 111.33L615.87 111.7L615.62 112.06L615.36 112.42L615.09 112.78L614.81 113.13L614.53 113.47L614.24 113.81L613.94 114.14L613.64 114.47L613.33 114.79L613.01 115.11L612.69 115.42L612.36 115.72L612.02 116.02L611.68 116.31L611.33 116.6L610.97 116.88L610.61 117.15L610.24 117.41L609.87 117.67L609.5 117.92L609.12 118.16L608.73 118.39L608.34 118.62L607.95 118.83L607.56 119.04L607.16 119.24L606.75 119.44L606.35 119.62L605.94 119.8L605.53 119.97L605.11 120.13L604.69 120.28L604.27 120.42L603.85 120.56L603.42 120.69L602.99 120.81L602.56 120.92L602.13 121.02L601.7 121.11L601.26 121.2L600.82 121.27L600.38 121.34L599.94 121.4L599.5 121.45L599.06 121.5L598.61 121.53L598.17 121.55L597.72 121.57L597.27 121.58L596.83 121.58L596.38 121.57L595.93 121.55L595.48 121.52L595.03 121.48L594.59 121.43L594.14 121.38L593.69 121.32L489.34 105.63L464.67 161.33L206.67 161.33L182 105.63L77.65 121.32L77.21 121.38L76.76 121.43L76.31 121.48L75.86 121.52L75.41 121.55L74.96 121.57L74.52 121.58L74.07 121.58L73.62 121.57L73.18 121.55L72.73 121.53L72.29 121.5L71.84 121.45L71.4 121.4L70.96 121.34L70.52 121.27L70.08 121.2L69.65 121.11L69.21 121.02L68.78 120.92L68.35 120.81L67.92 120.69L67.49 120.56L67.07 120.42L66.65 120.28L66.23 120.13L65.82 119.97L65.4 119.8L65 119.62L64.59 119.44L64.19 119.24L63.79 119.04L63.39 118.83L63 118.62L62.61 118.39L62.23 118.16L61.85 117.92L61.47 117.67L61.1 117.41L60.73 117.15L60.37 116.88L60.02 116.6L59.67 116.31L59.32 116.02L58.99 115.72L58.66 115.42L58.33 115.11L58.02 114.79L57.71 114.47L57.4 114.14L57.11 113.81L56.82 113.47L56.53 113.13L56.26 112.78L55.99 112.42L55.73 112.06L55.47 111.7L55.22 111.33L54.98 110.96L54.75 110.58L54.52 110.2L54.31 109.81L54.09 109.42L53.89 109.02L53.7 108.62L53.51 108.22L53.33 107.81L53.16 107.4L52.99 106.99L52.84 106.57L52.69 106.15L52.55 105.72L52.42 105.29L52.3 104.86L52.18 104.43L52.07 103.99L51.98 103.55L51.89 103.11L51.81 102.67L51.74 102.22L51.62 101.29L51.54 100.37L51.5 99.45L51.49 98.54L51.52 97.63L51.59 96.73L51.69 95.84L51.83 94.96L52 94.08L52.21 93.22L52.44 92.37L52.71 91.53L53.01 90.71L53.35 89.9L53.71 89.1L54.1 88.32L54.52 87.56L54.97 86.81L55.45 86.08L55.95 85.37L56.48 84.68L57.04 84.01L57.62 83.36L58.23 82.74L58.86 82.14L59.52 81.56L60.2 81L60.9 80.47L61.62 79.97L62.37 79.5L63.13 79.05L63.91 78.63L64.72 78.24L65.54 77.88L66.38 77.55L67.24 77.26L68.11 77L69 76.77L69.91 76.58L70.83 76.42L192.46 58L193.22 57.91L193.97 57.84L194.73 57.79L195.48 57.77L196.23 57.77L196.98 57.8Z" id="b496bqUFjT"></path><path d="M340.52 69.29L342.93 69.48L345.34 69.74L347.75 70.07L350.14 70.47L352.53 70.95L354.9 71.51L357.26 72.14L359.6 72.84L361.92 73.61L364.23 74.46L366.51 75.39L368.77 76.38L371.01 77.46L373.21 78.6L375.39 79.82L377.54 81.11L379.66 82.48L381.75 83.92L385.99 86.96L390.2 90.06L394.36 93.2L398.49 96.4L402.57 99.64L406.61 102.93L410.6 106.27L414.55 109.65L418.46 113.09L422.32 116.57L426.14 120.09L429.92 123.66L433.65 127.28L437.33 130.94L440.97 134.64L444.56 138.39L448.1 142.18L451.6 146.02L455.04 149.89L458.45 153.81L461.8 157.77L465.1 161.77L468.36 165.82L471.56 169.9L474.72 174.02L477.82 178.18L480.87 182.38L483.88 186.62L486.83 190.89L489.73 195.21L492.57 199.56L495.37 203.95L498.11 208.37L500.8 212.83L503.43 217.32L506.01 221.85L508.54 226.41L511.01 231.01L513.42 235.64L515.78 240.3L516.92 242.66L518 245.03L519.04 247.42L520.02 249.82L520.95 252.24L521.83 254.68L522.65 257.13L523.43 259.59L524.15 262.07L524.82 264.56L525.44 267.05L526.01 269.56L526.52 272.08L526.98 274.6L527.39 277.14L527.75 279.68L528.06 282.22L528.31 284.77L528.51 287.33L528.66 289.88L528.76 292.44L528.8 295.01L528.79 297.57L528.73 300.13L528.62 302.69L528.45 305.25L528.23 307.81L527.96 310.37L527.63 312.92L527.26 315.46L526.83 318L526.34 320.54L525.81 323.06L525.22 325.58L524.58 328.09L523.88 330.59L523.13 333.08L522.33 335.55L521.48 338.02L520.57 340.47L519.62 342.9L518.61 345.31L517.55 347.69L516.45 350.04L515.3 352.37L514.11 354.67L512.87 356.93L511.59 359.17L510.26 361.38L508.88 363.56L507.47 365.71L506.01 367.83L504.51 369.92L502.97 371.97L501.39 373.99L499.76 375.97L498.1 377.93L496.4 379.84L494.66 381.72L492.88 383.57L491.06 385.37L489.21 387.14L487.32 388.87L485.4 390.57L483.44 392.22L481.44 393.84L479.42 395.41L477.36 396.94L475.26 398.44L473.14 399.89L470.98 401.29L468.79 402.66L466.57 403.98L464.32 405.25L462.04 406.48L459.74 407.67L457.4 408.8L455.04 409.9L452.65 410.94L450.23 411.94L447.49 412.99L444.74 414.01L441.98 415.01L439.21 415.98L436.43 416.92L433.65 417.83L430.85 418.72L428.05 419.59L425.25 420.42L422.43 421.23L419.61 422.02L416.79 422.77L413.95 423.5L411.11 424.2L408.26 424.88L405.41 425.52L402.55 426.14L399.69 426.74L396.82 427.3L393.95 427.84L391.07 428.36L388.18 428.84L385.29 429.3L382.4 429.73L379.5 430.13L376.6 430.51L373.7 430.86L370.79 431.18L367.88 431.47L364.96 431.74L362.04 431.97L359.12 432.19L356.2 432.37L353.27 432.52L350.35 432.65L347.41 432.75L344.48 432.82L341.55 432.87L338.61 432.89L335.68 432.87L332.74 432.89L329.8 432.87L326.87 432.83L323.94 432.75L321.01 432.65L318.08 432.53L315.15 432.37L312.23 432.19L309.31 431.98L306.39 431.74L303.47 431.47L300.56 431.18L297.65 430.86L294.75 430.51L291.85 430.14L288.95 429.73L286.06 429.3L283.17 428.85L280.29 428.36L277.41 427.85L274.53 427.31L271.66 426.74L268.8 426.15L265.94 425.53L263.09 424.88L260.24 424.21L257.4 423.51L254.57 422.78L251.74 422.02L248.92 421.24L246.1 420.43L243.3 419.6L240.5 418.74L237.71 417.85L234.92 416.93L232.15 415.99L229.38 415.02L226.62 414.02L223.86 413L221.12 411.95L218.71 410.96L216.32 409.91L213.95 408.82L211.62 407.68L209.31 406.5L207.03 405.27L204.78 403.99L202.56 402.67L200.37 401.31L198.22 399.9L196.09 398.45L194 396.96L191.94 395.42L189.91 393.85L187.91 392.23L185.95 390.58L184.03 388.89L182.14 387.15L180.29 385.38L178.47 383.58L176.7 381.73L174.95 379.85L173.25 377.94L171.59 375.98L169.97 374L168.38 371.98L166.84 369.93L165.34 367.84L163.88 365.72L162.47 363.58L161.1 361.4L159.77 359.18L158.48 356.94L157.24 354.68L156.05 352.38L154.9 350.05L153.8 347.7L152.74 345.32L151.74 342.91L150.78 340.48L149.87 338.03L149.02 335.56L148.22 333.09L147.47 330.6L146.78 328.1L146.13 325.59L145.55 323.07L145.01 320.55L144.53 318.01L144.1 315.47L143.72 312.93L143.4 310.38L143.12 307.82L142.91 305.26L142.74 302.7L142.63 300.14L142.56 297.58L142.56 295.02L142.6 292.45L142.7 289.89L142.84 287.34L143.04 284.78L143.3 282.23L143.6 279.69L143.96 277.15L144.37 274.61L144.83 272.09L145.35 269.57L145.91 267.06L146.53 264.57L147.2 262.08L147.93 259.6L148.7 257.14L149.53 254.69L150.4 252.25L151.33 249.83L152.32 247.43L153.35 245.04L154.43 242.67L155.57 240.31L157.93 235.65L160.35 231.02L162.82 226.42L165.34 221.86L167.92 217.33L170.56 212.84L173.24 208.38L175.98 203.95L178.78 199.57L181.63 195.22L184.53 190.9L187.48 186.63L190.48 182.39L193.53 178.19L196.64 174.03L199.79 169.9L203 165.82L206.25 161.78L209.55 157.78L212.91 153.82L216.31 149.9L219.76 146.02L223.25 142.19L226.8 138.4L230.39 134.65L234.02 130.94L237.71 127.28L241.44 123.67L245.21 120.09L249.03 116.57L252.89 113.09L256.8 109.66L260.75 106.27L264.75 102.93L268.79 99.64L272.87 96.4L276.99 93.21L281.15 90.06L285.36 86.96L289.61 83.92L291.69 82.48L293.81 81.11L295.96 79.82L298.14 78.6L300.35 77.46L302.58 76.38L304.84 75.39L307.13 74.46L309.43 73.61L311.75 72.84L314.1 72.14L316.45 71.51L318.82 70.95L321.21 70.47L323.6 70.07L326.01 69.74L328.42 69.48L330.83 69.29L333.25 69.18L335.68 69.15L338.1 69.18L340.52 69.29Z" id="alW7RQNEt"></path><path d="M339.76 69.29L341.79 69.48L343.82 69.74L345.84 70.07L347.84 70.47L349.84 70.95L351.82 71.51L353.78 72.14L355.73 72.84L357.65 73.61L359.55 74.46L361.42 75.39L363.26 76.38L365.08 77.46L366.86 78.6L368.61 79.82L370.32 81.11L371.99 82.48L373.62 83.92L377.24 87.15L380.82 90.41L384.36 93.72L387.86 97.06L391.32 100.45L394.74 103.87L398.11 107.33L401.44 110.83L404.73 114.36L407.98 117.94L411.18 121.55L414.34 125.19L417.46 128.87L420.53 132.59L423.56 136.34L426.54 140.13L429.48 143.95L432.37 147.8L435.22 151.69L438.02 155.61L440.78 159.56L443.49 163.55L446.15 167.57L448.76 171.61L451.33 175.69L453.85 179.8L456.33 183.94L458.75 188.11L461.13 192.31L463.46 196.54L465.74 200.79L467.97 205.07L470.15 209.39L472.28 213.72L474.36 218.09L476.4 222.48L478.38 226.9L480.31 231.34L482.18 235.81L484.01 240.3L485.92 245.19L487.63 250.12L489.16 255.1L490.5 260.11L491.66 265.16L492.63 270.22L493.43 275.31L494.04 280.4L494.47 285.5L494.73 290.6L494.82 295.69L494.73 300.77L494.48 305.82L494.05 310.86L493.46 315.85L492.71 320.81L491.79 325.73L490.71 330.59L489.47 335.4L488.07 340.14L486.52 344.81L484.82 349.4L482.96 353.92L480.96 358.34L478.81 362.67L476.51 366.9L474.06 371.02L471.48 375.02L468.75 378.91L465.89 382.67L462.89 386.3L459.75 389.79L456.48 393.13L453.08 396.32L449.55 399.36L445.9 402.23L442.11 404.93L438.21 407.46L434.18 409.8L430.03 411.95L425.53 413.99L421 415.93L416.43 417.76L411.83 419.49L407.21 421.11L402.56 422.63L397.88 424.05L393.19 425.35L388.47 426.56L383.73 427.66L378.98 428.65L374.21 429.54L369.42 430.33L364.63 431.01L359.82 431.58L355 432.06L350.18 432.42L345.35 432.68L340.52 432.84L335.69 432.89L330.86 432.84L326.02 432.68L321.2 432.42L316.37 432.06L311.56 431.58L306.75 431.01L301.96 430.33L297.17 429.54L292.4 428.65L287.65 427.66L282.91 426.56L278.19 425.35L273.49 424.05L268.82 422.63L264.17 421.11L259.55 419.49L254.95 417.76L250.38 415.93L245.85 413.99L241.35 411.95L237.2 409.8L233.17 407.46L229.26 404.93L225.48 402.23L221.82 399.36L218.29 396.32L214.89 393.13L211.62 389.79L208.48 386.3L205.48 382.67L202.62 378.91L199.89 375.03L197.3 371.02L194.86 366.9L192.56 362.67L190.41 358.34L188.4 353.92L186.54 349.41L184.84 344.81L183.29 340.14L181.89 335.4L180.65 330.6L179.57 325.73L178.66 320.82L177.9 315.86L177.31 310.86L176.88 305.83L176.63 300.78L176.54 295.7L176.63 290.61L176.88 285.51L177.32 280.41L177.93 275.32L178.73 270.23L179.7 265.17L180.86 260.12L182.2 255.11L183.73 250.13L185.44 245.2L187.35 240.31L189.18 235.82L191.06 231.35L192.99 226.91L194.97 222.49L197 218.1L199.08 213.73L201.21 209.4L203.39 205.08L205.62 200.8L207.9 196.55L210.23 192.32L212.6 188.12L215.03 183.95L217.5 179.81L220.02 175.7L222.59 171.62L225.21 167.57L227.87 163.56L230.58 159.57L233.34 155.62L236.14 151.7L238.98 147.81L241.88 143.96L244.82 140.14L247.8 136.35L250.83 132.6L253.9 128.88L257.01 125.2L260.17 121.55L263.38 117.94L266.62 114.37L269.91 110.83L273.24 107.33L276.62 103.87L280.03 100.45L283.49 97.06L286.99 93.72L290.53 90.41L294.11 87.15L297.73 83.92L299.36 82.48L301.04 81.11L302.75 79.82L304.49 78.6L306.28 77.46L308.09 76.38L309.93 75.39L311.81 74.46L313.7 73.61L315.63 72.84L317.57 72.14L319.53 71.51L321.51 70.95L323.51 70.47L325.52 70.07L327.54 69.74L329.56 69.48L331.6 69.29L333.64 69.18L335.68 69.15L337.72 69.18L339.76 69.29Z" id="a9qurtCU0"></path><path d="M287.21 237.11L287.69 238.23L288.13 239.36L288.53 240.5L288.88 241.65L289.19 242.8L289.46 243.95L289.69 245.12L289.88 246.28L290.02 247.45L290.13 248.61L290.19 249.78L290.21 250.95L290.2 252.12L290.14 253.28L290.04 254.44L289.9 255.59L289.73 256.74L289.51 257.88L289.26 259.01L288.97 260.13L288.64 261.24L288.27 262.34L287.87 263.43L287.42 264.51L286.94 265.57L286.43 266.61L285.87 267.64L285.28 268.65L284.66 269.64L283.99 270.61L283.29 271.56L282.56 272.49L281.79 273.4L280.99 274.28L280.15 275.14L279.28 275.97L278.37 276.77L277.43 277.55L276.46 278.29L256.11 285.11L254.75 285.08L253.4 284.99L252.06 284.85L250.74 284.66L249.44 284.42L248.15 284.14L246.89 283.8L245.64 283.42L244.41 282.99L243.21 282.52L242.02 282L240.86 281.44L239.73 280.83L238.62 280.19L237.54 279.51L236.49 278.79L235.46 278.02L234.47 277.23L233.5 276.39L232.57 275.52L231.67 274.62L230.81 273.69L229.97 272.72L229.18 271.72L228.42 270.69L227.7 269.63L227.02 268.55L226.38 267.43L225.78 266.29L225.23 265.13L224.71 263.94L224.24 262.73L223.82 261.49L223.44 260.24L223.11 258.96L222.83 257.67L222.59 256.35L222.41 255.02L222.28 253.68L222.2 252.32L222.17 250.95L222.2 249.6L222.28 248.26L222.41 246.93L222.6 245.62L222.83 244.33L223.11 243.05L223.44 241.78L223.81 240.54L224.23 239.31L224.7 238.11L225.21 236.93L225.76 235.77L226.36 234.63L226.99 233.52L227.67 232.44L228.39 231.38L229.14 230.35L229.93 229.35L230.76 228.39L231.62 227.45L232.52 226.54L233.45 225.67L234.41 224.83L235.41 224.03L236.44 223.27L237.49 222.54L238.58 221.85L239.69 221.21L240.83 220.6L241.99 220.04L243.18 219.51L244.4 219.04L245.64 218.6L246.9 218.22L248.18 217.88L249.48 217.59L250.8 217.35L252.14 217.16L253.5 217.02L253.61 217.02L286.69 236.01L287.21 237.11Z" id="b1wuoNeqR"></path><path d="M420.55 217.35L421.87 217.59L423.17 217.88L424.46 218.22L425.72 218.6L426.95 219.04L428.17 219.51L429.36 220.04L430.52 220.6L431.66 221.21L432.78 221.85L433.86 222.54L434.92 223.27L435.94 224.03L436.94 224.83L437.9 225.67L438.83 226.54L439.73 227.45L440.59 228.39L441.42 229.35L442.21 230.35L442.97 231.38L443.68 232.44L444.36 233.52L445 234.63L445.59 235.77L446.14 236.93L446.65 238.11L447.12 239.31L447.54 240.54L447.92 241.78L448.24 243.05L448.53 244.33L448.76 245.62L448.94 246.93L449.07 248.26L449.15 249.6L449.18 250.95L449.15 252.32L449.07 253.68L448.94 255.02L448.76 256.35L448.53 257.67L448.25 258.96L447.91 260.24L447.54 261.49L447.11 262.73L446.64 263.94L446.13 265.13L445.57 266.29L444.97 267.43L444.33 268.55L443.65 269.63L442.93 270.69L442.17 271.72L441.38 272.72L440.55 273.69L439.68 274.62L438.78 275.52L437.85 276.39L436.89 277.23L435.89 278.02L434.87 278.79L433.81 279.51L432.73 280.19L431.62 280.83L430.49 281.44L429.33 282L428.15 282.52L426.94 282.99L425.72 283.42L424.47 283.8L423.2 284.14L421.91 284.42L420.61 284.66L419.29 284.85L417.96 284.99L416.61 285.08L415.24 285.11L394.9 278.29L393.93 277.55L392.98 276.77L392.08 275.97L391.21 275.14L390.37 274.28L389.56 273.4L388.8 272.49L388.06 271.56L387.36 270.61L386.7 269.64L386.08 268.65L385.49 267.64L384.93 266.61L384.41 265.57L383.93 264.51L383.49 263.43L383.08 262.34L382.72 261.24L382.39 260.13L382.09 259.01L381.84 257.88L381.63 256.74L381.45 255.59L381.31 254.44L381.22 253.28L381.16 252.12L381.14 250.95L381.16 249.78L381.23 248.61L381.33 247.45L381.48 246.28L381.66 245.12L381.89 243.95L382.16 242.8L382.47 241.65L382.82 240.5L383.22 239.36L383.66 238.23L384.14 237.11L384.66 236.01L417.74 217.02L417.86 217.02L419.21 217.16L420.55 217.35Z" id="d2hb2XgqsQ"></path><path d="M233.88 194.07L234.18 194.09L234.48 194.12L234.77 194.16L235.07 194.2L235.36 194.26L235.66 194.32L235.95 194.39L236.24 194.47L236.53 194.55L236.82 194.65L237.1 194.75L237.38 194.86L237.66 194.97L237.94 195.1L238.22 195.23L238.49 195.37L238.76 195.52L239.03 195.67L318.59 241.15L318.93 241.34L319.25 241.55L319.56 241.76L319.87 241.99L320.16 242.22L320.45 242.47L320.73 242.72L320.99 242.98L321.25 243.25L321.5 243.52L321.74 243.8L321.97 244.09L322.19 244.39L322.4 244.69L322.6 245L322.79 245.32L322.97 245.64L323.13 245.96L323.29 246.29L323.44 246.63L323.57 246.97L323.7 247.31L323.81 247.66L323.92 248.01L324.01 248.37L324.09 248.73L324.15 249.09L324.21 249.46L324.25 249.82L324.29 250.19L324.31 250.56L324.32 250.93L324.31 251.31L324.3 251.68L324.27 252.06L324.23 252.43L324.17 252.81L324.11 253.18L324.03 253.56L323.93 253.93L323.83 254.3L323.71 254.67L323.58 255.03L323.44 255.38L323.29 255.72L323.13 256.06L322.96 256.4L322.78 256.72L322.58 257.04L322.38 257.35L322.17 257.66L321.95 257.95L321.72 258.24L321.48 258.52L321.23 258.79L320.98 259.06L320.71 259.31L320.44 259.56L320.16 259.8L319.87 260.02L319.58 260.24L319.28 260.45L318.97 260.65L318.66 260.84L318.34 261.02L318.01 261.19L317.68 261.35L317.34 261.5L317 261.63L316.65 261.76L316.3 261.87L315.94 261.98L315.58 262.07L315.21 262.15L314.84 262.22L314.47 262.27L314.09 262.32L313.71 262.35L313.33 262.37L312.94 262.38L312.8 262.37L312.65 262.37L312.5 262.37L312.35 262.36L312.21 262.35L312.06 262.34L311.91 262.33L311.77 262.32L311.62 262.3L311.47 262.28L311.33 262.26L311.18 262.24L311.04 262.22L310.89 262.19L310.75 262.16L310.6 262.13L310.46 262.1L310.32 262.07L310.18 262.03L310.03 262L309.89 261.96L309.75 261.92L309.61 261.87L309.47 261.83L309.33 261.78L309.19 261.74L309.05 261.69L308.92 261.63L308.78 261.58L308.64 261.53L308.51 261.47L308.37 261.41L308.24 261.35L308.1 261.29L307.97 261.22L307.84 261.16L307.71 261.09L307.58 261.02L307.45 260.95L307.32 260.88L227.75 215.41L227.48 215.26L227.22 215.1L226.96 214.94L226.7 214.77L226.46 214.59L226.21 214.41L225.97 214.22L225.74 214.03L225.52 213.83L225.3 213.62L225.08 213.41L224.87 213.2L224.67 212.97L224.47 212.75L224.28 212.52L224.1 212.28L223.92 212.04L223.75 211.8L223.59 211.55L223.43 211.29L223.28 211.03L223.13 210.77L223 210.51L222.86 210.24L222.74 209.97L222.62 209.69L222.52 209.41L222.41 209.13L222.32 208.84L222.23 208.56L222.15 208.27L222.08 207.97L222.02 207.68L221.96 207.38L221.91 207.08L221.87 206.78L221.84 206.47L221.81 206.17L221.8 205.86L221.79 205.55L221.79 205.24L221.8 204.93L221.81 204.63L221.84 204.32L221.87 204.02L221.91 203.72L221.96 203.42L222.02 203.12L222.08 202.83L222.16 202.53L222.24 202.24L222.32 201.96L222.42 201.67L222.52 201.39L222.63 201.11L222.75 200.84L222.87 200.56L223 200.3L223.14 200.03L223.29 199.77L223.44 199.51L223.6 199.26L223.76 199.01L223.93 198.76L224.11 198.52L224.29 198.29L224.49 198.06L224.68 197.83L224.89 197.61L225.1 197.39L225.31 197.18L225.53 196.98L225.76 196.78L225.99 196.58L226.23 196.39L226.47 196.21L226.72 196.04L226.98 195.87L227.24 195.7L227.51 195.54L227.78 195.39L228.05 195.25L228.32 195.12L228.6 194.99L228.88 194.87L229.17 194.76L229.45 194.66L229.74 194.57L230.03 194.48L230.32 194.4L230.61 194.33L230.91 194.27L231.2 194.21L231.5 194.16L231.79 194.12L232.09 194.09L232.39 194.07L232.69 194.05L232.99 194.04L233.28 194.04L233.58 194.05L233.88 194.07Z" id="a4RXpRCpPp"></path><path d="M438.7 194.35L439.13 194.4L439.56 194.46L439.98 194.54L440.4 194.63L440.82 194.74L441.23 194.87L441.63 195.01L442.04 195.17L442.43 195.34L442.82 195.53L443.2 195.73L443.58 195.94L443.94 196.18L444.3 196.42L444.65 196.68L444.99 196.95L445.32 197.24L445.64 197.54L445.95 197.86L446.25 198.19L446.54 198.53L446.82 198.89L447.08 199.26L447.33 199.64L447.57 200.04L447.79 200.44L447.99 200.85L448.18 201.26L448.34 201.68L448.49 202.1L448.62 202.53L448.74 202.96L448.84 203.39L448.92 203.82L448.98 204.25L449.02 204.68L449.05 205.12L449.07 205.55L449.06 205.98L449.04 206.41L449.01 206.84L448.95 207.27L448.89 207.7L448.8 208.12L448.7 208.54L448.58 208.95L448.45 209.36L448.31 209.76L448.14 210.16L447.97 210.56L447.77 210.94L447.57 211.32L447.34 211.7L447.11 212.06L446.86 212.42L446.59 212.76L446.31 213.1L446.02 213.43L445.71 213.75L445.39 214.05L445.05 214.35L444.7 214.63L444.34 214.91L443.96 215.16L443.57 215.41L364 260.88L363.87 260.95L363.75 261.02L363.62 261.09L363.49 261.16L363.35 261.22L363.22 261.29L363.09 261.35L362.96 261.41L362.82 261.47L362.69 261.52L362.55 261.58L362.41 261.63L362.28 261.68L362.14 261.73L362 261.78L361.86 261.83L361.72 261.87L361.58 261.91L361.44 261.95L361.3 261.99L361.16 262.03L361.02 262.06L360.88 262.1L360.74 262.13L360.59 262.16L360.45 262.19L360.31 262.21L360.16 262.24L360.02 262.26L359.87 262.28L359.73 262.3L359.58 262.31L359.44 262.33L359.29 262.34L359.14 262.35L359 262.36L358.85 262.37L358.7 262.37L358.56 262.37L358.41 262.38L358.02 262.37L357.64 262.35L357.26 262.32L356.88 262.28L356.51 262.22L356.14 262.16L355.77 262.08L355.41 261.99L355.05 261.88L354.7 261.77L354.35 261.64L354.01 261.51L353.67 261.36L353.33 261.2L353.01 261.03L352.69 260.85L352.37 260.67L352.06 260.47L351.76 260.26L351.46 260.04L351.18 259.81L350.9 259.58L350.62 259.33L350.36 259.08L350.1 258.81L349.85 258.54L349.61 258.26L349.38 257.97L349.16 257.68L348.95 257.37L348.75 257.06L348.55 256.74L348.37 256.42L348.2 256.08L348.03 255.75L347.88 255.4L347.74 255.05L347.61 254.69L347.5 254.32L347.39 253.95L347.3 253.58L347.22 253.2L347.15 252.83L347.09 252.45L347.05 252.07L347.02 251.7L347.01 251.32L347 250.95L347.01 250.58L347.03 250.21L347.06 249.84L347.11 249.47L347.16 249.11L347.23 248.74L347.31 248.38L347.4 248.03L347.5 247.67L347.62 247.33L347.74 246.98L347.88 246.64L348.03 246.3L348.18 245.97L348.35 245.64L348.53 245.32L348.72 245.01L348.92 244.7L349.13 244.4L349.35 244.1L349.58 243.81L349.82 243.53L350.07 243.25L350.32 242.98L350.59 242.72L350.87 242.47L351.16 242.23L351.45 241.99L351.76 241.77L352.07 241.55L352.4 241.34L352.73 241.15L432.3 195.67L432.7 195.46L433.12 195.27L433.54 195.1L433.96 194.94L434.38 194.8L434.81 194.68L435.24 194.57L435.67 194.49L436.11 194.42L436.54 194.36L436.97 194.33L437.41 194.31L437.84 194.31L438.27 194.32L438.7 194.35Z" id="a2OV5Jp5QT"></path><path d="M290.74 262.4L291.04 262.42L291.33 262.44L291.63 262.47L291.92 262.51L292.21 262.56L292.5 262.62L292.79 262.68L293.07 262.75L293.36 262.83L293.64 262.92L293.92 263.01L294.2 263.11L294.47 263.21L294.75 263.33L295.02 263.45L295.28 263.58L295.55 263.72L295.81 263.86L296.07 264.01L296.32 264.17L296.57 264.33L296.82 264.5L297.06 264.68L297.3 264.87L297.54 265.06L297.77 265.26L297.99 265.46L298.21 265.67L298.42 265.89L298.63 266.11L298.83 266.33L299.02 266.56L299.2 266.8L299.38 267.03L299.56 267.28L299.72 267.52L299.88 267.77L300.04 268.03L300.18 268.28L300.32 268.54L300.45 268.81L300.58 269.08L300.7 269.35L300.81 269.62L300.91 269.9L301.01 270.17L301.1 270.45L301.18 270.74L301.25 271.02L301.32 271.31L301.38 271.6L301.43 271.89L301.48 272.18L301.52 272.48L301.55 272.77L301.57 273.07L301.58 273.36L301.59 273.66L301.59 273.96L301.58 274.26L301.56 274.56L301.54 274.86L301.5 275.16L301.46 275.46L301.41 275.76L301.36 276.05L301.29 276.35L301.22 276.65L301.14 276.94L301.05 277.23L300.95 277.51L300.85 277.79L300.74 278.07L300.63 278.34L300.5 278.62L300.37 278.88L300.24 279.15L300.09 279.41L299.94 279.66L299.79 279.91L299.62 280.16L299.46 280.4L299.28 280.64L299.1 280.87L298.91 281.1L298.72 281.32L298.52 281.54L298.32 281.75L298.11 281.96L297.89 282.16L297.67 282.36L297.45 282.55L297.22 282.73L296.98 282.91L296.74 283.09L296.5 283.25L296.25 283.41L295.99 283.57L295.73 283.72L295.47 283.86L295.2 283.99L294.93 284.12L294.65 284.24L294.37 284.36L294.09 284.46L293.8 284.56L225.6 307.3L225.51 307.33L225.43 307.35L225.34 307.38L225.25 307.41L225.16 307.43L225.08 307.45L224.99 307.48L224.9 307.5L224.81 307.52L224.72 307.54L224.63 307.56L224.54 307.58L224.46 307.6L224.37 307.62L224.28 307.64L224.19 307.65L224.1 307.67L224.01 307.69L223.92 307.7L223.83 307.71L223.74 307.73L223.65 307.74L223.56 307.75L223.47 307.76L223.38 307.77L223.29 307.78L223.2 307.79L223.1 307.8L223.01 307.81L222.92 307.81L222.83 307.82L222.74 307.83L222.65 307.83L222.56 307.83L222.47 307.84L222.38 307.84L222.29 307.84L222.19 307.84L222.1 307.84L222.01 307.84L221.6 307.83L221.18 307.81L220.77 307.77L220.37 307.72L219.97 307.65L219.57 307.57L219.18 307.48L218.8 307.37L218.41 307.25L218.04 307.12L217.67 306.97L217.31 306.81L216.95 306.64L216.6 306.46L216.26 306.26L215.92 306.06L215.6 305.84L215.28 305.61L214.96 305.37L214.66 305.12L214.37 304.86L214.08 304.59L213.81 304.31L213.54 304.03L213.28 303.73L213.04 303.42L212.8 303.1L212.58 302.78L212.36 302.45L212.16 302.1L211.97 301.75L211.79 301.4L211.62 301.03L211.47 300.66L211.32 300.28L211.19 299.9L211.08 299.51L210.98 299.11L210.89 298.71L210.81 298.3L210.76 297.89L210.71 297.48L210.68 297.07L210.67 296.66L210.67 296.25L210.68 295.85L210.71 295.45L210.76 295.05L210.81 294.65L210.88 294.26L210.97 293.87L211.07 293.49L211.18 293.11L211.3 292.73L211.44 292.36L211.59 292L211.75 291.64L211.92 291.29L212.11 290.94L212.3 290.6L212.51 290.27L212.73 289.94L212.96 289.63L213.2 289.32L213.46 289.02L213.72 288.72L214 288.44L214.28 288.16L214.57 287.9L214.88 287.64L215.19 287.4L215.51 287.16L215.85 286.94L216.19 286.73L216.54 286.53L216.9 286.34L217.26 286.16L217.64 285.99L218.02 285.84L218.42 285.7L286.62 262.97L286.91 262.88L287.2 262.79L287.49 262.72L287.79 262.65L288.08 262.59L288.38 262.53L288.67 262.49L288.97 262.45L289.26 262.42L289.56 262.4L289.86 262.39L290.15 262.39L290.45 262.39L290.74 262.4Z" id="cy1XsH3Ai"></path><path d="M381.79 262.36L382.09 262.38L382.39 262.41L382.68 262.45L382.98 262.49L383.27 262.54L383.57 262.6L383.86 262.67L384.16 262.75L384.45 262.83L384.74 262.92L452.94 285.65L453.33 285.79L453.72 285.94L454.1 286.1L454.48 286.28L454.84 286.46L455.2 286.66L455.54 286.88L455.88 287.1L456.21 287.33L456.53 287.58L456.84 287.83L457.14 288.1L457.43 288.37L457.7 288.65L457.97 288.95L458.23 289.25L458.48 289.56L458.71 289.88L458.94 290.21L459.15 290.54L459.35 290.88L459.54 291.23L459.72 291.58L459.88 291.94L460.03 292.31L460.17 292.68L460.3 293.06L460.41 293.44L460.51 293.83L460.6 294.22L460.67 294.62L460.73 295.01L460.78 295.42L460.81 295.82L460.82 296.23L460.82 296.64L460.81 297.05L460.78 297.46L460.74 297.88L460.68 298.29L460.6 298.71L460.51 299.11L460.41 299.51L460.29 299.91L460.16 300.3L460.02 300.68L459.86 301.05L459.69 301.42L459.51 301.78L459.32 302.13L459.11 302.48L458.9 302.81L458.67 303.14L458.43 303.46L458.18 303.77L457.92 304.07L457.65 304.36L457.37 304.64L457.08 304.91L456.78 305.17L456.47 305.42L456.16 305.66L455.83 305.89L455.5 306.1L455.16 306.31L454.81 306.5L454.46 306.68L454.1 306.85L453.73 307.01L453.36 307.15L452.98 307.28L452.59 307.4L452.2 307.51L451.81 307.6L451.4 307.67L451 307.74L450.59 307.79L450.18 307.82L449.76 307.84L449.34 307.84L449.25 307.84L449.16 307.84L449.07 307.84L448.98 307.84L448.88 307.83L448.79 307.83L448.7 307.82L448.61 307.82L448.52 307.81L448.43 307.8L448.34 307.8L448.25 307.79L448.16 307.78L448.07 307.77L447.98 307.76L447.89 307.75L447.8 307.73L447.7 307.72L447.61 307.71L447.52 307.69L447.43 307.68L447.34 307.66L447.25 307.65L447.17 307.63L447.08 307.61L446.99 307.59L446.9 307.57L446.81 307.55L446.72 307.53L446.63 307.51L446.54 307.49L446.45 307.46L446.36 307.44L446.28 307.42L446.19 307.39L446.1 307.36L446.01 307.34L445.93 307.31L445.84 307.28L445.75 307.25L377.55 284.52L377.26 284.42L376.98 284.31L376.7 284.2L376.42 284.08L376.15 283.95L375.88 283.81L375.62 283.67L375.36 283.52L375.11 283.37L374.86 283.21L374.61 283.04L374.37 282.87L374.14 282.69L373.91 282.5L373.68 282.31L373.46 282.12L373.24 281.91L373.04 281.71L372.83 281.49L372.63 281.28L372.44 281.05L372.25 280.83L372.07 280.59L371.9 280.36L371.73 280.11L371.57 279.87L371.41 279.62L371.26 279.36L371.12 279.1L370.98 278.84L370.85 278.57L370.73 278.3L370.61 278.03L370.5 277.75L370.4 277.46L370.3 277.18L370.21 276.89L370.13 276.6L370.06 276.31L370 276.01L369.94 275.71L369.89 275.41L369.85 275.11L369.82 274.81L369.79 274.51L369.78 274.21L369.77 273.91L369.76 273.62L369.77 273.32L369.79 273.02L369.81 272.73L369.84 272.43L369.88 272.14L369.92 271.84L369.97 271.55L370.03 271.27L370.1 270.98L370.17 270.69L370.26 270.41L370.35 270.13L370.44 269.85L370.55 269.58L370.66 269.3L370.78 269.03L370.9 268.76L371.03 268.5L371.17 268.24L371.32 267.98L371.47 267.73L371.63 267.48L371.8 267.23L371.97 266.99L372.15 266.75L372.33 266.52L372.53 266.29L372.73 266.06L372.93 265.84L373.14 265.63L373.36 265.42L373.59 265.21L373.82 265.01L374.05 264.82L374.29 264.63L374.53 264.46L374.78 264.28L375.03 264.12L375.29 263.96L375.54 263.81L375.8 263.67L376.07 263.53L376.34 263.41L376.61 263.28L376.88 263.17L377.15 263.06L377.43 262.96L377.71 262.87L378 262.78L378.28 262.71L378.57 262.64L378.85 262.57L379.14 262.52L379.43 262.47L379.73 262.43L380.02 262.4L380.31 262.37L380.61 262.35L380.9 262.34L381.2 262.34L381.5 262.35L381.79 262.36Z" id="cqEKyBrHP"></path><path d="M357.58 319.26L359.05 319.32L360.52 319.41L361.98 319.52L363.44 319.65L364.9 319.8L366.35 319.98L367.8 320.18L369.24 320.41L370.68 320.66L372.12 320.93L373.55 321.22L374.97 321.53L376.39 321.87L377.8 322.23L379.21 322.62L380.61 323.02L382 323.45L383.38 323.9L384.76 324.37L386.13 324.86L387.5 325.38L388.85 325.92L390.2 326.48L391.53 327.06L392.86 327.66L394.18 328.28L395.49 328.93L396.79 329.59L398.08 330.28L399.36 330.99L400.63 331.71L401.89 332.46L403.14 333.23L404.37 334.03L405.6 334.84L406.81 335.67L408.01 336.52L409.2 337.4L433.43 355.58L433.72 355.81L434 356.04L434.27 356.28L434.53 356.53L434.79 356.78L435.03 357.04L435.27 357.31L435.49 357.58L435.71 357.86L435.92 358.15L436.12 358.44L436.3 358.74L436.48 359.04L436.65 359.35L436.81 359.66L436.96 359.98L437.1 360.3L437.23 360.63L437.35 360.96L437.46 361.29L437.56 361.62L437.65 361.96L437.73 362.3L437.79 362.65L437.85 362.99L437.9 363.34L437.93 363.69L437.96 364.04L437.97 364.39L437.98 364.74L437.97 365.1L437.95 365.45L437.92 365.81L437.88 366.16L437.83 366.51L437.76 366.87L437.69 367.22L437.6 367.57L437.5 367.92L437.39 368.27L437.27 368.62L437.14 368.96L437 369.29L436.85 369.62L436.69 369.94L436.52 370.25L436.34 370.56L436.15 370.86L435.95 371.16L435.74 371.44L435.53 371.72L435.31 372L435.08 372.26L434.84 372.52L434.59 372.77L434.34 373.01L434.08 373.25L433.81 373.47L433.54 373.69L433.26 373.9L432.97 374.1L432.68 374.29L432.38 374.47L432.07 374.65L431.76 374.81L431.45 374.96L431.13 375.11L430.8 375.24L430.47 375.37L430.14 375.48L429.8 375.59L429.46 375.68L429.12 375.77L428.77 375.84L428.41 375.9L428.06 375.95L427.7 375.99L427.34 376.02L426.97 376.04L426.61 376.05L426.42 376.04L426.24 376.04L426.06 376.03L425.87 376.02L425.69 376.01L425.51 375.99L425.33 375.97L425.14 375.95L424.96 375.93L424.78 375.9L424.6 375.87L424.42 375.84L424.24 375.8L424.07 375.76L423.89 375.72L423.71 375.67L423.54 375.62L423.36 375.57L423.19 375.52L423.01 375.46L422.84 375.41L422.67 375.34L422.5 375.28L422.33 375.21L422.16 375.14L422 375.07L421.83 374.99L421.67 374.92L421.5 374.83L421.34 374.75L421.18 374.66L421.02 374.58L420.86 374.48L420.7 374.39L420.55 374.29L420.39 374.19L420.24 374.09L420.09 373.99L419.94 373.88L419.79 373.77L395.54 355.58L394.65 354.93L393.75 354.29L392.84 353.66L391.93 353.06L391 352.46L390.06 351.88L389.12 351.32L388.17 350.78L387.21 350.25L386.24 349.73L385.27 349.23L384.28 348.75L383.29 348.28L382.3 347.83L381.29 347.4L380.29 346.98L379.27 346.57L378.25 346.19L377.22 345.82L376.19 345.46L375.15 345.13L374.1 344.81L373.05 344.5L372 344.22L370.94 343.94L369.88 343.69L368.81 343.45L367.74 343.23L366.66 343.03L365.58 342.85L364.5 342.68L363.41 342.53L362.32 342.39L361.23 342.28L360.14 342.18L359.04 342.09L357.94 342.03L356.84 341.98L355.73 341.95L354.63 341.94L316.73 341.94L315.62 341.95L314.52 341.98L313.41 342.03L312.31 342.09L311.22 342.17L310.12 342.27L309.03 342.39L307.94 342.52L306.85 342.67L305.77 342.84L304.69 343.03L303.62 343.23L302.54 343.45L301.48 343.69L300.41 343.94L299.35 344.21L298.3 344.5L297.25 344.8L296.21 345.12L295.17 345.46L294.13 345.81L293.11 346.18L292.08 346.57L291.07 346.97L290.06 347.39L289.05 347.83L288.06 348.28L287.07 348.75L286.09 349.23L285.11 349.73L284.14 350.24L283.18 350.77L282.23 351.32L281.29 351.88L280.35 352.46L279.43 353.05L278.51 353.66L277.6 354.29L276.7 354.93L275.81 355.58L251.57 373.77L251.32 373.95L251.07 374.12L250.82 374.29L250.56 374.44L250.3 374.59L250.04 374.74L249.77 374.87L249.5 375L249.23 375.12L248.96 375.24L248.68 375.34L248.4 375.44L248.12 375.53L247.83 375.62L247.55 375.69L247.26 375.76L246.97 375.82L246.69 375.88L246.39 375.92L246.1 375.96L245.81 375.99L245.52 376.02L245.22 376.03L244.93 376.04L244.63 376.04L244.34 376.04L244.04 376.02L243.75 376L243.45 375.97L243.16 375.93L242.87 375.89L242.57 375.84L242.28 375.77L241.99 375.71L241.7 375.63L241.41 375.55L241.13 375.45L240.84 375.35L240.56 375.25L240.28 375.13L240 375.01L239.73 374.88L239.46 374.74L239.19 374.6L238.93 374.45L238.68 374.29L238.43 374.13L238.18 373.96L237.94 373.78L237.71 373.6L237.48 373.41L237.25 373.22L237.03 373.02L236.82 372.82L236.61 372.61L236.4 372.4L236.21 372.18L236.02 371.96L235.83 371.73L235.65 371.49L235.48 371.26L235.31 371.01L235.15 370.77L234.99 370.52L234.84 370.26L234.7 370L234.57 369.74L234.44 369.48L234.32 369.21L234.2 368.93L234.1 368.66L234 368.38L233.9 368.09L233.82 367.81L233.74 367.52L233.67 367.23L233.6 366.93L233.55 366.63L233.5 366.34L233.46 366.03L233.43 365.73L233.4 365.43L233.39 365.13L233.38 364.83L233.38 364.53L233.39 364.23L233.4 363.93L233.43 363.63L233.46 363.34L233.5 363.04L233.54 362.75L233.6 362.46L233.66 362.17L233.73 361.89L233.8 361.6L233.89 361.32L233.98 361.04L234.07 360.76L234.18 360.48L234.29 360.21L234.41 359.94L234.54 359.68L234.67 359.41L234.81 359.15L234.96 358.9L235.11 358.65L235.27 358.4L235.44 358.15L235.61 357.91L235.79 357.68L235.97 357.45L236.17 357.22L236.36 357L236.57 356.78L236.78 356.57L237 356.36L237.22 356.16L237.45 355.96L237.68 355.77L237.92 355.58L262.18 337.4L263.37 336.52L264.57 335.67L265.78 334.84L267 334.02L268.24 333.23L269.49 332.46L270.75 331.71L272.01 330.98L273.29 330.27L274.58 329.59L275.88 328.92L277.19 328.28L278.51 327.65L279.84 327.05L281.18 326.47L282.52 325.91L283.88 325.38L285.24 324.86L286.61 324.37L287.99 323.89L289.38 323.45L290.77 323.02L292.17 322.61L293.57 322.23L294.99 321.87L296.4 321.53L297.83 321.22L299.26 320.92L300.69 320.65L302.13 320.41L303.58 320.18L305.02 319.98L306.48 319.8L307.93 319.65L309.39 319.52L310.86 319.41L312.33 319.32L313.8 319.26L315.27 319.22L316.74 319.21L354.64 319.21L356.11 319.22L357.58 319.26Z" id="h2ztPybyjn"></path></defs><g><g><g><use xlink:href="#benGkjShK" opacity="1" fill="#2c2f38" fill-opacity="1"></use><g><use xlink:href="#benGkjShK" opacity="1" fill-opacity="0" stroke="#000000" stroke-width="1" stroke-opacity="0"></use></g></g><g><use xlink:href="#h1AXdhhQqM" opacity="1" fill="#2c2f38" fill-opacity="1"></use><g><use xlink:href="#h1AXdhhQqM" opacity="1" fill-opacity="0" stroke="#000000" stroke-width="1" stroke-opacity="0"></use></g></g><g><use xlink:href="#b496bqUFjT" opacity="1" fill="#2c2f38" fill-opacity="1"></use><g><use xlink:href="#b496bqUFjT" opacity="1" fill-opacity="0" stroke="#000000" stroke-width="1" stroke-opacity="0"></use></g></g><g><use xlink:href="#alW7RQNEt" opacity="1" fill="#2c3e50" fill-opacity="1"></use><g><use xlink:href="#alW7RQNEt" opacity="1" fill-opacity="0" stroke="#000000" stroke-width="1" stroke-opacity="0"></use></g></g><g><use xlink:href="#a9qurtCU0" opacity="1" fill="#35495e" fill-opacity="1"></use><g><use xlink:href="#a9qurtCU0" opacity="1" fill-opacity="0" stroke="#000000" stroke-width="1" stroke-opacity="0"></use></g></g><g><use xlink:href="#b1wuoNeqR" opacity="1" fill="#ff5364" fill-opacity="1"></use><g><use xlink:href="#b1wuoNeqR" opacity="1" fill-opacity="0" stroke="#000000" stroke-width="1" stroke-opacity="0"></use></g></g><g><use xlink:href="#d2hb2XgqsQ" opacity="1" fill="#ff5364" fill-opacity="1"></use><g><use xlink:href="#d2hb2XgqsQ" opacity="1" fill-opacity="0" stroke="#000000" stroke-width="1" stroke-opacity="0"></use></g></g><g><use xlink:href="#a4RXpRCpPp" opacity="1" fill="#2c2f38" fill-opacity="1"></use><g><use xlink:href="#a4RXpRCpPp" opacity="1" fill-opacity="0" stroke="#000000" stroke-width="1" stroke-opacity="0"></use></g></g><g><use xlink:href="#a2OV5Jp5QT" opacity="1" fill="#2c2f38" fill-opacity="1"></use><g><use xlink:href="#a2OV5Jp5QT" opacity="1" fill-opacity="0" stroke="#000000" stroke-width="1" stroke-opacity="0"></use></g></g><g><use xlink:href="#cy1XsH3Ai" opacity="1" fill="#2c2f38" fill-opacity="1"></use><g><use xlink:href="#cy1XsH3Ai" opacity="1" fill-opacity="0" stroke="#000000" stroke-width="1" stroke-opacity="0"></use></g></g><g><use xlink:href="#cqEKyBrHP" opacity="1" fill="#2c2f38" fill-opacity="1"></use><g><use xlink:href="#cqEKyBrHP" opacity="1" fill-opacity="0" stroke="#000000" stroke-width="1" stroke-opacity="0"></use></g></g><g><use xlink:href="#h2ztPybyjn" opacity="1" fill="#2c2f38" fill-opacity="1"></use><g><use xlink:href="#h2ztPybyjn" opacity="1" fill-opacity="0" stroke="#000000" stroke-width="1" stroke-opacity="0"></use></g></g></g></g></svg>