<?xml version="1.0" encoding="UTF-8" standalone="no"?>
<!DOCTYPE svg PUBLIC "-//W3C//DTD SVG 1.1//EN" "http://www.w3.org/Graphics/SVG/1.1/DTD/svg11.dtd">
<svg version="1.1" xmlns="http://www.w3.org/2000/svg" xmlns:xlink="http://www.w3.org/1999/xlink" preserveAspectRatio="xMidYMid meet" viewBox="0 0 150 500" width="150" height="500"><defs><path d="M73.26 452.39C65.31 463.34 60.89 469.42 60.01 470.64C37.33 481.72 24.72 487.89 22.2 489.11C18.87 490.74 15 488.33 15 484.63C15 482.27 15 463.46 15 461.11C15 459.19 16.09 457.46 17.8 456.62C23.43 453.86 37.5 446.98 60 435.98C61.77 438.17 66.19 443.64 73.26 452.39Z" id="d3jhAx3AN"></path><path d="M73.26 452.39C65.31 463.34 60.89 469.42 60.01 470.64C37.33 481.72 24.72 487.89 22.2 489.11C18.87 490.74 15 488.33 15 484.63C15 482.27 15 463.46 15 461.11C15 459.19 16.09 457.46 17.8 456.62C23.43 453.86 37.5 446.98 60 435.98C61.77 438.17 66.19 443.64 73.26 452.39Z" id="bTkozEjID"></path><path d="M73.25 401.89C65.31 412.83 60.88 418.92 60 420.14C58.89 420.13 57.77 420.37 56.72 420.9C53.26 422.59 25.65 436.08 22.2 437.77C18.88 439.4 15 436.97 15 433.28C15 432.17 15 423.35 15 422.24C15 412.69 20.45 403.98 29.02 399.78C33.15 397.77 43.48 392.72 60.01 384.64C62.66 388.09 71.93 400.17 73.25 401.89Z" id="bb2xWmOlE"></path><path d="M73.25 401.89C65.31 412.83 60.88 418.92 60 420.14C58.89 420.13 57.77 420.37 56.72 420.9C53.26 422.59 25.65 436.08 22.2 437.77C18.88 439.4 15 436.97 15 433.28C15 432.17 15 423.35 15 422.24C15 412.69 20.45 403.98 29.02 399.78C33.15 397.77 43.48 392.72 60.01 384.64C62.66 388.09 71.93 400.17 73.25 401.89Z" id="c2HBf9lLhr"></path><path d="M132.2 456.62C133.91 457.45 135.01 459.19 135 461.11C135 463.46 135.01 482.28 135 484.63C135 488.32 131.13 490.74 127.8 489.11C125.28 487.88 112.68 481.72 90.01 470.64C89.34 469.4 86.01 463.24 80.01 452.14L90 435.98C116.25 448.82 130.32 455.7 132.2 456.62Z" id="aklTi77Lr"></path><path d="M132.2 456.62C133.91 457.45 135.01 459.19 135 461.11C135 463.46 135.01 482.28 135 484.63C135 488.32 131.13 490.74 127.8 489.11C125.28 487.88 112.68 481.72 90.01 470.64C89.34 469.4 86.01 463.24 80.01 452.14L90 435.98C116.25 448.82 130.32 455.7 132.2 456.62Z" id="dxhpyj5Tf"></path><path d="M120.98 399.78C129.57 403.98 135.01 412.69 135 422.24C135 423.35 135.01 432.17 135 433.28C135 436.98 131.13 439.39 127.81 437.76C124.36 436.08 96.74 422.59 93.3 420.9C92.23 420.38 91.12 420.14 90 420.14C89.15 418.93 84.9 412.93 77.25 402.13C78.1 400.96 82.35 395.13 90.01 384.64C109.28 394.06 119.61 399.11 120.98 399.78Z" id="b11oQ4JW9"></path><path d="M120.98 399.78C129.57 403.98 135.01 412.69 135 422.24C135 423.35 135.01 432.17 135 433.28C135 436.98 131.13 439.39 127.81 437.76C124.36 436.08 96.74 422.59 93.3 420.9C92.23 420.38 91.12 420.14 90 420.14C89.15 418.93 84.9 412.93 77.25 402.13C78.1 400.96 82.35 395.13 90.01 384.64C109.28 394.06 119.61 399.11 120.98 399.78Z" id="baH51OS0V"></path><path d="M90.01 485.64C90.01 491.16 85.53 495.64 80.01 495.64C79 495.63 71 495.63 70.01 495.64C64.48 495.63 60.01 491.16 60.01 485.64C60 459.17 60 326.84 60.01 88.64C62.01 88.64 72.01 88.64 90 88.64C90 335.66 90 467.99 90.01 485.64Z" id="idDRBFIM8"></path><path d="M90.01 485.64C90.01 491.16 85.53 495.64 80.01 495.64C79 495.63 71 495.63 70.01 495.64C64.48 495.63 60.01 491.16 60.01 485.64C60 459.17 60 326.84 60.01 88.64C62.01 88.64 72.01 88.64 90 88.64C90 335.66 90 467.99 90.01 485.64Z" id="c6TLukU0t"></path><path d="M71.69 105.7C68.36 102.75 41.76 79.18 38.44 76.23C36.71 74.71 36.26 72.2 37.33 70.17C40.66 63.85 67.25 13.35 70.58 7.04C72.46 3.47 77.55 3.47 79.43 7.04C82.75 13.34 109.35 63.85 112.68 70.17C113.74 72.21 113.29 74.7 111.56 76.24C104.92 82.13 81.64 102.75 78.32 105.7C76.43 107.38 73.58 107.37 71.69 105.7Z" id="c8R7s0SXva"></path><path d="M71.69 105.7C68.36 102.75 41.76 79.18 38.44 76.23C36.71 74.71 36.26 72.2 37.33 70.17C40.66 63.85 67.25 13.35 70.58 7.04C72.46 3.47 77.55 3.47 79.43 7.04C82.75 13.34 109.35 63.85 112.68 70.17C113.74 72.21 113.29 74.7 111.56 76.24C104.92 82.13 81.64 102.75 78.32 105.7C76.43 107.38 73.58 107.37 71.69 105.7Z" id="a1H1e0AQtC"></path><path d="M79.42 7.03C82.75 13.35 109.35 63.85 112.67 70.16C113.75 72.21 113.29 74.7 111.56 76.24C108.24 79.18 81.65 102.75 78.32 105.69C77.37 106.54 76.19 106.95 75.01 106.95C75 86.44 75 24.89 75 4.37C76.74 4.37 78.48 5.26 79.42 7.03Z" id="c22WkRvKrE"></path><path d="M79.42 7.03C82.75 13.35 109.35 63.85 112.67 70.16C113.75 72.21 113.29 74.7 111.56 76.24C108.24 79.18 81.65 102.75 78.32 105.69C77.37 106.54 76.19 106.95 75.01 106.95C75 86.44 75 24.89 75 4.37C76.74 4.37 78.48 5.26 79.42 7.03Z" id="a1s3BS45sb"></path></defs><g><g><g><use xlink:href="#d3jhAx3AN" opacity="1" fill="#a9e0ff" fill-opacity="1"></use><g><use xlink:href="#d3jhAx3AN" opacity="1" fill-opacity="0" stroke="#000000" stroke-width="1" stroke-opacity="0"></use></g></g><g><use xlink:href="#bTkozEjID" opacity="1" fill="#000000" fill-opacity="0"></use><g><use xlink:href="#bTkozEjID" opacity="1" fill-opacity="0" stroke="#000000" stroke-width="1" stroke-opacity="0"></use></g></g><g><use xlink:href="#bb2xWmOlE" opacity="1" fill="#a9e0ff" fill-opacity="1"></use><g><use xlink:href="#bb2xWmOlE" opacity="1" fill-opacity="0" stroke="#000000" stroke-width="1" stroke-opacity="0"></use></g></g><g><use xlink:href="#c2HBf9lLhr" opacity="1" fill="#000000" fill-opacity="0"></use><g><use xlink:href="#c2HBf9lLhr" opacity="1" fill-opacity="0" stroke="#000000" stroke-width="1" stroke-opacity="0"></use></g></g><g><use xlink:href="#aklTi77Lr" opacity="1" fill="#a9e0ff" fill-opacity="1"></use><g><use xlink:href="#aklTi77Lr" opacity="1" fill-opacity="0" stroke="#000000" stroke-width="1" stroke-opacity="0"></use></g></g><g><use xlink:href="#dxhpyj5Tf" opacity="1" fill="#000000" fill-opacity="0"></use><g><use xlink:href="#dxhpyj5Tf" opacity="1" fill-opacity="0" stroke="#000000" stroke-width="1" stroke-opacity="0"></use></g></g><g><use xlink:href="#b11oQ4JW9" opacity="1" fill="#a9e0ff" fill-opacity="1"></use><g><use xlink:href="#b11oQ4JW9" opacity="1" fill-opacity="0" stroke="#000000" stroke-width="1" stroke-opacity="0"></use></g></g><g><use xlink:href="#baH51OS0V" opacity="1" fill="#000000" fill-opacity="0"></use><g><use xlink:href="#baH51OS0V" opacity="1" fill-opacity="0" stroke="#000000" stroke-width="1" stroke-opacity="0"></use></g></g><g><use xlink:href="#idDRBFIM8" opacity="1" fill="#dbb183" fill-opacity="1"></use><g><use xlink:href="#idDRBFIM8" opacity="1" fill-opacity="0" stroke="#000000" stroke-width="1" stroke-opacity="0"></use></g></g><g><use xlink:href="#c6TLukU0t" opacity="1" fill="#000000" fill-opacity="0"></use><g><use xlink:href="#c6TLukU0t" opacity="1" fill-opacity="0" stroke="#000000" stroke-width="1" stroke-opacity="0"></use></g></g><g><use xlink:href="#c8R7s0SXva" opacity="1" fill="#dddddd" fill-opacity="1"></use><g><use xlink:href="#c8R7s0SXva" opacity="1" fill-opacity="0" stroke="#000000" stroke-width="1" stroke-opacity="0"></use></g></g><g><use xlink:href="#a1H1e0AQtC" opacity="1" fill="#000000" fill-opacity="0"></use><g><use xlink:href="#a1H1e0AQtC" opacity="1" fill-opacity="0" stroke="#000000" stroke-width="1" stroke-opacity="0"></use></g></g><g><use xlink:href="#c22WkRvKrE" opacity="1" fill="#c4c4c4" fill-opacity="1"></use><g><use xlink:href="#c22WkRvKrE" opacity="1" fill-opacity="0" stroke="#000000" stroke-width="1" stroke-opacity="0"></use></g></g><g><use xlink:href="#a1s3BS45sb" opacity="1" fill="#000000" fill-opacity="0"></use><g><use xlink:href="#a1s3BS45sb" opacity="1" fill-opacity="0" stroke="#000000" stroke-width="1" stroke-opacity="0"></use></g></g></g></g></svg>