<?xml version="1.0" encoding="UTF-8" standalone="no"?>
<!DOCTYPE svg PUBLIC "-//W3C//DTD SVG 1.1//EN" "http://www.w3.org/Graphics/SVG/1.1/DTD/svg11.dtd">
<svg version="1.1" xmlns="http://www.w3.org/2000/svg" xmlns:xlink="http://www.w3.org/1999/xlink" preserveAspectRatio="xMidYMid meet" viewBox="0 0 500 500" width="500" height="500"><defs><path d="M320.39 415C318.98 428.46 318.2 435.93 318.04 437.43C303.94 458.37 296.11 470.01 294.54 472.33C292.47 475.41 287.91 475.25 286.06 472.05C284.88 470.01 275.48 453.72 274.3 451.68C273.34 450.02 273.42 447.97 274.48 446.39C277.98 441.19 286.72 428.2 300.71 407.42C303.33 408.43 309.89 410.96 320.39 415Z" id="a5XKEHE5yu"></path><path d="M320.39 415C318.98 428.46 318.2 435.93 318.04 437.43C303.94 458.37 296.11 470.01 294.54 472.33C292.47 475.41 287.91 475.25 286.06 472.05C284.88 470.01 275.48 453.72 274.3 451.68C273.34 450.02 273.42 447.97 274.48 446.39C277.98 441.19 286.72 428.2 300.71 407.42C303.33 408.43 309.89 410.96 320.39 415Z" id="d142CyCCwp"></path><path d="M295.14 371.27C293.73 384.72 292.94 392.2 292.79 393.7C291.82 394.25 290.97 395.02 290.32 396C288.17 399.19 271.01 424.68 268.86 427.87C266.8 430.94 262.23 430.78 260.38 427.58C259.83 426.62 255.42 418.98 254.87 418.02C250.09 409.75 250.45 399.48 255.78 391.56C258.35 387.75 264.77 378.21 275.04 362.95C279.06 364.61 293.13 370.44 295.14 371.27Z" id="eQomEpFHt"></path><path d="M295.14 371.27C293.73 384.72 292.94 392.2 292.79 393.7C291.82 394.25 290.97 395.02 290.32 396C288.17 399.19 271.01 424.68 268.86 427.87C266.8 430.94 262.23 430.78 260.38 427.58C259.83 426.62 255.42 418.98 254.87 418.02C250.09 409.75 250.45 399.48 255.78 391.56C258.35 387.75 264.77 378.21 275.04 362.95C279.06 364.61 293.13 370.44 295.14 371.27Z" id="aMXxwWQ7z"></path><path d="M373.55 389.19C375.45 389.06 377.27 390.02 378.22 391.68C379.4 393.72 388.81 410.01 389.98 412.05C391.83 415.25 389.69 419.28 385.99 419.53C383.19 419.73 369.2 420.69 344.02 422.43C342.83 421.7 336.86 418.02 326.11 411.41L326.69 392.42C355.84 390.41 371.46 389.34 373.55 389.19Z" id="bQ5snZ4pV"></path><path d="M373.55 389.19C375.45 389.06 377.27 390.02 378.22 391.68C379.4 393.72 388.81 410.01 389.98 412.05C391.83 415.25 389.69 419.28 385.99 419.53C383.19 419.73 369.2 420.69 344.02 422.43C342.83 421.7 336.86 418.02 326.11 411.41L326.69 392.42C355.84 390.41 371.46 389.34 373.55 389.19Z" id="a7lhXqKydG"></path><path d="M335.42 345.58C344.95 344.92 354.02 349.75 358.79 358.02C359.34 358.98 363.76 366.62 364.31 367.58C366.16 370.78 364.01 374.81 360.32 375.06C356.49 375.33 325.83 377.45 322 377.71C320.82 377.79 319.73 378.14 318.77 378.7C317.43 378.08 310.75 375.01 298.72 369.48C298.87 368.04 299.64 360.87 301.02 347.95C322.43 346.48 333.89 345.69 335.42 345.58Z" id="b4ccFk3VIx"></path><path d="M335.42 345.58C344.95 344.92 354.02 349.75 358.79 358.02C359.34 358.98 363.76 366.62 364.31 367.58C366.16 370.78 364.01 374.81 360.32 375.06C356.49 375.33 325.83 377.45 322 377.71C320.82 377.79 319.73 378.14 318.77 378.7C317.43 378.08 310.75 375.01 298.72 369.48C298.87 368.04 299.64 360.87 301.02 347.95C322.43 346.48 333.89 345.69 335.42 345.58Z" id="cyqpjxqaT"></path><path d="M351.52 435.42C354.28 440.2 352.64 446.32 347.86 449.08C346.99 449.58 340.06 453.58 339.2 454.08C334.41 456.84 328.3 455.2 325.54 450.42C312.3 427.5 246.14 312.9 127.04 106.61C128.77 105.61 137.43 100.61 153.02 91.61C276.53 305.54 342.69 420.14 351.52 435.42Z" id="a5vHO2kmvv"></path><path d="M351.52 435.42C354.28 440.2 352.64 446.32 347.86 449.08C346.99 449.58 340.06 453.58 339.2 454.08C334.41 456.84 328.3 455.2 325.54 450.42C312.3 427.5 246.14 312.9 127.04 106.61C128.77 105.61 137.43 100.61 153.02 91.61C276.53 305.54 342.69 420.14 351.52 435.42Z" id="a6XHLzcgNG"></path><path d="M145.69 115.54C141.33 114.65 106.51 107.54 102.16 106.65C99.9 106.19 98.26 104.25 98.17 101.95C97.89 94.82 95.67 37.78 95.4 30.65C95.24 26.63 99.65 24.08 103.06 26.23C109.09 30.03 157.38 60.47 163.42 64.28C165.36 65.51 166.22 67.9 165.49 70.09C162.68 78.52 152.83 108.01 151.43 112.23C150.63 114.63 148.16 116.05 145.69 115.54Z" id="cUwZee6aF"></path><path d="M145.69 115.54C141.33 114.65 106.51 107.54 102.16 106.65C99.9 106.19 98.26 104.25 98.17 101.95C97.89 94.82 95.67 37.78 95.4 30.65C95.24 26.63 99.65 24.08 103.06 26.23C109.09 30.03 157.38 60.47 163.42 64.28C165.36 65.51 166.22 67.9 165.49 70.09C162.68 78.52 152.83 108.01 151.43 112.23C150.63 114.63 148.16 116.05 145.69 115.54Z" id="cWHCEONqi"></path><path d="M103.05 26.23C109.09 30.04 157.38 60.47 163.41 64.28C165.37 65.51 166.22 67.9 165.49 70.09C164.08 74.3 152.84 108.01 151.43 112.22C151.03 113.43 150.21 114.38 149.19 114.97C138.93 97.21 108.15 43.9 97.89 26.13C99.4 25.26 101.35 25.16 103.05 26.23Z" id="dry4utQV9"></path><path d="M103.05 26.23C109.09 30.04 157.38 60.47 163.41 64.28C165.37 65.51 166.22 67.9 165.49 70.09C164.08 74.3 152.84 108.01 151.43 112.22C151.03 113.43 150.21 114.38 149.19 114.97C138.93 97.21 108.15 43.9 97.89 26.13C99.4 25.26 101.35 25.16 103.05 26.23Z" id="dpKvi15TZ"></path></defs><g><g><g><use xlink:href="#a5XKEHE5yu" opacity="1" fill="#a9e0ff" fill-opacity="1"></use><g><use xlink:href="#a5XKEHE5yu" opacity="1" fill-opacity="0" stroke="#000000" stroke-width="1" stroke-opacity="0"></use></g></g><g><use xlink:href="#d142CyCCwp" opacity="1" fill="#000000" fill-opacity="0"></use><g><use xlink:href="#d142CyCCwp" opacity="1" fill-opacity="0" stroke="#000000" stroke-width="1" stroke-opacity="0"></use></g></g><g><use xlink:href="#eQomEpFHt" opacity="1" fill="#a9e0ff" fill-opacity="1"></use><g><use xlink:href="#eQomEpFHt" opacity="1" fill-opacity="0" stroke="#000000" stroke-width="1" stroke-opacity="0"></use></g></g><g><use xlink:href="#aMXxwWQ7z" opacity="1" fill="#000000" fill-opacity="0"></use><g><use xlink:href="#aMXxwWQ7z" opacity="1" fill-opacity="0" stroke="#000000" stroke-width="1" stroke-opacity="0"></use></g></g><g><use xlink:href="#bQ5snZ4pV" opacity="1" fill="#a9e0ff" fill-opacity="1"></use><g><use xlink:href="#bQ5snZ4pV" opacity="1" fill-opacity="0" stroke="#000000" stroke-width="1" stroke-opacity="0"></use></g></g><g><use xlink:href="#a7lhXqKydG" opacity="1" fill="#000000" fill-opacity="0"></use><g><use xlink:href="#a7lhXqKydG" opacity="1" fill-opacity="0" stroke="#000000" stroke-width="1" stroke-opacity="0"></use></g></g><g><use xlink:href="#b4ccFk3VIx" opacity="1" fill="#a9e0ff" fill-opacity="1"></use><g><use xlink:href="#b4ccFk3VIx" opacity="1" fill-opacity="0" stroke="#000000" stroke-width="1" stroke-opacity="0"></use></g></g><g><use xlink:href="#cyqpjxqaT" opacity="1" fill="#000000" fill-opacity="0"></use><g><use xlink:href="#cyqpjxqaT" opacity="1" fill-opacity="0" stroke="#000000" stroke-width="1" stroke-opacity="0"></use></g></g><g><use xlink:href="#a5vHO2kmvv" opacity="1" fill="#dbb183" fill-opacity="1"></use><g><use xlink:href="#a5vHO2kmvv" opacity="1" fill-opacity="0" stroke="#000000" stroke-width="1" stroke-opacity="0"></use></g></g><g><use xlink:href="#a6XHLzcgNG" opacity="1" fill="#000000" fill-opacity="0"></use><g><use xlink:href="#a6XHLzcgNG" opacity="1" fill-opacity="0" stroke="#000000" stroke-width="1" stroke-opacity="0"></use></g></g><g><use xlink:href="#cUwZee6aF" opacity="1" fill="#dddddd" fill-opacity="1"></use><g><use xlink:href="#cUwZee6aF" opacity="1" fill-opacity="0" stroke="#000000" stroke-width="1" stroke-opacity="0"></use></g></g><g><use xlink:href="#cWHCEONqi" opacity="1" fill="#000000" fill-opacity="0"></use><g><use xlink:href="#cWHCEONqi" opacity="1" fill-opacity="0" stroke="#000000" stroke-width="1" stroke-opacity="0"></use></g></g><g><use xlink:href="#dry4utQV9" opacity="1" fill="#c4c4c4" fill-opacity="1"></use><g><use xlink:href="#dry4utQV9" opacity="1" fill-opacity="0" stroke="#000000" stroke-width="1" stroke-opacity="0"></use></g></g><g><use xlink:href="#dpKvi15TZ" opacity="1" fill="#000000" fill-opacity="0"></use><g><use xlink:href="#dpKvi15TZ" opacity="1" fill-opacity="0" stroke="#000000" stroke-width="1" stroke-opacity="0"></use></g></g></g></g></svg>