<?xml version="1.0" encoding="UTF-8" standalone="no"?>
<!DOCTYPE svg PUBLIC "-//W3C//DTD SVG 1.1//EN" "http://www.w3.org/Graphics/SVG/1.1/DTD/svg11.dtd">
<svg version="1.1" xmlns="http://www.w3.org/2000/svg" xmlns:xlink="http://www.w3.org/1999/xlink" preserveAspectRatio="xMidYMid meet" viewBox="0 0 500 500" width="500" height="500"><defs><path d="M467.3 215.57C448.99 226.15 302.5 310.73 284.18 321.3C280.6 323.37 277.74 321.14 275.67 317.55C273.6 313.96 273.1 310.38 276.68 308.31C295 297.73 441.49 213.16 459.8 202.58C463.39 200.51 467.98 201.74 470.05 205.33C472.12 208.92 470.89 213.5 467.3 215.57Z" id="d8V2UvSBD"></path><path d="M260.8 334.8C242.16 345.56 93.03 431.66 74.39 442.42C70.8 444.49 66.22 443.27 64.14 439.68C62.07 436.09 63.3 431.5 66.89 429.43C85.53 418.67 234.66 332.57 253.3 321.81C256.89 319.74 258.88 322.46 260.95 326.05C263.02 329.64 264.39 332.73 260.8 334.8Z" id="a7bWgVeFyX"></path><path d="M115.59 224.39L115.87 224.42L116.16 224.46L116.45 224.5L116.73 224.56L117.01 224.63L117.28 224.71L117.56 224.8L117.83 224.9L118.09 225.01L118.35 225.14L118.61 225.27L118.86 225.41L119.11 225.56L119.35 225.72L119.59 225.89L119.82 226.07L120.04 226.26L120.26 226.46L120.47 226.67L120.67 226.89L120.87 227.12L121.05 227.36L121.23 227.61L121.4 227.86L121.56 228.13L121.71 228.4L121.85 228.67L121.97 228.95L122.08 229.23L122.18 229.51L122.27 229.8L122.35 230.08L122.42 230.37L122.47 230.66L122.51 230.95L122.54 231.24L122.56 231.53L122.57 231.82L122.56 232.11L122.55 232.4L122.52 232.69L122.49 232.97L122.44 233.26L122.38 233.54L122.31 233.82L122.23 234.09L122.14 234.37L122.04 234.64L121.93 234.9L121.81 235.17L121.68 235.42L121.53 235.68L121.38 235.92L121.22 236.17L121.05 236.4L120.87 236.63L120.68 236.86L120.48 237.07L120.27 237.28L120.05 237.48L119.82 237.68L119.58 237.86L119.34 238.04L119.08 238.21L118.82 238.37L92.4 253.62L89.5 255.38L86.69 257.24L83.98 259.19L81.37 261.24L78.86 263.38L76.45 265.6L74.15 267.91L71.95 270.29L69.85 272.75L67.86 275.29L65.98 277.89L64.21 280.55L62.54 283.27L60.98 286.05L59.54 288.89L58.2 291.77L56.98 294.7L55.87 297.67L54.88 300.68L54 303.73L53.24 306.8L52.59 309.91L52.07 313.03L51.66 316.18L51.38 319.35L51.21 322.52L51.17 325.71L51.25 328.9L51.46 332.1L51.79 335.29L52.24 338.48L52.83 341.65L53.54 344.82L54.38 347.97L55.36 351.1L56.46 354.2L57.7 357.28L59.06 360.33L60.57 363.34L62.2 366.32L84.2 404.42L84.21 404.43L84.21 404.44L84.21 404.44L84.22 404.45L84.23 404.47L84.24 404.49L84.26 404.53L84.26 404.54L84.27 404.54L84.28 404.56L84.28 404.57L84.29 404.59L84.3 404.6L84.31 404.62L84.32 404.64L84.34 404.67L84.36 404.71L84.39 404.75L84.41 404.78L84.42 404.8L84.43 404.82L84.45 404.84L84.45 404.86L85 405.85L85.5 406.85L85.96 407.87L86.37 408.9L86.74 409.93L87.06 410.97L87.34 412.02L87.58 413.08L87.77 414.14L87.93 415.2L88.04 416.26L88.11 417.33L88.13 418.39L88.12 419.46L88.06 420.51L87.97 421.57L87.83 422.62L87.66 423.66L87.44 424.7L87.19 425.72L86.9 426.74L86.57 427.74L86.2 428.73L85.79 429.71L85.34 430.67L84.86 431.61L84.34 432.54L83.79 433.45L83.2 434.33L82.57 435.2L81.91 436.04L81.21 436.87L80.47 437.66L79.71 438.43L78.9 439.17L78.07 439.88L77.2 440.57L76.29 441.22L75.36 441.84L74.39 442.42L73.4 442.97L72.39 443.47L71.38 443.93L70.35 444.34L69.32 444.71L68.27 445.03L67.22 445.31L66.17 445.55L65.11 445.74L64.05 445.9L62.98 446.01L61.92 446.07L60.85 446.1L59.79 446.09L58.73 446.03L57.68 445.94L56.63 445.8L55.58 445.63L54.55 445.41L53.52 445.16L52.51 444.86L51.51 444.53L50.52 444.16L49.54 443.76L48.58 443.31L47.63 442.83L46.71 442.31L45.8 441.76L44.91 441.16L44.04 440.54L43.2 439.87L42.38 439.17L41.59 438.44L40.82 437.67L40.08 436.87L39.36 436.03L38.68 435.16L38.03 434.26L37.41 433.33L36.82 432.36L36.28 431.37L35.78 430.36L35.32 429.35L34.91 428.32L34.54 427.28L34.22 426.24L33.94 425.19L33.7 424.14L33.5 423.08L33.35 422.01L33.24 420.95L33.17 419.88L33.14 418.82L33.16 417.76L33.21 416.7L33.31 415.64L33.44 414.6L33.62 413.55L33.83 412.52L34.09 411.49L34.38 410.48L34.71 409.47L35.08 408.48L35.49 407.51L35.93 406.55L36.42 405.6L36.94 404.68L37.49 403.77L38.08 402.88L38.71 402.01L39.37 401.17L40.07 400.35L40.8 399.55L41.57 398.79L42.38 398.04L43.21 397.33L44.08 396.65L44.98 396L45.92 395.38L46.89 394.79L47.18 394.62L47.48 394.46L47.77 394.3L48.07 394.15L48.37 394L48.66 393.85L48.96 393.71L49.26 393.57L49.57 393.43L49.87 393.3L50.17 393.18L50.48 393.05L50.78 392.93L51.09 392.82L51.39 392.71L51.7 392.6L52.01 392.5L52.32 392.4L52.63 392.3L52.94 392.21L53.25 392.12L53.56 392.04L53.87 391.95L54.18 391.88L54.5 391.8L54.81 391.74L55.12 391.67L55.44 391.61L55.75 391.55L56.07 391.5L56.38 391.44L56.7 391.4L57.01 391.35L57.33 391.32L57.64 391.28L57.96 391.25L58.28 391.22L58.59 391.19L58.91 391.17L59.22 391.16L49.21 373.82L47.28 370.3L45.5 366.74L43.88 363.14L42.42 359.5L41.12 355.83L39.97 352.13L38.98 348.41L38.13 344.67L37.44 340.91L36.9 337.15L36.51 333.37L36.27 329.6L36.17 325.83L36.22 322.06L36.42 318.3L36.75 314.57L37.23 310.85L37.86 307.15L38.62 303.48L39.52 299.85L40.56 296.25L41.73 292.69L43.04 289.18L44.48 285.72L46.06 282.31L47.77 278.96L49.61 275.67L51.58 272.45L53.68 269.31L55.9 266.24L58.25 263.24L60.73 260.34L63.33 257.52L66.05 254.79L68.9 252.16L71.86 249.64L74.95 247.21L78.15 244.9L81.47 242.71L84.9 240.63L111.32 225.38L111.59 225.23L111.86 225.1L112.14 224.97L112.42 224.86L112.7 224.76L112.99 224.67L113.27 224.59L113.56 224.53L113.85 224.47L114.14 224.43L114.43 224.4L114.72 224.38L115.01 224.38L115.3 224.38L115.59 224.39ZM58.13 406.36L56.85 406.69L55.6 407.17L54.39 407.78L53.25 408.53L52.21 409.37L51.29 410.31L50.48 411.33L49.78 412.41L49.21 413.56L48.75 414.76L48.42 416L48.22 417.26L48.14 418.54L48.2 419.83L48.39 421.12L48.72 422.39L49.2 423.64L49.81 424.86L50.56 426L51.4 427.03L52.34 427.96L53.36 428.77L54.45 429.46L55.59 430.04L56.79 430.49L58.03 430.83L59.29 431.03L60.57 431.1L61.86 431.05L63.15 430.85L64.43 430.52L65.67 430.05L66.89 429.43L68.03 428.69L69.06 427.84L69.99 426.91L70.8 425.89L71.49 424.8L72.07 423.65L72.53 422.45L72.86 421.22L73.06 419.95L73.14 418.67L73.08 417.38L72.89 416.09L72.55 414.82L72.08 413.57L71.46 412.36L70.72 411.22L69.88 410.18L68.94 409.26L67.92 408.45L66.83 407.75L65.68 407.18L64.49 406.72L63.25 406.39L61.99 406.18L60.7 406.11L59.41 406.17L58.13 406.36Z" id="g11jiYT1kp"></path><path d="M345.66 109.33L349.4 109.67L353.12 110.15L356.82 110.77L360.49 111.53L364.12 112.44L367.72 113.47L371.28 114.65L374.79 115.96L378.25 117.4L381.66 118.98L385.01 120.69L388.29 122.53L391.51 124.5L394.66 126.6L397.73 128.82L400.73 131.17L403.63 133.65L406.45 136.25L409.18 138.97L411.81 141.82L414.33 144.78L416.75 147.86L419.06 151.07L421.26 154.38L423.34 157.82L433.35 175.16L433.52 174.89L433.7 174.63L433.88 174.37L434.06 174.11L434.24 173.85L434.43 173.59L434.62 173.34L434.82 173.09L435.02 172.84L435.22 172.59L435.42 172.35L435.63 172.1L435.84 171.86L436.06 171.62L436.27 171.39L436.49 171.15L436.71 170.92L436.94 170.69L437.17 170.46L437.4 170.24L437.64 170.02L437.87 169.8L438.11 169.58L438.36 169.36L438.61 169.15L438.86 168.94L439.11 168.73L439.36 168.53L439.62 168.33L439.88 168.13L440.15 167.93L440.42 167.74L440.69 167.55L440.96 167.36L441.24 167.17L441.52 166.99L441.8 166.81L442.08 166.63L442.37 166.46L442.66 166.29L443.65 165.75L444.66 165.24L445.67 164.79L446.7 164.38L447.74 164.01L448.78 163.68L449.83 163.4L450.88 163.17L451.94 162.97L453.01 162.82L454.07 162.71L455.14 162.64L456.2 162.61L457.26 162.63L458.32 162.68L459.38 162.78L460.42 162.91L461.47 163.09L462.5 163.3L463.53 163.56L464.54 163.85L465.55 164.18L466.54 164.55L467.51 164.96L468.47 165.4L469.42 165.88L470.34 166.4L471.25 166.96L472.14 167.55L473.01 168.18L473.85 168.84L474.67 169.54L475.47 170.27L476.23 171.04L476.98 171.84L477.69 172.68L478.37 173.55L479.02 174.45L479.64 175.39L480.23 176.36L480.77 177.35L481.28 178.35L481.73 179.37L482.14 180.4L482.51 181.43L482.84 182.47L483.12 183.52L483.35 184.58L483.55 185.64L483.7 186.7L483.81 187.76L483.88 188.83L483.91 189.89L483.89 190.96L483.84 192.01L483.74 193.07L483.61 194.12L483.43 195.16L483.22 196.2L482.96 197.22L482.67 198.24L482.34 199.24L481.97 200.23L481.56 201.21L481.12 202.17L480.64 203.11L480.12 204.04L479.56 204.95L478.97 205.83L478.34 206.7L477.68 207.54L476.98 208.37L476.25 209.16L475.48 209.93L474.68 210.67L473.84 211.38L472.97 212.07L472.07 212.72L471.13 213.34L470.16 213.92L469.17 214.47L468.17 214.97L467.15 215.43L466.12 215.84L465.09 216.21L464.05 216.53L463 216.81L461.94 217.05L460.88 217.24L459.82 217.4L458.75 217.51L457.69 217.57L456.63 217.6L455.56 217.59L454.5 217.53L453.45 217.44L452.4 217.3L451.36 217.13L450.32 216.91L449.3 216.66L448.28 216.36L447.28 216.03L446.29 215.66L445.31 215.26L444.35 214.81L443.41 214.33L442.48 213.81L441.57 213.26L440.68 212.66L439.82 212.04L438.97 211.37L438.15 210.67L437.36 209.94L436.59 209.17L435.85 208.37L435.14 207.53L434.45 206.66L433.8 205.76L433.18 204.83L432.6 203.86L432.59 203.85L432.58 203.84L432.58 203.83L432.57 203.81L432.56 203.79L432.54 203.76L432.53 203.74L432.52 203.71L432.5 203.69L432.49 203.67L432.48 203.64L432.47 203.62L432.46 203.6L432.45 203.58L432.44 203.56L432.44 203.56L432.43 203.55L432.42 203.54L432.42 203.53L432.42 203.53L432.41 203.52L432.38 203.48L432.38 203.47L432.38 203.47L432.37 203.46L432.36 203.45L432.35 203.43L432.35 203.42L410.35 165.32L408.59 162.41L406.73 159.6L404.78 156.9L402.73 154.29L400.59 151.78L398.37 149.37L396.06 147.07L393.67 144.87L391.21 142.77L388.68 140.78L386.08 138.9L383.42 137.12L380.7 135.46L377.92 133.9L375.08 132.45L372.2 131.12L369.27 129.9L366.3 128.79L363.29 127.8L360.24 126.92L357.17 126.16L354.06 125.51L350.94 124.99L347.79 124.58L344.62 124.29L341.45 124.13L338.26 124.09L335.07 124.17L331.87 124.37L328.68 124.7L325.49 125.16L322.32 125.75L319.15 126.46L316 127.3L312.87 128.27L309.76 129.38L306.69 130.61L303.64 131.98L300.62 133.48L297.65 135.12L271.24 150.37L270.97 150.52L270.69 150.66L270.41 150.78L270.13 150.9L269.85 151L269.57 151.08L269.28 151.16L268.99 151.23L268.7 151.28L268.41 151.32L268.12 151.35L267.83 151.37L267.54 151.38L267.25 151.37L266.96 151.36L266.68 151.33L266.39 151.3L266.11 151.25L265.82 151.19L265.55 151.12L265.27 151.04L265 150.95L264.73 150.85L264.46 150.74L264.2 150.62L263.94 150.49L263.69 150.34L263.44 150.19L263.2 150.03L262.96 149.86L262.73 149.68L262.51 149.49L262.29 149.29L262.08 149.08L261.88 148.86L261.68 148.63L261.5 148.39L261.32 148.15L261.15 147.89L260.99 147.63L260.84 147.36L260.7 147.08L260.58 146.8L260.47 146.52L260.37 146.24L260.28 145.96L260.2 145.67L260.14 145.38L260.08 145.09L260.04 144.8L260.01 144.51L259.99 144.22L259.98 143.93L259.99 143.64L260 143.35L260.03 143.07L260.07 142.78L260.11 142.5L260.17 142.21L260.24 141.94L260.32 141.66L260.41 141.39L260.51 141.12L260.62 140.85L260.74 140.59L260.88 140.33L261.02 140.08L261.17 139.83L261.33 139.59L261.5 139.35L261.68 139.12L261.87 138.9L262.07 138.68L262.28 138.47L262.5 138.27L262.73 138.07L262.97 137.89L263.22 137.71L263.47 137.54L263.74 137.38L290.15 122.13L293.67 120.2L297.23 118.42L300.83 116.8L304.47 115.34L308.14 114.04L311.84 112.89L315.56 111.89L319.3 111.05L323.06 110.36L326.82 109.82L330.6 109.43L334.37 109.19L338.14 109.09L341.91 109.14L345.66 109.33ZM453.9 177.86L452.63 178.19L451.38 178.67L450.16 179.28L449.02 180.03L447.99 180.87L447.06 181.81L446.25 182.83L445.56 183.91L444.98 185.06L444.53 186.26L444.19 187.5L443.99 188.76L443.92 190.04L443.97 191.33L444.17 192.62L444.5 193.89L444.97 195.14L445.59 196.36L446.33 197.5L447.18 198.53L448.11 199.46L449.13 200.27L450.22 200.96L451.37 201.54L452.56 201.99L453.8 202.33L455.07 202.53L456.35 202.6L457.64 202.55L458.93 202.35L460.2 202.02L461.45 201.55L462.66 200.93L463.8 200.19L464.84 199.34L465.76 198.41L466.57 197.39L467.27 196.3L467.84 195.15L468.3 193.95L468.63 192.72L468.84 191.45L468.91 190.17L468.85 188.88L468.66 187.59L468.33 186.32L467.85 185.07L467.24 183.86L466.49 182.72L465.65 181.68L464.71 180.76L463.69 179.95L462.61 179.25L461.46 178.68L460.26 178.22L459.02 177.89L457.76 177.68L456.48 177.61L455.19 177.67L453.9 177.86Z" id="a1tENyOUyP"></path><path d="M300.71 407.42L320.39 415L318.04 437.43C303.94 458.37 296.11 470.01 294.54 472.33C292.47 475.41 287.91 475.25 286.06 472.05C284.88 470.01 275.48 453.72 274.3 451.68C273.34 450.02 273.42 447.97 274.48 446.39C277.98 441.19 286.72 428.2 300.71 407.42Z" id="c15iuZtHEm"></path><path d="M275.04 362.95L295.14 371.27C293.73 384.72 292.94 392.2 292.79 393.7C291.82 394.25 290.97 395.02 290.32 396C288.17 399.19 271.01 424.68 268.86 427.87C266.8 430.94 262.23 430.78 260.38 427.58C259.83 426.62 255.42 418.98 254.87 418.02C250.09 409.75 250.45 399.48 255.78 391.56C258.35 387.75 264.77 378.21 275.04 362.95Z" id="b2NkZd0hfu"></path><path d="M326.69 392.42C354.81 390.48 370.42 389.41 373.55 389.19C375.45 389.06 377.27 390.02 378.22 391.68C379.4 393.72 388.81 410.01 389.98 412.05C391.83 415.25 389.69 419.28 385.99 419.53C383.19 419.73 369.2 420.69 344.02 422.43L326.11 411.41L326.69 392.42Z" id="a29faHjQbE"></path><path d="M301.02 347.95C321.66 346.53 333.13 345.74 335.42 345.58C344.95 344.92 354.02 349.75 358.79 358.02C359.34 358.98 363.76 366.62 364.31 367.58C366.16 370.78 364.01 374.81 360.32 375.06C356.49 375.33 325.83 377.45 322 377.71C320.82 377.79 319.73 378.14 318.77 378.7C317.43 378.08 310.75 375.01 298.72 369.48L301.02 347.95Z" id="aginKkPXL"></path><path d="M250.89 136.14L265.89 162.12C278.88 154.62 286.1 150.45 287.54 149.62C292.33 146.86 293.97 140.74 291.2 135.96C290.7 135.09 286.7 128.16 286.2 127.3C283.44 122.51 277.33 120.87 272.54 123.64C269.66 125.3 262.44 129.47 250.89 136.14Z" id="e8kXsl0qn"></path><path d="M116.66 213.64L131.66 239.62C118.67 247.12 111.45 251.28 110.01 252.12C105.23 254.88 99.11 253.24 96.35 248.46C95.85 247.59 91.85 240.66 91.35 239.8C88.59 235.01 90.23 228.9 95.01 226.14C97.9 224.47 105.11 220.3 116.66 213.64Z" id="c1DhyPXSlr"></path><path d="M144.74 252.27L112.24 195.98L237.81 123.48L270.31 179.77L144.74 252.27Z" id="a3kMBnF3dP"></path><path d="M140.23 214.46L125.23 188.48L224.82 130.98L239.82 156.96L140.23 214.46Z" id="fORGYPRaJ"></path><path d="M160.23 249.1C162.99 253.89 161.35 260 156.57 262.76C155.7 263.26 148.77 267.26 147.91 267.76C143.13 270.52 137.01 268.89 134.25 264.1C130.5 257.61 100.5 205.65 96.75 199.15C93.99 194.37 95.63 188.25 100.41 185.49C101.27 184.99 108.2 180.99 109.07 180.49C113.85 177.73 119.97 179.37 122.73 184.15C130.23 197.14 156.48 242.61 160.23 249.1Z" id="aHZVl1E89"></path><path d="M109.07 180.49C113.85 177.73 119.97 179.37 122.73 184.15C124.23 186.75 136.23 207.53 137.73 210.13C134.97 205.35 128.85 203.71 124.07 206.47C123.2 206.97 116.27 210.97 115.41 211.47C110.63 214.23 108.99 220.35 111.75 225.13C110.25 222.53 98.25 201.75 96.75 199.15C93.99 194.37 95.63 188.25 100.41 185.49C102.14 184.49 108.2 180.99 109.07 180.49Z" id="e2T5PtapDM"></path><path d="M285.8 176.6C288.56 181.39 286.93 187.5 282.14 190.26C281.28 190.76 274.35 194.76 273.48 195.26C268.7 198.02 262.58 196.39 259.82 191.6C256.07 185.11 226.07 133.15 222.32 126.65C219.56 121.87 221.2 115.75 225.98 112.99C226.85 112.49 233.78 108.49 234.64 107.99C239.43 105.23 245.54 106.87 248.3 111.65C255.8 124.64 282.05 170.11 285.8 176.6Z" id="b1pIaKQBM2"></path><path d="M234.64 107.99C239.42 105.23 245.54 106.87 248.3 111.65C249.8 114.25 261.8 135.03 263.3 137.63C260.54 132.85 254.42 131.21 249.64 133.97C248.78 134.47 241.85 138.47 240.98 138.97C236.2 141.73 234.56 147.85 237.32 152.63C235.82 150.03 223.82 129.25 222.32 126.65C219.56 121.87 221.2 115.75 225.98 112.99C227.71 111.99 233.78 108.49 234.64 107.99Z" id="baZRoNuwH"></path><path d="M153.02 91.61C272.12 297.9 338.28 412.5 351.52 435.42C354.28 440.2 352.64 446.32 347.86 449.08C346.99 449.58 340.06 453.58 339.2 454.08C334.41 456.84 328.3 455.2 325.54 450.42C312.3 427.5 246.14 312.9 127.04 106.61L153.02 91.61Z" id="aHKa9EEPS"></path><path d="M151.43 112.23C150.63 114.63 148.16 116.05 145.69 115.54C141.33 114.65 106.51 107.54 102.16 106.65C99.9 106.19 98.26 104.25 98.17 101.95C97.89 94.82 95.67 37.78 95.4 30.65C95.24 26.63 99.65 24.08 103.06 26.23C109.09 30.03 157.38 60.47 163.42 64.28C165.36 65.51 166.22 67.9 165.49 70.09C162.68 78.52 152.83 108.01 151.43 112.23Z" id="bqCPCfyRQ"></path><path d="M97.89 26.13C99.4 25.26 101.35 25.16 103.05 26.23C109.09 30.04 157.38 60.47 163.41 64.28C165.37 65.51 166.22 67.9 165.49 70.09C164.08 74.3 152.84 108.01 151.43 112.22C151.03 113.43 150.21 114.38 149.19 114.97C138.93 97.21 108.15 43.9 97.89 26.13Z" id="aY50YpPwT"></path></defs><g><g><g><use xlink:href="#d8V2UvSBD" opacity="1" fill="#dddddd" fill-opacity="1"></use><g><use xlink:href="#d8V2UvSBD" opacity="1" fill-opacity="0" stroke="#000000" stroke-width="1" stroke-opacity="0"></use></g></g><g><use xlink:href="#a7bWgVeFyX" opacity="1" fill="#dddddd" fill-opacity="1"></use><g><use xlink:href="#a7bWgVeFyX" opacity="1" fill-opacity="0" stroke="#000000" stroke-width="1" stroke-opacity="0"></use></g></g><g><use xlink:href="#g11jiYT1kp" opacity="1" fill="#94a1a8" fill-opacity="1"></use><g><use xlink:href="#g11jiYT1kp" opacity="1" fill-opacity="0" stroke="#000000" stroke-width="1" stroke-opacity="0"></use></g></g><g><use xlink:href="#a1tENyOUyP" opacity="1" fill="#94a1a8" fill-opacity="1"></use><g><use xlink:href="#a1tENyOUyP" opacity="1" fill-opacity="0" stroke="#000000" stroke-width="1" stroke-opacity="0"></use></g></g><g><use xlink:href="#c15iuZtHEm" opacity="1" fill="#a9e0ff" fill-opacity="1"></use><g><use xlink:href="#c15iuZtHEm" opacity="1" fill-opacity="0" stroke="#000000" stroke-width="1" stroke-opacity="0"></use></g></g><g><use xlink:href="#b2NkZd0hfu" opacity="1" fill="#a9e0ff" fill-opacity="1"></use><g><use xlink:href="#b2NkZd0hfu" opacity="1" fill-opacity="0" stroke="#000000" stroke-width="1" stroke-opacity="0"></use></g></g><g><use xlink:href="#a29faHjQbE" opacity="1" fill="#a9e0ff" fill-opacity="1"></use><g><use xlink:href="#a29faHjQbE" opacity="1" fill-opacity="0" stroke="#000000" stroke-width="1" stroke-opacity="0"></use></g></g><g><use xlink:href="#aginKkPXL" opacity="1" fill="#a9e0ff" fill-opacity="1"></use><g><use xlink:href="#aginKkPXL" opacity="1" fill-opacity="0" stroke="#000000" stroke-width="1" stroke-opacity="0"></use></g></g><g><use xlink:href="#e8kXsl0qn" opacity="1" fill="#a9e0ff" fill-opacity="1"></use><g><use xlink:href="#e8kXsl0qn" opacity="1" fill-opacity="0" stroke="#000000" stroke-width="1" stroke-opacity="0"></use></g></g><g><use xlink:href="#c1DhyPXSlr" opacity="1" fill="#a9e0ff" fill-opacity="1"></use><g><use xlink:href="#c1DhyPXSlr" opacity="1" fill-opacity="0" stroke="#000000" stroke-width="1" stroke-opacity="0"></use></g></g><g><use xlink:href="#a3kMBnF3dP" opacity="1" fill="#ffe285" fill-opacity="1"></use><g><use xlink:href="#a3kMBnF3dP" opacity="1" fill-opacity="0" stroke="#000000" stroke-width="1" stroke-opacity="0"></use></g></g><g><use xlink:href="#fORGYPRaJ" opacity="1" fill="#f2c366" fill-opacity="1"></use><g><use xlink:href="#fORGYPRaJ" opacity="1" fill-opacity="0" stroke="#000000" stroke-width="1" stroke-opacity="0"></use></g></g><g><use xlink:href="#aHZVl1E89" opacity="1" fill="#f2c366" fill-opacity="1"></use><g><use xlink:href="#aHZVl1E89" opacity="1" fill-opacity="0" stroke="#000000" stroke-width="1" stroke-opacity="0"></use></g></g><g><use xlink:href="#e2T5PtapDM" opacity="1" fill="#f4aa40" fill-opacity="1"></use><g><use xlink:href="#e2T5PtapDM" opacity="1" fill-opacity="0" stroke="#000000" stroke-width="1" stroke-opacity="0"></use></g></g><g><use xlink:href="#b1pIaKQBM2" opacity="1" fill="#f2c366" fill-opacity="1"></use><g><use xlink:href="#b1pIaKQBM2" opacity="1" fill-opacity="0" stroke="#000000" stroke-width="1" stroke-opacity="0"></use></g></g><g><use xlink:href="#baZRoNuwH" opacity="1" fill="#f4aa40" fill-opacity="1"></use><g><use xlink:href="#baZRoNuwH" opacity="1" fill-opacity="0" stroke="#000000" stroke-width="1" stroke-opacity="0"></use></g></g><g><use xlink:href="#aHKa9EEPS" opacity="1" fill="#dbb183" fill-opacity="1"></use><g><use xlink:href="#aHKa9EEPS" opacity="1" fill-opacity="0" stroke="#000000" stroke-width="1" stroke-opacity="0"></use></g></g><g><use xlink:href="#bqCPCfyRQ" opacity="1" fill="#dddddd" fill-opacity="1"></use><g><use xlink:href="#bqCPCfyRQ" opacity="1" fill-opacity="0" stroke="#000000" stroke-width="1" stroke-opacity="0"></use></g></g><g><use xlink:href="#aY50YpPwT" opacity="1" fill="#c4c4c4" fill-opacity="1"></use><g><use xlink:href="#aY50YpPwT" opacity="1" fill-opacity="0" stroke="#000000" stroke-width="1" stroke-opacity="0"></use></g></g></g></g></svg>