<?xml version="1.0" encoding="UTF-8" standalone="no"?>
<!DOCTYPE svg PUBLIC "-//W3C//DTD SVG 1.1//EN" "http://www.w3.org/Graphics/SVG/1.1/DTD/svg11.dtd">
<svg version="1.1" xmlns="http://www.w3.org/2000/svg" xmlns:xlink="http://www.w3.org/1999/xlink" preserveAspectRatio="xMidYMid meet" viewBox="0 0 300 724" width="300" height="724"><defs><path d="M268.91 365.58L268.66 365.58" id="a17YuuOzYM"></path><path d="M196.57 373.63C197.38 365.71 201.75 317 222.34 89.8C222.72 84.93 221.1 80.1 217.85 76.45C212.52 70.5 169.87 22.96 164.54 17.02C161.12 13.21 156.24 11.03 151.12 11.03C146 11.03 141.12 13.21 137.7 17.02C132.37 22.96 89.67 70.45 84.33 76.38C81.04 80.07 79.42 84.95 79.84 89.87C113.93 466.51 103.54 349.97 105.56 373.63C123.76 373.63 178.36 373.63 196.57 373.63Z" id="a1PqThICF1"></path><path d="M217.85 76.45C221.1 80.1 222.72 84.93 222.34 89.8C201.88 315.49 197.36 365.78 196.57 373.63C193.53 370.6 178.36 355.43 151.06 328.13C151.06 137.87 151.06 32.17 151.06 11.03C156.21 10.99 161.13 13.17 164.54 17.02C164.54 17.02 212.52 70.5 217.85 76.45Z" id="b1z3lb2x5"></path><path d="M133.15 647.28L124.53 536.42L151.59 530.18L177.59 536.42L168.98 647.28L133.15 647.28Z" id="asnmJdhbY"></path><path d="M151.07 712.97C131.58 712.97 115.77 697.16 115.77 677.67C115.77 658.17 131.56 642.36 151.06 642.35C170.56 642.38 186.36 658.18 186.39 677.68C186.38 697.18 170.57 712.97 151.07 712.97Z" id="b2QT8580Ap"></path><path d="M151.07 682.83C141.32 682.83 133.42 674.93 133.42 665.18C133.42 655.43 141.31 647.53 151.06 647.52C160.81 647.53 168.72 655.44 168.73 665.19C168.72 674.94 160.82 682.83 151.07 682.83Z" id="a8HbTycgyl"></path><path d="M151.06 328.13C178.36 355.43 193.53 370.6 196.57 373.63C192.63 416.91 194.73 393.75 186.64 483.18C184.27 484.49 172.41 491.07 151.06 502.9L115.48 483.18L105.56 373.63L151.06 328.13Z" id="b3CM1H8dR"></path><path d="M147.71 491.62C144.41 490.25 142.26 487.04 142.26 483.47C142.26 475.52 142.25 411.97 142.25 404.02C137.38 404.02 133.43 400.07 133.43 395.2C133.43 380.22 159.92 385.12 159.91 404.03C159.91 411.97 159.91 475.52 159.91 483.47C159.91 485.81 158.98 488.05 157.33 489.71C154.8 492.23 151.01 492.99 147.71 491.62Z" id="g2JpHF2wQI"></path><path d="M159.9 404.03C160 407.25 158.34 410.27 155.57 411.91C152.8 413.54 149.35 413.54 146.58 411.9C143.81 410.26 142.15 407.24 142.25 404.02C142.48 394.36 150.25 386.59 159.91 386.36C163.48 386.36 166.7 388.52 168.07 391.82C169.43 395.12 168.68 398.92 166.15 401.44C164.49 403.1 162.24 404.03 159.9 404.03Z" id="a4XBlslANA"></path><path d="M275.9 501.16C275.88 520.62 260.1 536.4 240.63 536.42C221.85 536.42 71.54 536.42 52.75 536.42C33.25 536.39 17.45 520.59 17.42 501.09C17.42 500.21 17.47 493.17 17.48 492.29C17.43 489.94 18.35 487.68 20.01 486.02C21.67 484.36 23.93 483.44 26.28 483.49C50.36 483.49 243.02 483.49 267.1 483.49C271.14 483.49 274.67 486.25 275.65 490.17C276 491.44 275.9 491.78 275.9 501.16Z" id="aBKuJVH2k"></path></defs><g><g><g><use xlink:href="#a17YuuOzYM" opacity="1" fill="#a5a5a4" fill-opacity="1"></use><g><use xlink:href="#a17YuuOzYM" opacity="1" fill-opacity="0" stroke="#000000" stroke-width="1" stroke-opacity="0"></use></g></g><g><use xlink:href="#a1PqThICF1" opacity="1" fill="#d1d4d1" fill-opacity="1"></use><g><use xlink:href="#a1PqThICF1" opacity="1" fill-opacity="0" stroke="#000000" stroke-width="1" stroke-opacity="0"></use></g></g><g><use xlink:href="#b1z3lb2x5" opacity="1" fill="#a5a5a4" fill-opacity="1"></use><g><use xlink:href="#b1z3lb2x5" opacity="1" fill-opacity="0" stroke="#000000" stroke-width="1" stroke-opacity="0"></use></g></g><g><use xlink:href="#asnmJdhbY" opacity="1" fill="#a56a43" fill-opacity="1"></use><g><use xlink:href="#asnmJdhbY" opacity="1" fill-opacity="0" stroke="#000000" stroke-width="1" stroke-opacity="0"></use></g></g><g><use xlink:href="#b2QT8580Ap" opacity="1" fill="#f0c419" fill-opacity="1"></use><g><use xlink:href="#b2QT8580Ap" opacity="1" fill-opacity="0" stroke="#000000" stroke-width="1" stroke-opacity="0"></use></g></g><g><use xlink:href="#a8HbTycgyl" opacity="1" fill="#f3d55b" fill-opacity="1"></use><g><use xlink:href="#a8HbTycgyl" opacity="1" fill-opacity="0" stroke="#000000" stroke-width="1" stroke-opacity="0"></use></g></g><g><use xlink:href="#b3CM1H8dR" opacity="1" fill="#f0c419" fill-opacity="1"></use><g><use xlink:href="#b3CM1H8dR" opacity="1" fill-opacity="0" stroke="#000000" stroke-width="1" stroke-opacity="0"></use></g></g><g><use xlink:href="#g2JpHF2wQI" opacity="1" fill="#f29c1f" fill-opacity="1"></use><g><use xlink:href="#g2JpHF2wQI" opacity="1" fill-opacity="0" stroke="#000000" stroke-width="1" stroke-opacity="0"></use></g></g><g><use xlink:href="#a4XBlslANA" opacity="1" fill="#f29c1f" fill-opacity="1"></use><g><use xlink:href="#a4XBlslANA" opacity="1" fill-opacity="0" stroke="#000000" stroke-width="1" stroke-opacity="0"></use></g></g><g><use xlink:href="#aBKuJVH2k" opacity="1" fill="#f3d55b" fill-opacity="1"></use><g><use xlink:href="#aBKuJVH2k" opacity="1" fill-opacity="0" stroke="#000000" stroke-width="1" stroke-opacity="0"></use></g></g></g></g></svg>