<?xml version="1.0" encoding="UTF-8" standalone="no"?>
<!DOCTYPE svg PUBLIC "-//W3C//DTD SVG 1.1//EN" "http://www.w3.org/Graphics/SVG/1.1/DTD/svg11.dtd">
<svg version="1.1" xmlns="http://www.w3.org/2000/svg" xmlns:xlink="http://www.w3.org/1999/xlink" preserveAspectRatio="xMidYMid meet" viewBox="0 0 300 800" width="300" height="800"><defs><path d="M186.92 31.21C181.19 31.21 176.54 35.86 176.54 41.59C176.54 57.65 176.54 137.96 176.54 282.52L197.3 282.52L197.3 41.59C194.2 34.67 190.74 31.21 186.92 31.21Z" id="e199iI1gZV"></path><path d="M116.19 31.21C110.46 31.21 105.81 35.86 105.81 41.59C105.81 57.65 105.81 137.96 105.81 282.52L126.57 282.52L126.57 41.59C123.47 34.67 120.01 31.22 116.19 31.21Z" id="d1dsWMzSpQ"></path><path d="M250.35 31.21C244.62 31.21 239.97 35.86 239.97 41.59C239.97 57.65 239.97 137.96 239.97 282.52L260.73 268.68L260.73 41.59C257.63 34.67 254.17 31.21 250.35 31.21Z" id="dcGjIpKfT"></path><path d="M64.68 41.59C64.68 35.86 60.03 31.22 54.3 31.21C48.57 31.21 43.92 35.86 43.92 41.59C43.92 56.73 43.92 132.43 43.92 268.68L64.68 282.52C64.68 137.96 64.68 57.65 64.68 41.59Z" id="d2f6r36frn"></path><path d="M108.05 324.04L85.43 268.68L43.92 268.68C43.92 288.32 43.92 299.23 43.92 301.41C43.92 313.9 54.05 324.03 66.54 324.04C72.08 324.04 85.91 324.04 108.05 324.04Z" id="c1BbMgjBv"></path><path d="M85.43 268.68L260.73 268.68C260.73 288.32 260.73 299.23 260.73 301.41C260.73 313.91 250.6 324.03 238.1 324.04C225.1 324.04 121.06 324.04 108.06 324.04C95.56 324.04 85.43 313.91 85.43 301.41C85.43 297.05 85.43 286.14 85.43 268.68Z" id="azc3UQqB5"></path><path d="M133.26 420.4L152.33 392.73L171.39 420.4C171.39 573.18 171.39 658.05 171.39 675.03C165.55 672.48 159.12 671.07 152.32 671.07C145.53 671.07 139.1 672.48 133.26 675.03C133.26 641.08 133.26 556.2 133.26 420.4Z" id="n263WmSJM"></path><path d="M133.26 364.54C133.26 364.54 133.26 364.54 133.26 364.54C156.14 364.54 168.85 364.54 171.39 364.54C171.39 364.54 171.39 364.54 171.39 364.54C171.39 398.05 171.39 416.67 171.39 420.39C171.39 420.39 171.39 420.39 171.39 420.39C148.51 420.39 135.8 420.39 133.26 420.39C133.26 420.39 133.26 420.39 133.26 420.39C133.26 386.88 133.26 368.27 133.26 364.54Z" id="e1RURrwIHK"></path><path d="M210.45 718.81C210.45 720.07 210.45 726.37 210.45 737.71L189.69 751.55C189.69 731.91 189.7 721 189.7 718.81C189.7 698.21 172.93 681.44 152.33 681.44C131.72 681.44 114.96 698.21 114.96 718.81C114.96 721 114.96 731.91 114.96 751.55L94.2 737.71C94.2 726.37 94.2 720.07 94.2 718.81C94.2 686.76 120.27 660.69 152.32 660.69C184.38 660.69 210.45 686.76 210.45 718.81Z" id="a2mQjbnLa"></path><path d="M94.19 737.71L135.71 737.71L163.38 756.78L135.71 775.85L94.19 775.85L94.19 737.71Z" id="bgjSqYKHS"></path><path d="M135.7 737.72C135.7 737.72 135.7 737.72 135.7 737.72C180.55 737.72 205.47 737.72 210.46 737.72C210.46 737.72 210.46 737.72 210.46 737.72C210.46 760.6 210.46 773.32 210.46 775.86C210.46 775.86 210.46 775.86 210.46 775.86C165.6 775.86 140.69 775.86 135.7 775.86C135.7 775.86 135.7 775.86 135.7 775.86C135.7 752.98 135.7 740.27 135.7 737.72Z" id="badlaM5a8"></path><path d="M176.54 324.03C176.54 310.66 165.7 299.82 152.33 299.82C138.95 299.82 128.11 310.66 128.11 324.03C128.11 327.69 128.11 345.98 128.11 378.89L176.54 378.89C176.54 345.98 176.54 327.69 176.54 324.03Z" id="b2oPXouRyw"></path></defs><g><g><g><use xlink:href="#e199iI1gZV" opacity="1" fill="#777355" fill-opacity="1"></use><g><use xlink:href="#e199iI1gZV" opacity="1" fill-opacity="0" stroke="#000000" stroke-width="1" stroke-opacity="0"></use></g></g><g><use xlink:href="#d1dsWMzSpQ" opacity="1" fill="#777355" fill-opacity="1"></use><g><use xlink:href="#d1dsWMzSpQ" opacity="1" fill-opacity="0" stroke="#000000" stroke-width="1" stroke-opacity="0"></use></g></g><g><use xlink:href="#dcGjIpKfT" opacity="1" fill="#777355" fill-opacity="1"></use><g><use xlink:href="#dcGjIpKfT" opacity="1" fill-opacity="0" stroke="#000000" stroke-width="1" stroke-opacity="0"></use></g></g><g><use xlink:href="#d2f6r36frn" opacity="1" fill="#777355" fill-opacity="1"></use><g><use xlink:href="#d2f6r36frn" opacity="1" fill-opacity="0" stroke="#000000" stroke-width="1" stroke-opacity="0"></use></g></g><g><use xlink:href="#c1BbMgjBv" opacity="1" fill="#6f6c51" fill-opacity="1"></use><g><use xlink:href="#c1BbMgjBv" opacity="1" fill-opacity="0" stroke="#000000" stroke-width="1" stroke-opacity="0"></use></g></g><g><use xlink:href="#azc3UQqB5" opacity="1" fill="#908c69" fill-opacity="1"></use><g><use xlink:href="#azc3UQqB5" opacity="1" fill-opacity="0" stroke="#000000" stroke-width="1" stroke-opacity="0"></use></g></g><g><use xlink:href="#n263WmSJM" opacity="1" fill="#fcdb5a" fill-opacity="1"></use><g><use xlink:href="#n263WmSJM" opacity="1" fill-opacity="0" stroke="#000000" stroke-width="1" stroke-opacity="0"></use></g></g><g><use xlink:href="#e1RURrwIHK" opacity="1" fill="#fec45e" fill-opacity="1"></use><g><use xlink:href="#e1RURrwIHK" opacity="1" fill-opacity="0" stroke="#000000" stroke-width="1" stroke-opacity="0"></use></g></g><g><use xlink:href="#a2mQjbnLa" opacity="1" fill="#6f6c51" fill-opacity="1"></use><g><use xlink:href="#a2mQjbnLa" opacity="1" fill-opacity="0" stroke="#000000" stroke-width="1" stroke-opacity="0"></use></g></g><g><use xlink:href="#bgjSqYKHS" opacity="1" fill="#fec45e" fill-opacity="1"></use><g><use xlink:href="#bgjSqYKHS" opacity="1" fill-opacity="0" stroke="#000000" stroke-width="1" stroke-opacity="0"></use></g></g><g><use xlink:href="#badlaM5a8" opacity="1" fill="#fcdb5a" fill-opacity="1"></use><g><use xlink:href="#badlaM5a8" opacity="1" fill-opacity="0" stroke="#000000" stroke-width="1" stroke-opacity="0"></use></g></g><g><use xlink:href="#b2oPXouRyw" opacity="1" fill="#9e9344" fill-opacity="1"></use><g><use xlink:href="#b2oPXouRyw" opacity="1" fill-opacity="0" stroke="#000000" stroke-width="1" stroke-opacity="0"></use></g></g></g></g></svg>